{
.appVersion = "1118";
copyright = "Copyright © 2018 by Cadson Demak Co.,Ltd.. All rights reserved.";
customParameters = (
{
name = vendorID;
value = CDK;
},
{
name = description;
value = "Copyright (c) 2018, Cadson Demak (info@cadsondemak.com)";
},
{
name = license;

glyphs = (
{
glyphname = A;
lastChange = "2018-03-07 08:14:48 +0000";
layers = (
{
anchors = (
{
name = bottom;
position = "{254, 0}";
},
{
name = ogonek;
position = "{491, 10}";
},
{
name = top;
position = "{365, 700}";
}
);
layerId = "0B1DFD06-3317-40CA-B510-4969A0718C16";
paths = (
{
closed = 1;
nodes = (
"54 -8 OFFCURVE",
"74 8 OFFCURVE",
"92 43 CURVE SMOOTH",
"169 195 LINE",
"422 195 LINE",
"461 -6 LINE",
"513 -6 OFFCURVE",
"537 26 OFFCURVE",
"526 85 CURVE SMOOTH",
"406 700 LINE",
"398 704 OFFCURVE",
"390 706 OFFCURVE",
"382 706 CURVE SMOOTH",
"357 706 OFFCURVE",
"335 686 OFFCURVE",
"313 644 CURVE SMOOTH",
"-14 0 LINE",
"-5 -5 OFFCURVE",
"11 -8 OFFCURVE",
"24 -8 CURVE SMOOTH"
);
},
{
closed = 1;
nodes = (
"356 581 LINE",
"409 269 LINE",
"205 269 LINE"
);
}
);
width = 587;
},
{
anchors = (
{
name = bottom;
position = "{348, 0}";
},
{
name = ogonek;
position = "{626, 10}";
},
{
name = top;
position = "{348, 700}";
}
);
associatedMasterId = "0B1DFD06-3317-40CA-B510-4969A0718C16";
layerId = "C5702369-7516-44E2-B786-1FC4D628B5A7";
name = "Mar 2 18, 00:15";
paths = (
{
closed = 1;
nodes = (
"100 -8 OFFCURVE",
"118 10 OFFCURVE",
"131 44 CURVE SMOOTH",
"188 190 LINE",
"506 190 LINE",
"566 39 LINE SMOOTH",
"578 9 OFFCURVE",
"602 -8 OFFCURVE",
"638 -8 CURVE SMOOTH",
"650 -8 OFFCURVE",
"667 -6 OFFCURVE",
"683 -1 CURVE",
"674 6 OFFCURVE",
"666 19 OFFCURVE",
"660 34 CURVE SMOOTH",
"393 700 LINE",
"302 700 LINE",
"20 -3 LINE",
"33 -6 OFFCURVE",
"47 -8 OFFCURVE",
"60 -8 CURVE SMOOTH"
);
},
{
closed = 1;
nodes = (
"347 596 LINE",
"348 596 LINE",
"474 269 LINE",
"220 269 LINE"
);
}
);
width = 695;
},
{
anchors = (
{
name = bottom;
position = "{252, 0}";
},
{
name = ogonek;
position = "{487, 10}";
},
{
name = top;
position = "{363, 700}";
}
);
background = {
paths = (
{
closed = 1;
nodes = (
"86 -8 OFFCURVE",
"104 8 OFFCURVE",
"116 43 CURVE SMOOTH",
"169 195 LINE",
"422 195 LINE",
"493 -6 LINE",
"540 -6 OFFCURVE",
"567 21 OFFCURVE",
"544 85 CURVE SMOOTH",
"326 700 LINE",
"317 704 OFFCURVE",
"309 706 OFFCURVE",
"301 706 CURVE SMOOTH",
"276 706 OFFCURVE",
"257 686 OFFCURVE",
"242 644 CURVE SMOOTH",
"17 0 LINE",
"27 -5 OFFCURVE",
"43 -8 OFFCURVE",
"56 -8 CURVE SMOOTH"
);
},
{
closed = 1;
nodes = (
"295 581 LINE",
"397 269 LINE",
"193 269 LINE"
);
},
{
closed = 0;
nodes = (
"303 671 LINE SMOOTH",
"68 0 LINE"
);
},
{
closed = 0;
nodes = (
"326 671 LINE SMOOTH",
"561 0 LINE"
);
},
{
closed = 0;
nodes = (
"288 671 LINE SMOOTH",
"523 0 LINE"
);
}
);
};
layerId = "0A0B3C42-2553-4A38-A2DF-85B7A92D388E";
paths = (
{
closed = 1;
nodes = (
"19 -6 OFFCURVE",
"29 2 OFFCURVE",
"40 23 CURVE SMOOTH",
"144 227 LINE",
"439 227 LINE",
"484 -6 LINE",
"509 -6 OFFCURVE",
"521 9 OFFCURVE",
"515 31 CURVE SMOOTH",
"386 703 LINE",
"382 705 OFFCURVE",
"377 706 OFFCURVE",
"372 706 CURVE SMOOTH",
"356 706 OFFCURVE",
"343 696 OFFCURVE",
"331 671 CURVE SMOOTH",
"-10 0 LINE",
"-5 -4 OFFCURVE",
"1 -6 OFFCURVE",
"7 -6 CURVE SMOOTH"
);
},
{
closed = 1;
nodes = (
"358 649 LINE",
"433 259 LINE",
"160 259 LINE"
);
}
);
width = 584;
}
);
leftKerningGroup = A;
note = A;
rightKerningGroup = A;
unicode = 0041;
},
{
glyphname = B;
lastChange = "2018-03-07 08:14:48 +0000";
layers = (
{
anchors = (
{
name = bottom;
position = "{250, 0}";
},
{
name = top;
position = "{361, 700}";
}
);
layerId = "0B1DFD06-3317-40CA-B510-4969A0718C16";
paths = (
{
closed = 1;
nodes = (
"399 -12 OFFCURVE",
"531 70 OFFCURVE",
"531 228 CURVE SMOOTH",
"531 302 OFFCURVE",
"487 347 OFFCURVE",
"417 364 CURVE",
"500 397 OFFCURVE",
"549 456 OFFCURVE",
"549 550 CURVE SMOOTH",
"549 651 OFFCURVE",
"472 714 OFFCURVE",
"322 714 CURVE SMOOTH",
"262 714 OFFCURVE",
"194 704 OFFCURVE",
"124 704 CURVE",
"112 683 LINE",
"142 639 OFFCURVE",
"140 589 OFFCURVE",
"127 514 CURVE SMOOTH",
"76 188 LINE SMOOTH",
"62 100 OFFCURVE",
"48 60 OFFCURVE",
"7 19 CURVE",
"12 -2 LINE",
"81 -2 OFFCURVE",
"158 -12 OFFCURVE",
"222 -12 CURVE SMOOTH"
);
},
{
closed = 1;
nodes = (
"142 67 OFFCURVE",
"154 129 OFFCURVE",
"164 188 CURVE SMOOTH",
"185 324 LINE",
"322 324 LINE SMOOTH",
"399 324 OFFCURVE",
"441 288 OFFCURVE",
"441 225 CURVE SMOOTH",
"441 118 OFFCURVE",
"365 62 OFFCURVE",
"244 62 CURVE SMOOTH",
"197 62 OFFCURVE",
"139 70 OFFCURVE",
"92 70 CURVE",
"96 25 LINE"
);
},
{
closed = 1;
nodes = (
"215 514 LINE SMOOTH",
"225 577 OFFCURVE",
"231 636 OFFCURVE",
"199 677 CURVE",
"181 632 LINE",
"231 632 OFFCURVE",
"281 640 OFFCURVE",
"326 640 CURVE SMOOTH",
"419 640 OFFCURVE",
"458 605 OFFCURVE",
"458 544 CURVE SMOOTH",
"458 463 OFFCURVE",
"415 396 OFFCURVE",
"329 396 CURVE SMOOTH",
"197 396 LINE"
);
}
);
width = 580;
},
{
anchors = (
{
name = bottom;
position = "{335, 0}";
},
{
name = top;
position = "{335, 700}";
}
);
associatedMasterId = "0B1DFD06-3317-40CA-B510-4969A0718C16";
layerId = "0950A29C-C9F2-4DA7-BCA9-77C4F52AF2F9";
name = "Feb 28 18, 20:09";
paths = (
{
closed = 1;
nodes = (
"368 0 LINE SMOOTH",
"526 0 OFFCURVE",
"627 75 OFFCURVE",
"627 193 CURVE SMOOTH",
"627 283 OFFCURVE",
"573 351 OFFCURVE",
"489 368 CURVE",
"489 370 LINE",
"552 392 OFFCURVE",
"592 450 OFFCURVE",
"592 519 CURVE SMOOTH",
"592 638 OFFCURVE",
"487 714 OFFCURVE",
"321 714 CURVE SMOOTH",
"245 714 OFFCURVE",
"143 706 OFFCURVE",
"51 692 CURVE",
"76 644 OFFCURVE",
"83 592 OFFCURVE",
"83 512 CURVE SMOOTH",
"83 180 LINE SMOOTH",
"83 100 OFFCURVE",
"76 48 OFFCURVE",
"51 0 CURVE"
);
},
{
closed = 1;
nodes = (
"169 83 OFFCURVE",
"171 132 OFFCURVE",
"171 180 CURVE SMOOTH",
"171 328 LINE",
"352 328 LINE SMOOTH",
"471 328 OFFCURVE",
"537 283 OFFCURVE",
"537 201 CURVE SMOOTH",
"537 119 OFFCURVE",
"471 74 OFFCURVE",
"352 74 CURVE SMOOTH",
"126 74 LINE",
"154 35 LINE"
);
},
{
closed = 1;
nodes = (
"171 512 LINE SMOOTH",
"171 560 OFFCURVE",
"169 609 OFFCURVE",
"154 657 CURVE",
"126 620 LINE",
"187 633 OFFCURVE",
"251 640 OFFCURVE",
"305 640 CURVE SMOOTH",
"432 640 OFFCURVE",
"502 596 OFFCURVE",
"502 518 CURVE SMOOTH",
"502 442 OFFCURVE",
"447 400 OFFCURVE",
"347 400 CURVE SMOOTH",
"171 400 LINE"
);
}
);
width = 669;
},
{
anchors = (
{
name = bottom;
position = "{235, 0}";
},
{
name = top;
position = "{346, 700}";
}
);
layerId = "0A0B3C42-2553-4A38-A2DF-85B7A92D388E";
paths = (
{
closed = 1;
nodes = (
"370 -10 OFFCURVE",
"497 79 OFFCURVE",
"497 224 CURVE SMOOTH",
"497 296 OFFCURVE",
"455 348 OFFCURVE",
"382 362 CURVE",
"462 383 OFFCURVE",
"515 463 OFFCURVE",
"515 548 CURVE SMOOTH",
"515 648 OFFCURVE",
"439 710 OFFCURVE",
"311 710 CURVE SMOOTH",
"251 710 OFFCURVE",
"198 704 OFFCURVE",
"142 704 CURVE",
"133 691 LINE",
"140 672 OFFCURVE",
"143 651 OFFCURVE",
"143 626 CURVE SMOOTH",
"143 597 OFFCURVE",
"138 561 OFFCURVE",
"131 514 CURVE SMOOTH",
"80 188 LINE SMOOTH",
"66 100 OFFCURVE",
"52 52 OFFCURVE",
"26 11 CURVE",
"30 -2 LINE",
"85 -2 OFFCURVE",
"148 -10 OFFCURVE",
"212 -10 CURVE SMOOTH"
);
},
{
closed = 1;
nodes = (
"94 59 OFFCURVE",
"108 129 OFFCURVE",
"118 188 CURVE SMOOTH",
"143 345 LINE",
"316 345 LINE SMOOTH",
"405 345 OFFCURVE",
"458 300 OFFCURVE",
"458 226 CURVE SMOOTH",
"458 105 OFFCURVE",
"360 22 OFFCURVE",
"227 22 CURVE SMOOTH",
"180 22 OFFCURVE",
"96 28 OFFCURVE",
"63 28 CURVE",
"67 17 LINE"
);
},
{
closed = 1;
nodes = (
"169 514 LINE SMOOTH",
"175 549 OFFCURVE",
"180 588 OFFCURVE",
"180 623 CURVE SMOOTH",
"180 645 OFFCURVE",
"178 666 OFFCURVE",
"172 683 CURVE",
"165 672 LINE",
"201 672 OFFCURVE",
"277 678 OFFCURVE",
"322 678 CURVE SMOOTH",
"418 678 OFFCURVE",
"475 627 OFFCURVE",
"475 546 CURVE SMOOTH",
"475 453 OFFCURVE",
"415 376 OFFCURVE",
"316 376 CURVE SMOOTH",
"148 376 LINE"
);
}
);
width = 550;
}
);
leftKerningGroup = E;
leftMetricsKey = E;
note = B;
rightKerningGroup = B;
unicode = 0042;
},
{
glyphname = C;
lastChange = "2018-03-07 08:14:48 +0000";
layers = (
{
anchors = (
{
name = bottom;
position = "{284, 0}";
},
{
name = top;
position = "{395, 700}";
}
);
layerId = "0B1DFD06-3317-40CA-B510-4969A0718C16";
paths = (
{
closed = 1;
nodes = (
"460 -12 OFFCURVE",
"580 54 OFFCURVE",
"580 129 CURVE SMOOTH",
"580 145 OFFCURVE",
"573 162 OFFCURVE",
"550 169 CURVE",
"501 109 OFFCURVE",
"427 62 OFFCURVE",
"333 62 CURVE SMOOTH",
"212 62 OFFCURVE",
"149 155 OFFCURVE",
"149 283 CURVE SMOOTH",
"149 463 OFFCURVE",
"259 640 OFFCURVE",
"424 640 CURVE SMOOTH",
"518 640 OFFCURVE",
"579 593 OFFCURVE",
"607 533 CURVE",
"649 545 OFFCURVE",
"653 581 OFFCURVE",
"653 595 CURVE SMOOTH",
"653 662 OFFCURVE",
"562 714 OFFCURVE",
"441 714 CURVE SMOOTH",
"208 714 OFFCURVE",
"55 509 OFFCURVE",
"55 269 CURVE SMOOTH",
"55 101 OFFCURVE",
"148 -12 OFFCURVE",
"326 -12 CURVE SMOOTH"
);
}
);
width = 646;
},
{
anchors = (
{
name = bottom;
position = "{274, 0}";
},
{
name = top;
position = "{385, 700}";
}
);
background = {
paths = (
{
closed = 0;
nodes = (
"367 710 LINE SMOOTH",
"454 710 OFFCURVE",
"526 679 OFFCURVE",
"576 625 CURVE"
);
}
);
};
layerId = "0A0B3C42-2553-4A38-A2DF-85B7A92D388E";
paths = (
{
closed = 1;
nodes = (
"448 -10 OFFCURVE",
"546 62 OFFCURVE",
"549 82 CURVE SMOOTH",
"551 94 OFFCURVE",
"545 100 OFFCURVE",
"532 100 CURVE",
"477 50 OFFCURVE",
"405 21 OFFCURVE",
"324 21 CURVE SMOOTH",
"181 21 OFFCURVE",
"99 116 OFFCURVE",
"99 271 CURVE SMOOTH",
"99 484 OFFCURVE",
"223 679 OFFCURVE",
"429 679 CURVE SMOOTH",
"510 679 OFFCURVE",
"572 650 OFFCURVE",
"611 600 CURVE",
"624 600 OFFCURVE",
"634 606 OFFCURVE",
"634 619 CURVE SMOOTH",
"634 641 OFFCURVE",
"560 710 OFFCURVE",
"441 710 CURVE SMOOTH",
"209 710 OFFCURVE",
"59 507 OFFCURVE",
"59 269 CURVE SMOOTH",
"59 96 OFFCURVE",
"158 -10 OFFCURVE",
"327 -10 CURVE SMOOTH"
);
}
);
width = 625;
}
);
leftKerningGroup = O;
leftMetricsKey = O;
note = C;
rightKerningGroup = C;
unicode = 0043;
},
{
glyphname = D;
lastChange = "2018-03-07 08:14:48 +0000";
layers = (
{
anchors = (
{
name = bottom;
position = "{280, 0}";
},
{
name = center;
position = "{335, 350}";
},
{
name = top;
position = "{391, 700}";
}
);
layerId = "0B1DFD06-3317-40CA-B510-4969A0718C16";
paths = (
{
closed = 1;
nodes = (
"458 -12 OFFCURVE",
"617 182 OFFCURVE",
"617 432 CURVE SMOOTH",
"617 607 OFFCURVE",
"514 714 OFFCURVE",
"326 714 CURVE SMOOTH",
"269 714 OFFCURVE",
"190 704 OFFCURVE",
"124 704 CURVE",
"112 683 LINE",
"142 639 OFFCURVE",
"140 589 OFFCURVE",
"127 514 CURVE SMOOTH",
"76 188 LINE SMOOTH",
"62 100 OFFCURVE",
"48 60 OFFCURVE",
"7 19 CURVE",
"12 -2 LINE",
"78 -2 OFFCURVE",
"154 -12 OFFCURVE",
"211 -12 CURVE SMOOTH"
);
},
{
closed = 1;
nodes = (
"142 67 OFFCURVE",
"154 129 OFFCURVE",
"164 188 CURVE SMOOTH",
"215 514 LINE SMOOTH",
"225 577 OFFCURVE",
"231 636 OFFCURVE",
"199 677 CURVE",
"181 632 LINE",
"230 632 OFFCURVE",
"272 640 OFFCURVE",
"316 640 CURVE SMOOTH",
"453 640 OFFCURVE",
"524 565 OFFCURVE",
"524 427 CURVE SMOOTH",
"524 227 OFFCURVE",
"422 62 OFFCURVE",
"225 62 CURVE SMOOTH",
"181 62 OFFCURVE",
"141 70 OFFCURVE",
"92 70 CURVE",
"96 25 LINE"
);
}
);
width = 640;
},
{
anchors = (
{
name = bottom;
position = "{270, 0}";
},
{
name = center;
position = "{325, 350}";
},
{
name = top;
position = "{381, 700}";
}
);
layerId = "0A0B3C42-2553-4A38-A2DF-85B7A92D388E";
paths = (
{
closed = 1;
nodes = (
"438 -10 OFFCURVE",
"592 188 OFFCURVE",
"592 429 CURVE SMOOTH",
"592 604 OFFCURVE",
"490 710 OFFCURVE",
"315 710 CURVE SMOOTH",
"258 710 OFFCURVE",
"194 704 OFFCURVE",
"142 704 CURVE",
"133 691 LINE",
"140 672 OFFCURVE",
"143 651 OFFCURVE",
"143 626 CURVE SMOOTH",
"143 597 OFFCURVE",
"138 561 OFFCURVE",
"131 514 CURVE SMOOTH",
"80 188 LINE SMOOTH",
"66 100 OFFCURVE",
"52 52 OFFCURVE",
"26 11 CURVE",
"30 -2 LINE",
"82 -2 OFFCURVE",
"144 -10 OFFCURVE",
"201 -10 CURVE SMOOTH"
);
},
{
closed = 1;
nodes = (
"94 59 OFFCURVE",
"108 129 OFFCURVE",
"118 188 CURVE SMOOTH",
"169 514 LINE SMOOTH",
"175 549 OFFCURVE",
"180 588 OFFCURVE",
"180 623 CURVE SMOOTH",
"180 645 OFFCURVE",
"178 666 OFFCURVE",
"172 683 CURVE",
"165 672 LINE",
"201 672 OFFCURVE",
"267 678 OFFCURVE",
"312 678 CURVE SMOOTH",
"464 678 OFFCURVE",
"553 582 OFFCURVE",
"553 425 CURVE SMOOTH",
"553 211 OFFCURVE",
"421 22 OFFCURVE",
"208 22 CURVE SMOOTH",
"163 22 OFFCURVE",
"99 28 OFFCURVE",
"63 28 CURVE",
"67 17 LINE"
);
}
);
width = 621;
}
);
leftKerningGroup = E;
leftMetricsKey = E;
note = D;
rightKerningGroup = O;
rightMetricsKey = O;
unicode = 0044;
},
{
glyphname = E;
lastChange = "2018-03-07 08:14:48 +0000";
layers = (
{
anchors = (
{
name = bottom;
position = "{220, 0}";
},
{
name = ogonek;
position = "{430, 10}";
},
{
name = top;
position = "{331, 700}";
},
{
name = topleft;
position = "{91, 700}";
}
);
layerId = "0B1DFD06-3317-40CA-B510-4969A0718C16";
paths = (
{
closed = 1;
nodes = (
"393 0 LINE SMOOTH",
"431 0 OFFCURVE",
"459 21 OFFCURVE",
"459 63 CURVE SMOOTH",
"459 67 OFFCURVE",
"458 72 OFFCURVE",
"457 76 CURVE",
"93 76 LINE",
"97 34 LINE",
"143 76 OFFCURVE",
"154 127 OFFCURVE",
"162 177 CURVE SMOOTH",
"185 320 LINE",
"396 320 LINE SMOOTH",
"433 320 OFFCURVE",
"462 341 OFFCURVE",
"462 382 CURVE SMOOTH",
"462 387 OFFCURVE",
"461 392 OFFCURVE",
"460 396 CURVE",
"197 396 LINE",
"217 523 LINE SMOOTH",
"225 580 OFFCURVE",
"229 626 OFFCURVE",
"197 666 CURVE",
"180 624 LINE",
"476 624 LINE SMOOTH",
"513 624 OFFCURVE",
"542 645 OFFCURVE",
"542 686 CURVE SMOOTH",
"542 691 OFFCURVE",
"541 696 OFFCURVE",
"540 700 CURVE",
"123 700 LINE",
"112 679 LINE",
"142 632 OFFCURVE",
"138 594 OFFCURVE",
"129 523 CURVE SMOOTH",
"74 177 LINE SMOOTH",
"62 98 OFFCURVE",
"48 62 OFFCURVE",
"7 21 CURVE",
"12 0 LINE"
);
}
);
width = 520;
},
{
anchors = (
{
name = bottom;
position = "{295, 0}";
},
{
name = ogonek;
position = "{522, 23}";
},
{
name = top;
position = "{295, 700}";
},
{
name = topleft;
position = "{19, 700}";
}
);
associatedMasterId = "0B1DFD06-3317-40CA-B510-4969A0718C16";
layerId = "35B400F3-0F51-43AF-8637-FFD2658DD2F3";
name = "Mar 3 18, 11:01";
paths = (
{
closed = 1;
nodes = (
"427 0 LINE SMOOTH",
"460 0 OFFCURVE",
"484 17 OFFCURVE",
"484 50 CURVE SMOOTH",
"484 57 OFFCURVE",
"483 67 OFFCURVE",
"480 76 CURVE",
"168 76 LINE",
"168 320 LINE",
"379 320 LINE SMOOTH",
"412 320 OFFCURVE",
"436 337 OFFCURVE",
"436 370 CURVE SMOOTH",
"436 377 OFFCURVE",
"435 387 OFFCURVE",
"432 396 CURVE",
"168 396 LINE",
"168 624 LINE",
"411 624 LINE SMOOTH",
"444 624 OFFCURVE",
"468 641 OFFCURVE",
"468 674 CURVE SMOOTH",
"468 681 OFFCURVE",
"467 691 OFFCURVE",
"464 700 CURVE",
"80 700 LINE",
"80 0 LINE"
);
}
);
width = 504;
},
{
anchors = (
{
name = bottom;
position = "{210, 0}";
},
{
name = ogonek;
position = "{412, 10}";
},
{
name = top;
position = "{321, 700}";
},
{
name = topleft;
position = "{91, 700}";
}
);
layerId = "0A0B3C42-2553-4A38-A2DF-85B7A92D388E";
paths = (
{
closed = 1;
nodes = (
"397 0 LINE SMOOTH",
"417 0 OFFCURVE",
"429 7 OFFCURVE",
"429 21 CURVE SMOOTH",
"429 25 OFFCURVE",
"428 29 OFFCURVE",
"427 32 CURVE",
"64 32 LINE",
"67 17 LINE",
"94 59 OFFCURVE",
"108 129 OFFCURVE",
"118 188 CURVE SMOOTH",
"144 355 LINE",
"405 355 LINE SMOOTH",
"425 355 OFFCURVE",
"438 363 OFFCURVE",
"438 379 CURVE SMOOTH",
"438 381 OFFCURVE",
"437 384 OFFCURVE",
"436 386 CURVE",
"149 386 LINE",
"169 514 LINE SMOOTH",
"175 549 OFFCURVE",
"180 588 OFFCURVE",
"180 623 CURVE SMOOTH",
"180 645 OFFCURVE",
"178 666 OFFCURVE",
"172 683 CURVE",
"165 668 LINE",
"487 668 LINE SMOOTH",
"507 668 OFFCURVE",
"519 675 OFFCURVE",
"519 690 CURVE SMOOTH",
"519 693 OFFCURVE",
"518 697 OFFCURVE",
"517 700 CURVE",
"141 700 LINE",
"133 687 LINE",
"139 668 OFFCURVE",
"142 648 OFFCURVE",
"142 623 CURVE SMOOTH",
"142 595 OFFCURVE",
"138 560 OFFCURVE",
"131 514 CURVE SMOOTH",
"80 188 LINE SMOOTH",
"66 100 OFFCURVE",
"53 54 OFFCURVE",
"26 13 CURVE",
"30 0 LINE"
);
}
);
width = 500;
}
);
leftKerningGroup = E;
note = E;
rightKerningGroup = E;
unicode = 0045;
},
{
glyphname = F;
lastChange = "2018-03-07 08:14:48 +0000";
layers = (
{
anchors = (
{
name = bottom;
position = "{209, 0}";
},
{
name = top;
position = "{320, 700}";
}
);
background = {
anchors = (
{
name = bottom;
position = "{209, 0}";
},
{
name = top;
position = "{320, 700}";
}
);
paths = (
{
closed = 1;
nodes = (
"110 -6 OFFCURVE",
"135 20 OFFCURVE",
"141 59 CURVE SMOOTH",
"181 310 LINE",
"376 310 LINE SMOOTH",
"414 310 OFFCURVE",
"442 332 OFFCURVE",
"442 374 CURVE SMOOTH",
"442 378 OFFCURVE",
"442 382 OFFCURVE",
"441 386 CURVE",
"193 386 LINE",
"215 523 LINE SMOOTH",
"218 543 OFFCURVE",
"221 563 OFFCURVE",
"221 583 CURVE SMOOTH",
"221 612 OFFCURVE",
"215 641 OFFCURVE",
"195 666 CURVE",
"178 624 LINE",
"474 624 LINE SMOOTH",
"511 624 OFFCURVE",
"540 645 OFFCURVE",
"540 686 CURVE SMOOTH",
"540 691 OFFCURVE",
"540 696 OFFCURVE",
"539 700 CURVE",
"121 700 LINE",
"110 679 LINE",
"127 653 OFFCURVE",
"134 630 OFFCURVE",
"134 596 CURVE SMOOTH",
"134 576 OFFCURVE",
"131 553 OFFCURVE",
"127 523 CURVE SMOOTH",
"44 -2 LINE",
"54 -5 OFFCURVE",
"64 -6 OFFCURVE",
"72 -6 CURVE SMOOTH"
);
}
);
};
layerId = "0B1DFD06-3317-40CA-B510-4969A0718C16";
paths = (
{
closed = 1;
nodes = (
"110 -6 OFFCURVE",
"135 20 OFFCURVE",
"141 59 CURVE SMOOTH",
"181 310 LINE",
"376 310 LINE SMOOTH",
"414 310 OFFCURVE",
"442 331 OFFCURVE",
"442 373 CURVE SMOOTH",
"442 377 OFFCURVE",
"441 382 OFFCURVE",
"440 386 CURVE",
"193 386 LINE",
"215 523 LINE SMOOTH",
"223 580 OFFCURVE",
"227 626 OFFCURVE",
"195 666 CURVE",
"178 624 LINE",
"474 624 LINE SMOOTH",
"511 624 OFFCURVE",
"540 645 OFFCURVE",
"540 686 CURVE SMOOTH",
"540 691 OFFCURVE",
"539 696 OFFCURVE",
"538 700 CURVE",
"121 700 LINE",
"110 679 LINE",
"140 632 OFFCURVE",
"136 594 OFFCURVE",
"127 523 CURVE SMOOTH",
"44 -2 LINE",
"54 -5 OFFCURVE",
"64 -6 OFFCURVE",
"72 -6 CURVE SMOOTH"
);
}
);
width = 498;
},
{
anchors = (
{
name = bottom;
position = "{199, 0}";
},
{
name = top;
position = "{310, 700}";
}
);
background = {
paths = (
{
closed = 1;
nodes = (
"149 -6 OFFCURVE",
"170 20 OFFCURVE",
"170 59 CURVE SMOOTH",
"170 310 LINE",
"365 310 LINE SMOOTH",
"398 310 OFFCURVE",
"422 327 OFFCURVE",
"422 360 CURVE SMOOTH",
"422 367 OFFCURVE",
"421 377 OFFCURVE",
"418 386 CURVE",
"170 386 LINE",
"170 523 LINE SMOOTH",
"170 573 OFFCURVE",
"167 624 OFFCURVE",
"128 666 CURVE",
"117 624 LINE",
"413 624 LINE SMOOTH",
"446 624 OFFCURVE",
"470 641 OFFCURVE",
"470 674 CURVE SMOOTH",
"470 681 OFFCURVE",
"469 691 OFFCURVE",
"466 700 CURVE",
"48 700 LINE",
"40 679 LINE",
"74 638 OFFCURVE",
"82 602 OFFCURVE",
"82 523 CURVE SMOOTH",
"82 -2 LINE",
"93 -5 OFFCURVE",
"103 -6 OFFCURVE",
"111 -6 CURVE SMOOTH"
);
}
);
};
layerId = "0A0B3C42-2553-4A38-A2DF-85B7A92D388E";
paths = (
{
closed = 1;
nodes = (
"77 -4 OFFCURVE",
"87 9 OFFCURVE",
"91 31 CURVE SMOOTH",
"141 345 LINE",
"386 345 LINE SMOOTH",
"404 345 OFFCURVE",
"418 353 OFFCURVE",
"418 367 CURVE SMOOTH",
"418 370 OFFCURVE",
"417 374 OFFCURVE",
"416 376 CURVE",
"146 376 LINE",
"167 514 LINE SMOOTH",
"173 549 OFFCURVE",
"178 588 OFFCURVE",
"178 623 CURVE SMOOTH",
"178 645 OFFCURVE",
"176 666 OFFCURVE",
"170 683 CURVE",
"163 668 LINE",
"485 668 LINE SMOOTH",
"505 668 OFFCURVE",
"517 675 OFFCURVE",
"517 691 CURVE SMOOTH",
"517 694 OFFCURVE",
"516 698 OFFCURVE",
"515 700 CURVE",
"139 700 LINE",
"131 687 LINE",
"137 668 OFFCURVE",
"140 648 OFFCURVE",
"140 623 CURVE SMOOTH",
"140 595 OFFCURVE",
"136 560 OFFCURVE",
"129 514 CURVE SMOOTH",
"48 0 LINE",
"53 -3 OFFCURVE",
"56 -4 OFFCURVE",
"60 -4 CURVE SMOOTH"
);
}
);
width = 478;
}
);
leftKerningGroup = F;
note = F;
rightKerningGroup = F;
unicode = 0046;
},
{
glyphname = G;
lastChange = "2018-03-07 08:14:48 +0000";
layers = (
{
anchors = (
{
name = bottom;
position = "{305, 0}";
},
{
name = top;
position = "{416, 700}";
}
);
layerId = "0B1DFD06-3317-40CA-B510-4969A0718C16";
paths = (
{
closed = 1;
nodes = (
"511 -12 OFFCURVE",
"650 135 OFFCURVE",
"650 325 CURVE SMOOTH",
"650 335 OFFCURVE",
"649 346 OFFCURVE",
"647 356 CURVE",
"442 356 LINE SMOOTH",
"405 356 OFFCURVE",
"376 335 OFFCURVE",
"376 294 CURVE SMOOTH",
"376 289 OFFCURVE",
"377 285 OFFCURVE",
"377 280 CURVE",
"562 280 LINE",
"541 147 OFFCURVE",
"446 62 OFFCURVE",
"327 62 CURVE SMOOTH",
"212 62 OFFCURVE",
"148 142 OFFCURVE",
"148 273 CURVE SMOOTH",
"148 458 OFFCURVE",
"247 640 OFFCURVE",
"424 640 CURVE SMOOTH",
"510 640 OFFCURVE",
"580 597 OFFCURVE",
"616 527 CURVE",
"658 538 OFFCURVE",
"662 574 OFFCURVE",
"662 589 CURVE SMOOTH",
"662 657 OFFCURVE",
"562 714 OFFCURVE",
"438 714 CURVE SMOOTH",
"204 714 OFFCURVE",
"55 508 OFFCURVE",
"55 266 CURVE SMOOTH",
"55 94 OFFCURVE",
"151 -12 OFFCURVE",
"318 -12 CURVE SMOOTH"
);
}
);
width = 688;
},
{
anchors = (
{
name = bottom;
position = "{352, 0}";
},
{
name = top;
position = "{372, 700}";
}
);
associatedMasterId = "0B1DFD06-3317-40CA-B510-4969A0718C16";
layerId = "9BC9E890-7C02-4438-9E87-0B0ED92DEC69";
name = "Mar 2 18, 00:14";
paths = (
{
closed = 1;
nodes = (
"470 -8 OFFCURVE",
"674 45 OFFCURVE",
"674 297 CURVE SMOOTH",
"674 324 OFFCURVE",
"672 352 OFFCURVE",
"664 379 CURVE",
"406 379 LINE",
"406 327 OFFCURVE",
"433 297 OFFCURVE",
"478 297 CURVE SMOOTH",
"592 297 LINE",
"592 291 LINE SMOOTH",
"592 177 OFFCURVE",
"513 76 OFFCURVE",
"386 76 CURVE SMOOTH",
"234 76 OFFCURVE",
"147 186 OFFCURVE",
"147 350 CURVE SMOOTH",
"147 514 OFFCURVE",
"242 628 OFFCURVE",
"391 628 CURVE SMOOTH",
"493 628 OFFCURVE",
"568 592 OFFCURVE",
"603 541 CURVE",
"633 550 OFFCURVE",
"640 571 OFFCURVE",
"640 595 CURVE SMOOTH",
"640 663 OFFCURVE",
"510 712 OFFCURVE",
"391 712 CURVE SMOOTH",
"186 712 OFFCURVE",
"56 559 OFFCURVE",
"56 350 CURVE SMOOTH",
"56 141 OFFCURVE",
"185 -8 OFFCURVE",
"384 -8 CURVE SMOOTH"
);
}
);
width = 744;
},
{
anchors = (
{
name = bottom;
position = "{295, 0}";
},
{
name = top;
position = "{406, 700}";
}
);
layerId = "0A0B3C42-2553-4A38-A2DF-85B7A92D388E";
paths = (
{
closed = 1;
nodes = (
"482 -10 OFFCURVE",
"594 100 OFFCURVE",
"626 305 CURVE SMOOTH",
"629 325 OFFCURVE",
"630 335 OFFCURVE",
"629 346 CURVE",
"403 346 LINE SMOOTH",
"383 346 OFFCURVE",
"371 340 OFFCURVE",
"371 325 CURVE SMOOTH",
"371 322 OFFCURVE",
"372 318 OFFCURVE",
"373 315 CURVE",
"589 315 LINE",
"558 117 OFFCURVE",
"466 21 OFFCURVE",
"324 21 CURVE SMOOTH",
"181 21 OFFCURVE",
"99 116 OFFCURVE",
"99 271 CURVE SMOOTH",
"99 488 OFFCURVE",
"225 679 OFFCURVE",
"435 679 CURVE SMOOTH",
"520 679 OFFCURVE",
"582 650 OFFCURVE",
"621 600 CURVE",
"634 600 OFFCURVE",
"644 606 OFFCURVE",
"644 619 CURVE SMOOTH",
"644 641 OFFCURVE",
"570 710 OFFCURVE",
"447 710 CURVE SMOOTH",
"211 710 OFFCURVE",
"59 511 OFFCURVE",
"59 269 CURVE SMOOTH",
"59 96 OFFCURVE",
"156.995 -10 OFFCURVE",
"319 -10 CURVE SMOOTH"
);
}
);
width = 668;
}
);
leftKerningGroup = O;
leftMetricsKey = O;
note = G;
rightKerningGroup = G;
unicode = 0047;
},
{
glyphname = H;
lastChange = "2018-03-07 08:14:48 +0000";
layers = (
{
anchors = (
{
name = bottom;
position = "{293, 0}";
},
{
name = center;
position = "{348, 350}";
},
{
name = top;
position = "{404, 700}";
},
{
name = topleft;
position = "{90, 700}";
}
);
layerId = "0B1DFD06-3317-40CA-B510-4969A0718C16";
paths = (
{
closed = 1;
nodes = (
"525 -6 OFFCURVE",
"550 20 OFFCURVE",
"556 59 CURVE SMOOTH",
"658 702 LINE",
"648 705 OFFCURVE",
"637 706 OFFCURVE",
"629 706 CURVE SMOOTH",
"591 706 OFFCURVE",
"567 679 OFFCURVE",
"561 641 CURVE SMOOTH",
"459 -2 LINE",
"469 -5 OFFCURVE",
"479 -6 OFFCURVE",
"487 -6 CURVE SMOOTH"
);
},
{
closed = 1;
nodes = (
"105 -6 OFFCURVE",
"130 20 OFFCURVE",
"136 59 CURVE SMOOTH",
"238 702 LINE",
"228 705 OFFCURVE",
"217 706 OFFCURVE",
"209 706 CURVE SMOOTH",
"171 706 OFFCURVE",
"147 679 OFFCURVE",
"141 641 CURVE SMOOTH",
"39 -2 LINE",
"49 -5 OFFCURVE",
"59 -6 OFFCURVE",
"67 -6 CURVE SMOOTH"
);
},
{
closed = 1;
nodes = (
"525 310 LINE",
"537 386 LINE",
"172 386 LINE",
"160 310 LINE"
);
}
);
width = 667;
},
{
anchors = (
{
name = bottom;
position = "{283, 0}";
},
{
name = center;
position = "{338, 350}";
},
{
name = top;
position = "{394, 700}";
},
{
name = topleft;
position = "{90, 700}";
}
);
layerId = "0A0B3C42-2553-4A38-A2DF-85B7A92D388E";
paths = (
{
closed = 1;
nodes = (
"514 -4 OFFCURVE",
"524 9 OFFCURVE",
"528 31 CURVE SMOOTH",
"634 700 LINE",
"629 703 OFFCURVE",
"626 704 OFFCURVE",
"622 704 CURVE SMOOTH",
"605 704 OFFCURVE",
"594 691 OFFCURVE",
"591 669 CURVE SMOOTH",
"485 0 LINE",
"490 -3 OFFCURVE",
"493 -4 OFFCURVE",
"497 -4 CURVE SMOOTH"
);
},
{
closed = 1;
nodes = (
"72 -4 OFFCURVE",
"82 9 OFFCURVE",
"86 31 CURVE SMOOTH",
"192 700 LINE",
"187 703 OFFCURVE",
"184 704 OFFCURVE",
"180 704 CURVE SMOOTH",
"163 704 OFFCURVE",
"152 691 OFFCURVE",
"149 669 CURVE SMOOTH",
"43 0 LINE",
"48 -3 OFFCURVE",
"51 -4 OFFCURVE",
"55 -4 CURVE SMOOTH"
);
},
{
closed = 1;
nodes = (
"550 340 LINE",
"555 372 LINE",
"130 372 LINE",
"125 340 LINE"
);
}
);
width = 647;
}
);
leftKerningGroup = H;
leftMetricsKey = "=|";
note = H;
rightKerningGroup = H;
unicode = 0048;
},
{
glyphname = I;
lastChange = "2018-03-07 08:14:48 +0000";
layers = (
{
anchors = (
{
name = bottom;
position = "{85, 0}";
},
{
name = ogonek;
position = "{188, 10}";
},
{
name = top;
position = "{196, 700}";
},
{
name = topleft;
position = "{90, 700}";
}
);
layerId = "0B1DFD06-3317-40CA-B510-4969A0718C16";
paths = (
{
closed = 1;
nodes = (
"107 -6 OFFCURVE",
"132 20 OFFCURVE",
"138 59 CURVE SMOOTH",
"240 702 LINE",
"230 705 OFFCURVE",
"219 706 OFFCURVE",
"211 706 CURVE SMOOTH",
"173 706 OFFCURVE",
"149 679 OFFCURVE",
"143 641 CURVE SMOOTH",
"41 -2 LINE",
"51 -5 OFFCURVE",
"61 -6 OFFCURVE",
"69 -6 CURVE SMOOTH"
);
}
);
width = 251;
},
{
anchors = (
{
name = bottom;
position = "{68, 0}";
},
{
name = ogonek;
position = "{157, 10}";
},
{
name = top;
position = "{179, 700}";
},
{
name = topleft;
position = "{90, 700}";
}
);
layerId = "0A0B3C42-2553-4A38-A2DF-85B7A92D388E";
paths = (
{
closed = 1;
nodes = (
"78 -4 OFFCURVE",
"88 9 OFFCURVE",
"92 31 CURVE SMOOTH",
"198 700 LINE",
"193 703 OFFCURVE",
"190 704 OFFCURVE",
"186 704 CURVE SMOOTH",
"169 704 OFFCURVE",
"158 691 OFFCURVE",
"155 669 CURVE SMOOTH",
"49 0 LINE",
"54 -3 OFFCURVE",
"57 -4 OFFCURVE",
"61 -4 CURVE SMOOTH"
);
}
);
width = 217;
}
);
leftKerningGroup = I;
leftMetricsKey = "=|";
note = I;
rightKerningGroup = I;
unicode = 0049;
},
{
glyphname = J;
lastChange = "2018-03-07 08:14:48 +0000";
layers = (
{
anchors = (
{
name = bottom;
position = "{141, 0}";
},
{
name = top;
position = "{252, 700}";
}
);
layerId = "0B1DFD06-3317-40CA-B510-4969A0718C16";
paths = (
{
closed = 1;
nodes = (
"181 -12 OFFCURVE",
"254 36 OFFCURVE",
"273 157 CURVE SMOOTH",
"359 702 LINE",
"349 705 OFFCURVE",
"338 706 OFFCURVE",
"330 706 CURVE SMOOTH",
"292 706 OFFCURVE",
"268 679 OFFCURVE",
"262 641 CURVE SMOOTH",
"185 157 LINE SMOOTH",
"173 83 OFFCURVE",
"145 69 OFFCURVE",
"110 69 CURVE SMOOTH",
"74 69 OFFCURVE",
"46 84 OFFCURVE",
"27 100 CURVE",
"8 92 OFFCURVE",
"-3 74 OFFCURVE",
"-3 55 CURVE SMOOTH",
"-3 22 OFFCURVE",
"30 -12 OFFCURVE",
"99 -12 CURVE SMOOTH"
);
}
);
width = 364;
},
{
anchors = (
{
name = bottom;
position = "{212, 0}";
},
{
name = top;
position = "{297, 700}";
}
);
associatedMasterId = "0B1DFD06-3317-40CA-B510-4969A0718C16";
layerId = "5816EC3A-1C37-4248-9DBF-71203F355893";
name = "Mar 3 18, 11:21";
paths = (
{
closed = 1;
nodes = (
"289 -12 OFFCURVE",
"344 56 OFFCURVE",
"344 197 CURVE SMOOTH",
"344 702 LINE",
"333 705 OFFCURVE",
"322 706 OFFCURVE",
"314 706 CURVE SMOOTH",
"276 706 OFFCURVE",
"256 679 OFFCURVE",
"256 641 CURVE SMOOTH",
"256 197 LINE SMOOTH",
"256 103 OFFCURVE",
"234 69 OFFCURVE",
"156 69 CURVE SMOOTH",
"101 69 OFFCURVE",
"70 86 OFFCURVE",
"53 100 CURVE",
"38 95 OFFCURVE",
"28 79 OFFCURVE",
"28 63 CURVE SMOOTH",
"28 29 OFFCURVE",
"72 -12 OFFCURVE",
"167 -12 CURVE SMOOTH"
);
}
);
width = 423;
},
{
anchors = (
{
name = bottom;
position = "{139, 0}";
},
{
name = top;
position = "{250, 700}";
}
);
layerId = "0A0B3C42-2553-4A38-A2DF-85B7A92D388E";
paths = (
{
closed = 1;
nodes = (
"185 -10 OFFCURVE",
"245 46 OFFCURVE",
"261 147 CURVE SMOOTH",
"349 700 LINE",
"344 703 OFFCURVE",
"341 704 OFFCURVE",
"337 704 CURVE SMOOTH",
"320 704 OFFCURVE",
"309 691 OFFCURVE",
"306 669 CURVE SMOOTH",
"223 147 LINE SMOOTH",
"210 66 OFFCURVE",
"168 21 OFFCURVE",
"103 21 CURVE SMOOTH",
"62 21 OFFCURVE",
"37 39 OFFCURVE",
"19 57 CURVE",
"6 57 OFFCURVE",
"-2 49 OFFCURVE",
"-2 35 CURVE SMOOTH",
"-2 14 OFFCURVE",
"39 -10 OFFCURVE",
"97 -10 CURVE SMOOTH"
);
}
);
width = 358;
}
);
leftKerningGroup = J;
note = J;
rightKerningGroup = J;
unicode = 004A;
},
{
glyphname = K;
lastChange = "2018-03-07 08:14:48 +0000";
layers = (
{
anchors = (
{
name = bottom;
position = "{284, 0}";
},
{
name = top;
position = "{395, 700}";
}
);
layerId = "0B1DFD06-3317-40CA-B510-4969A0718C16";
paths = (
{
closed = 1;
nodes = (
"605 700 LINE",
"589 706 OFFCURVE",
"568 708 OFFCURVE",
"556 708 CURVE SMOOTH",
"529 708 OFFCURVE",
"490 691 OFFCURVE",
"461 660 CURVE SMOOTH",
"144 337 LINE",
"126 220 LINE"
);
},
{
closed = 1;
nodes = (
"105 -6 OFFCURVE",
"130 21 OFFCURVE",
"136 59 CURVE SMOOTH",
"238 702 LINE",
"228 705 OFFCURVE",
"217 706 OFFCURVE",
"209 706 CURVE SMOOTH",
"171 706 OFFCURVE",
"147 679 OFFCURVE",
"141 641 CURVE SMOOTH",
"39 -2 LINE",
"49 -5 OFFCURVE",
"59 -6 OFFCURVE",
"68 -6 CURVE SMOOTH"
);
},
{
closed = 1;
nodes = (
"473 -8 OFFCURVE",
"490 -6 OFFCURVE",
"510 1 CURVE",
"512 12 LINE",
"498 18 OFFCURVE",
"482 44 OFFCURVE",
"458 92 CURVE SMOOTH",
"349 305 LINE SMOOTH",
"331 340 OFFCURVE",
"309 357 OFFCURVE",
"276 357 CURVE SMOOTH",
"262 357 OFFCURVE",
"244 355 OFFCURVE",
"229 352 CURVE",
"389 32 LINE SMOOTH",
"402 6 OFFCURVE",
"426 -8 OFFCURVE",
"457 -8 CURVE SMOOTH"
);
}
);
width = 558;
},
{
anchors = (
{
name = bottom;
position = "{224, 0}";
},
{
name = top;
position = "{335, 700}";
}
);
layerId = "0A0B3C42-2553-4A38-A2DF-85B7A92D388E";
paths = (
{
closed = 1;
nodes = (
"571 700 LINE",
"565 702 OFFCURVE",
"559 703 OFFCURVE",
"552 703 CURVE SMOOTH",
"534 703 OFFCURVE",
"522 696 OFFCURVE",
"510 684 CURVE SMOOTH",
"111 278 LINE",
"102 224 LINE"
);
},
{
closed = 1;
nodes = (
"72 -4 OFFCURVE",
"82 9 OFFCURVE",
"86 31 CURVE SMOOTH",
"192 700 LINE",
"187 703 OFFCURVE",
"184 704 OFFCURVE",
"180 704 CURVE SMOOTH",
"163 704 OFFCURVE",
"152 691 OFFCURVE",
"149 669 CURVE SMOOTH",
"43 0 LINE",
"48 -3 OFFCURVE",
"51 -4 OFFCURVE",
"55 -4 CURVE SMOOTH"
);
},
{
closed = 1;
nodes = (
"461 -4 OFFCURVE",
"469 -3 OFFCURVE",
"476 0 CURVE",
"477 6 LINE",
"469 9 OFFCURVE",
"463 19 OFFCURVE",
"453 38 CURVE SMOOTH",
"281 339 LINE SMOOTH",
"271 355 OFFCURVE",
"262 363 OFFCURVE",
"248 363 CURVE SMOOTH",
"240 363 OFFCURVE",
"233 361 OFFCURVE",
"225 358 CURVE",
"426 12 LINE SMOOTH",
"431 2 OFFCURVE",
"438 -4 OFFCURVE",
"454 -4 CURVE SMOOTH"
);
}
);
width = 528;
}
);
leftKerningGroup = H;
leftMetricsKey = H;
note = K;
rightKerningGroup = K;
unicode = 004B;
},
{
glyphname = L;
lastChange = "2018-03-07 08:14:48 +0000";
layers = (
{
anchors = (
{
name = bottom;
position = "{208, 0}";
},
{
name = center;
position = "{263, 350}";
},
{
name = top;
position = "{319, 700}";
},
{
name = topright;
position = "{546, 700}";
}
);
layerId = "0B1DFD06-3317-40CA-B510-4969A0718C16";
paths = (
{
closed = 1;
nodes = (
"376 0 LINE SMOOTH",
"414 0 OFFCURVE",
"442 21 OFFCURVE",
"442 63 CURVE SMOOTH",
"442 67 OFFCURVE",
"441 72 OFFCURVE",
"440 76 CURVE",
"92 76 LINE",
"96 34 LINE",
"142 76 OFFCURVE",
"153 127 OFFCURVE",
"161 177 CURVE SMOOTH",
"244 702 LINE",
"234 705 OFFCURVE",
"223 706 OFFCURVE",
"215 706 CURVE SMOOTH",
"177 706 OFFCURVE",
"153 679 OFFCURVE",
"147 641 CURVE SMOOTH",
"73 177 LINE SMOOTH",
"61 98 OFFCURVE",
"47 62 OFFCURVE",
"6 21 CURVE",
"11 0 LINE"
);
}
);
width = 495;
},
{
anchors = (
{
name = bottom;
position = "{198, 0}";
},
{
name = center;
position = "{253, 350}";
},
{
name = top;
position = "{309, 700}";
},
{
name = topright;
position = "{526, 700}";
}
);
layerId = "0A0B3C42-2553-4A38-A2DF-85B7A92D388E";
paths = (
{
closed = 1;
nodes = (
"380 0 LINE SMOOTH",
"400 0 OFFCURVE",
"412 7 OFFCURVE",
"412 22 CURVE SMOOTH",
"412 25 OFFCURVE",
"411 29 OFFCURVE",
"410 32 CURVE",
"63 32 LINE",
"66 17 LINE",
"93 59 OFFCURVE",
"107 129 OFFCURVE",
"117 188 CURVE SMOOTH",
"198 700 LINE",
"193 703 OFFCURVE",
"190 704 OFFCURVE",
"186 704 CURVE SMOOTH",
"169 704 OFFCURVE",
"158 691 OFFCURVE",
"155 669 CURVE SMOOTH",
"79 188 LINE SMOOTH",
"65 100 OFFCURVE",
"52 54 OFFCURVE",
"25 13 CURVE",
"29 0 LINE"
);
}
);
width = 475;
}
);
leftKerningGroup = F;
leftMetricsKey = F;
note = L;
rightKerningGroup = L;
unicode = 004C;
},
{
glyphname = M;
lastChange = "2018-03-07 08:14:48 +0000";
layers = (
{
anchors = (
{
name = bottom;
position = "{350, 0}";
},
{
name = top;
position = "{461, 700}";
}
);
layerId = "0B1DFD06-3317-40CA-B510-4969A0718C16";
paths = (
{
closed = 1;
nodes = (
"104 -8 OFFCURVE",
"128 19 OFFCURVE",
"134 57 CURVE SMOOTH",
"213 554 LINE",
"348 70 LINE",
"380 70 LINE",
"631 490 LINE SMOOTH",
"680 572 OFFCURVE",
"690 586 OFFCURVE",
"707 599 CURVE",
"708 634 LINE",
"677 592 OFFCURVE",
"668 550 OFFCURVE",
"660 500 CURVE SMOOTH",
"581 -3 LINE",
"590 -7 OFFCURVE",
"601 -8 OFFCURVE",
"609 -8 CURVE SMOOTH",
"647 -8 OFFCURVE",
"670 19 OFFCURVE",
"676 57 CURVE SMOOTH",
"752 534 LINE SMOOTH",
"764 614 OFFCURVE",
"777 648 OFFCURVE",
"808 686 CURVE",
"805 704 LINE",
"782 704 OFFCURVE",
"757 710 OFFCURVE",
"733 710 CURVE SMOOTH",
"690 710 OFFCURVE",
"662 691 OFFCURVE",
"626 629 CURVE SMOOTH",
"390 234 LINE",
"259 701 LINE",
"247 707 OFFCURVE",
"232 708 OFFCURVE",
"223 708 CURVE SMOOTH",
"176 708 OFFCURVE",
"146 678 OFFCURVE",
"138 622 CURVE SMOOTH",
"39 -3 LINE",
"48 -7 OFFCURVE",
"59 -8 OFFCURVE",
"67 -8 CURVE SMOOTH"
);
}
);
width = 781;
},
{
anchors = (
{
name = bottom;
position = "{347, 0}";
},
{
name = top;
position = "{458, 700}";
}
);
layerId = "0A0B3C42-2553-4A38-A2DF-85B7A92D388E";
paths = (
{
closed = 1;
nodes = (
"72 -4 OFFCURVE",
"82 9 OFFCURVE",
"86 31 CURVE SMOOTH",
"182 640 LINE",
"350 70 LINE",
"366 70 LINE",
"677 578 LINE SMOOTH",
"704 626 OFFCURVE",
"719 650 OFFCURVE",
"730 665 CURVE",
"727 673 LINE",
"716 647 OFFCURVE",
"711 619 OFFCURVE",
"705 581 CURVE SMOOTH",
"613 0 LINE",
"618 -3 OFFCURVE",
"621 -4 OFFCURVE",
"625 -4 CURVE SMOOTH",
"642 -4 OFFCURVE",
"652 9 OFFCURVE",
"656 31 CURVE SMOOTH",
"743 581 LINE SMOOTH",
"752 637 OFFCURVE",
"761 660 OFFCURVE",
"782 687 CURVE",
"778 700 LINE",
"767 700 OFFCURVE",
"752 704 OFFCURVE",
"742 704 CURVE SMOOTH",
"721 704 OFFCURVE",
"709 696 OFFCURVE",
"691 666 CURVE SMOOTH",
"368 134 LINE",
"204 700 LINE",
"198 703 OFFCURVE",
"192 704 OFFCURVE",
"188 704 CURVE SMOOTH",
"166 704 OFFCURVE",
"152 690 OFFCURVE",
"148 664 CURVE SMOOTH",
"43 0 LINE",
"48 -3 OFFCURVE",
"51 -4 OFFCURVE",
"55 -4 CURVE SMOOTH"
);
}
);
width = 775;
}
);
leftKerningGroup = H;
leftMetricsKey = H;
note = M;
rightKerningGroup = M;
unicode = 004D;
},
{
glyphname = N;
lastChange = "2018-03-07 08:14:48 +0000";
layers = (
{
anchors = (
{
name = bottom;
position = "{289, 0}";
},
{
name = top;
position = "{400, 700}";
}
);
layerId = "0B1DFD06-3317-40CA-B510-4969A0718C16";
paths = (
{
closed = 1;
nodes = (
"104 -8 OFFCURVE",
"128 19 OFFCURVE",
"134 57 CURVE SMOOTH",
"215 570 LINE",
"430 -1 LINE",
"442 -7 OFFCURVE",
"457 -8 OFFCURVE",
"466 -8 CURVE SMOOTH",
"513 -8 OFFCURVE",
"542 22 OFFCURVE",
"551 78 CURVE SMOOTH",
"650 703 LINE",
"641 707 OFFCURVE",
"630 708 OFFCURVE",
"622 708 CURVE SMOOTH",
"585 708 OFFCURVE",
"561 681 OFFCURVE",
"555 643 CURVE SMOOTH",
"474 130 LINE",
"259 701 LINE",
"247 707 OFFCURVE",
"232 708 OFFCURVE",
"223 708 CURVE SMOOTH",
"176 708 OFFCURVE",
"146 678 OFFCURVE",
"138 622 CURVE SMOOTH",
"39 -3 LINE",
"48 -7 OFFCURVE",
"59 -8 OFFCURVE",
"67 -8 CURVE SMOOTH"
);
}
);
width = 659;
},
{
anchors = (
{
name = bottom;
position = "{279, 0}";
},
{
name = top;
position = "{390, 700}";
}
);
layerId = "0A0B3C42-2553-4A38-A2DF-85B7A92D388E";
paths = (
{
closed = 1;
nodes = (
"72 -4 OFFCURVE",
"82 9 OFFCURVE",
"86 31 CURVE SMOOTH",
"183 647 LINE",
"465 0 LINE",
"471 -3 OFFCURVE",
"477 -4 OFFCURVE",
"481 -4 CURVE SMOOTH",
"503 -4 OFFCURVE",
"517 10 OFFCURVE",
"521 36 CURVE SMOOTH",
"626 700 LINE",
"621 703 OFFCURVE",
"618 704 OFFCURVE",
"614 704 CURVE SMOOTH",
"597 704 OFFCURVE",
"586 691 OFFCURVE",
"583 669 CURVE SMOOTH",
"485 53 LINE",
"204 700 LINE",
"198 703 OFFCURVE",
"192 704 OFFCURVE",
"188 704 CURVE SMOOTH",
"166 704 OFFCURVE",
"152 690 OFFCURVE",
"148 664 CURVE SMOOTH",
"43 0 LINE",
"48 -3 OFFCURVE",
"51 -4 OFFCURVE",
"55 -4 CURVE SMOOTH"
);
}
);
width = 639;
}
);
leftKerningGroup = H;
leftMetricsKey = "=|";
note = N;
rightKerningGroup = H;
rightMetricsKey = H;
unicode = 004E;
},
{
glyphname = O;
lastChange = "2018-03-07 08:14:48 +0000";
layers = (
{
anchors = (
{
name = bottom;
position = "{331, 0}";
},
{
name = center;
position = "{386, 350}";
},
{
name = ogonek;
position = "{630, 10}";
},
{
name = top;
position = "{442, 700}";
},
{
name = topleft;
position = "{91, 700}";
},
{
name = topright;
position = "{793, 700}";
}
);
layerId = "0B1DFD06-3317-40CA-B510-4969A0718C16";
paths = (
{
closed = 1;
nodes = (
"564 -12 OFFCURVE",
"719 191 OFFCURVE",
"719 432 CURVE SMOOTH",
"719 607 OFFCURVE",
"616 714 OFFCURVE",
"443 714 CURVE SMOOTH",
"207 714 OFFCURVE",
"55 511 OFFCURVE",
"55 269 CURVE SMOOTH",
"55 95 OFFCURVE",
"155 -12 OFFCURVE",
"328 -12 CURVE SMOOTH"
);
},
{
closed = 1;
nodes = (
"218 62 OFFCURVE",
"148 145 OFFCURVE",
"148 279 CURVE SMOOTH",
"148 464 OFFCURVE",
"252 640 OFFCURVE",
"431 640 CURVE SMOOTH",
"553 640 OFFCURVE",
"626 558 OFFCURVE",
"626 421 CURVE SMOOTH",
"626 238 OFFCURVE",
"519 62 OFFCURVE",
"340 62 CURVE SMOOTH"
);
}
);
width = 742;
},
{
anchors = (
{
name = bottom;
position = "{321, 0}";
},
{
name = center;
position = "{376, 350}";
},
{
name = ogonek;
position = "{612, 10}";
},
{
name = top;
position = "{432, 700}";
},
{
name = topleft;
position = "{91, 700}";
},
{
name = topright;
position = "{773, 700}";
}
);
layerId = "0A0B3C42-2553-4A38-A2DF-85B7A92D388E";
paths = (
{
closed = 1;
nodes = (
"548 -10 OFFCURVE",
"695 196 OFFCURVE",
"695 433 CURVE SMOOTH",
"695 605 OFFCURVE",
"598 710 OFFCURVE",
"432 710 CURVE SMOOTH",
"201 710 OFFCURVE",
"59 505 OFFCURVE",
"59 266 CURVE SMOOTH",
"59 95 OFFCURVE",
"154 -10 OFFCURVE",
"318 -10 CURVE SMOOTH"
);
},
{
closed = 1;
nodes = (
"180 21 OFFCURVE",
"98 115 OFFCURVE",
"98 270 CURVE SMOOTH",
"98 482 OFFCURVE",
"221 679 OFFCURVE",
"428 679 CURVE SMOOTH",
"572 679 OFFCURVE",
"655 584 OFFCURVE",
"655 429 CURVE SMOOTH",
"655 215 OFFCURVE",
"530 21 OFFCURVE",
"323 21 CURVE SMOOTH"
);
}
);
width = 724;
}
);
leftKerningGroup = O;
note = O;
rightKerningGroup = O;
unicode = 004F;
},
{
glyphname = P;
lastChange = "2018-03-07 08:14:48 +0000";
layers = (
{
anchors = (
{
name = bottom;
position = "{231, 0}";
},
{
name = top;
position = "{342, 700}";
}
);
layerId = "0B1DFD06-3317-40CA-B510-4969A0718C16";
paths = (
{
closed = 1;
nodes = (
"111 -6 OFFCURVE",
"136 20 OFFCURVE",
"142 59 CURVE SMOOTH",
"178 284 LINE",
"266 284 LINE SMOOTH",
"429 284 OFFCURVE",
"555 382 OFFCURVE",
"555 535 CURVE SMOOTH",
"555 646 OFFCURVE",
"469 714 OFFCURVE",
"318 714 CURVE SMOOTH",
"260 714 OFFCURVE",
"193 704 OFFCURVE",
"123 704 CURVE",
"111 683 LINE",
"141 639 OFFCURVE",
"139 589 OFFCURVE",
"126 514 CURVE SMOOTH",
"45 -2 LINE",
"55 -5 OFFCURVE",
"65 -6 OFFCURVE",
"73 -6 CURVE SMOOTH"
);
},
{
closed = 1;
nodes = (
"214 514 LINE SMOOTH",
"224 577 OFFCURVE",
"230 636 OFFCURVE",
"198 677 CURVE",
"180 632 LINE",
"230 632 OFFCURVE",
"272 640 OFFCURVE",
"317 640 CURVE SMOOTH",
"418 640 OFFCURVE",
"464 600 OFFCURVE",
"464 528 CURVE SMOOTH",
"464 419 OFFCURVE",
"393 356 OFFCURVE",
"275 356 CURVE SMOOTH",
"189 356 LINE"
);
}
);
width = 541;
},
{
anchors = (
{
name = bottom;
position = "{222, 0}";
},
{
name = top;
position = "{333, 700}";
}
);
background = {
anchors = (
{
name = bottom;
position = "{222, 0}";
},
{
name = top;
position = "{333, 700}";
}
);
paths = (
{
closed = 1;
nodes = (
"78 -4 OFFCURVE",
"88 9 OFFCURVE",
"92 31 CURVE SMOOTH",
"168 514 LINE SMOOTH",
"174 549 OFFCURVE",
"179 588 OFFCURVE",
"179 623 CURVE SMOOTH",
"179 645 OFFCURVE",
"177 666 OFFCURVE",
"171 683 CURVE",
"164 672 LINE",
"200 672 OFFCURVE",
"276 678 OFFCURVE",
"321 678 CURVE SMOOTH",
"430 678 OFFCURVE",
"495 625 OFFCURVE",
"495 541 CURVE SMOOTH",
"495 531 OFFCURVE",
"495 522 OFFCURVE",
"493 512 CURVE SMOOTH",
"477 411 OFFCURVE",
"390 346 OFFCURVE",
"269 346 CURVE SMOOTH",
"132 346 LINE",
"127 315 LINE",
"248 315 LINE SMOOTH",
"403 315 OFFCURVE",
"513 392 OFFCURVE",
"532 512 CURVE SMOOTH",
"534 523 OFFCURVE",
"535 534 OFFCURVE",
"535 544 CURVE SMOOTH",
"535 647 OFFCURVE",
"451 710 OFFCURVE",
"310 710 CURVE SMOOTH",
"250 710 OFFCURVE",
"197 704 OFFCURVE",
"141 704 CURVE",
"132 691 LINE",
"139 672 OFFCURVE",
"142 651 OFFCURVE",
"142 626 CURVE SMOOTH",
"142 597 OFFCURVE",
"137 561 OFFCURVE",
"130 514 CURVE SMOOTH",
"49 0 LINE",
"54 -3 OFFCURVE",
"57 -4 OFFCURVE",
"61 -4 CURVE SMOOTH"
);
}
);
};
layerId = "0A0B3C42-2553-4A38-A2DF-85B7A92D388E";
paths = (
{
closed = 1;
nodes = (
"78 -4 OFFCURVE",
"88 9 OFFCURVE",
"92 31 CURVE SMOOTH",
"168 514 LINE SMOOTH",
"174 549 OFFCURVE",
"179 588 OFFCURVE",
"179 623 CURVE SMOOTH",
"179 645 OFFCURVE",
"177 666 OFFCURVE",
"171 683 CURVE",
"164 672 LINE",
"200 672 OFFCURVE",
"276 678 OFFCURVE",
"321 678 CURVE SMOOTH",
"430 678 OFFCURVE",
"495 625 OFFCURVE",
"495 541 CURVE SMOOTH",
"495 470 OFFCURVE",
"446 346 OFFCURVE",
"269 346 CURVE SMOOTH",
"132 346 LINE",
"127 315 LINE",
"248 315 LINE SMOOTH",
"476 315 OFFCURVE",
"535 465 OFFCURVE",
"535 544 CURVE SMOOTH",
"535 647 OFFCURVE",
"451 710 OFFCURVE",
"310 710 CURVE SMOOTH",
"250 710 OFFCURVE",
"197 704 OFFCURVE",
"141 704 CURVE",
"132 691 LINE",
"139 672 OFFCURVE",
"142 651 OFFCURVE",
"142 626 CURVE SMOOTH",
"142 597 OFFCURVE",
"137 561 OFFCURVE",
"130 514 CURVE SMOOTH",
"49 0 LINE",
"54 -3 OFFCURVE",
"57 -4 OFFCURVE",
"61 -4 CURVE SMOOTH"
);
}
);
width = 523;
}
);
leftKerningGroup = F;
leftMetricsKey = F;
note = P;
rightKerningGroup = P;
unicode = 0050;
},
{
glyphname = Q;
lastChange = "2018-03-07 08:14:48 +0000";
layers = (
{
anchors = (
{
name = bottom;
position = "{331, 0}";
},
{
name = top;
position = "{442, 700}";
}
);
layerId = "0B1DFD06-3317-40CA-B510-4969A0718C16";
paths = (
{
closed = 1;
nodes = (
"564 -12 OFFCURVE",
"719 191 OFFCURVE",
"719 432 CURVE SMOOTH",
"719 607 OFFCURVE",
"616 714 OFFCURVE",
"443 714 CURVE SMOOTH",
"207 714 OFFCURVE",
"55 511 OFFCURVE",
"55 269 CURVE SMOOTH",
"55 95 OFFCURVE",
"155 -12 OFFCURVE",
"328 -12 CURVE SMOOTH"
);
},
{
closed = 1;
nodes = (
"546 -168 OFFCURVE",
"568 -151 OFFCURVE",
"574 -114 CURVE",
"503 -104 OFFCURVE",
"409 -73 OFFCURVE",
"292 12 CURVE",
"134 56 LINE",
"286 -94 OFFCURVE",
"419 -168 OFFCURVE",
"505 -168 CURVE SMOOTH"
);
},
{
closed = 1;
nodes = (
"218 62 OFFCURVE",
"148 145 OFFCURVE",
"148 279 CURVE SMOOTH",
"148 464 OFFCURVE",
"252 640 OFFCURVE",
"431 640 CURVE SMOOTH",
"553 640 OFFCURVE",
"626 558 OFFCURVE",
"626 421 CURVE SMOOTH",
"626 238 OFFCURVE",
"519 62 OFFCURVE",
"340 62 CURVE SMOOTH"
);
}
);
width = 742;
},
{
anchors = (
{
name = bottom;
position = "{321, 0}";
},
{
name = top;
position = "{432, 700}";
}
);
background = {
anchors = (
{
name = bottom;
position = "{321, 0}";
},
{
name = top;
position = "{432, 700}";
}
);
paths = (
{
closed = 1;
nodes = (
"536 -150 OFFCURVE",
"556 -141 OFFCURVE",
"559 -120 CURVE",
"439 -120 OFFCURVE",
"392 -96 OFFCURVE",
"179 51 CURVE",
"140 51 LINE",
"332 -109 OFFCURVE",
"418 -150 OFFCURVE",
"508 -150 CURVE SMOOTH"
);
},
{
closed = 1;
nodes = (
"509 -10 OFFCURVE",
"653 130 OFFCURVE",
"688 351 CURVE SMOOTH",
"692 380 OFFCURVE",
"695 407 OFFCURVE",
"695 433 CURVE SMOOTH",
"695 605 OFFCURVE",
"598 710 OFFCURVE",
"432 710 CURVE SMOOTH",
"242 710 OFFCURVE",
"100 571 OFFCURVE",
"66 351 CURVE SMOOTH",
"61 321 OFFCURVE",
"59 293 OFFCURVE",
"59 266 CURVE SMOOTH",
"59 95 OFFCURVE",
"154 -10 OFFCURVE",
"318 -10 CURVE SMOOTH"
);
},
{
closed = 1;
nodes = (
"180 21 OFFCURVE",
"98 115 OFFCURVE",
"98 270 CURVE SMOOTH",
"98 296 OFFCURVE",
"100 323 OFFCURVE",
"105 351 CURVE SMOOTH",
"136 552 OFFCURVE",
"262 679 OFFCURVE",
"428 679 CURVE SMOOTH",
"572 679 OFFCURVE",
"655 584 OFFCURVE",
"655 429 CURVE SMOOTH",
"655 404 OFFCURVE",
"653 378 OFFCURVE",
"649 351 CURVE SMOOTH",
"617 149 OFFCURVE",
"490 21 OFFCURVE",
"323 21 CURVE SMOOTH"
);
}
);
};
layerId = "0A0B3C42-2553-4A38-A2DF-85B7A92D388E";
paths = (
{
closed = 1;
nodes = (
"573 -10 OFFCURVE",
"695 228 OFFCURVE",
"695 433 CURVE SMOOTH",
"695 605 OFFCURVE",
"598 710 OFFCURVE",
"432 710 CURVE SMOOTH",
"180 710 OFFCURVE",
"59 477 OFFCURVE",
"59 266 CURVE SMOOTH",
"59 95 OFFCURVE",
"154 -10 OFFCURVE",
"318 -10 CURVE SMOOTH"
);
},
{
closed = 1;
nodes = (
"536 -150 OFFCURVE",
"556 -141 OFFCURVE",
"559 -120 CURVE",
"439 -120 OFFCURVE",
"392 -96 OFFCURVE",
"179 51 CURVE",
"140 51 LINE",
"332 -109 OFFCURVE",
"418 -150 OFFCURVE",
"508 -150 CURVE SMOOTH"
);
},
{
closed = 1;
nodes = (
"180 21 OFFCURVE",
"98 115 OFFCURVE",
"98 270 CURVE SMOOTH",
"98 457 OFFCURVE",
"203 679 OFFCURVE",
"428 679 CURVE SMOOTH",
"572 679 OFFCURVE",
"655 584 OFFCURVE",
"655 429 CURVE SMOOTH",
"655 243 OFFCURVE",
"549 21 OFFCURVE",
"323 21 CURVE SMOOTH"
);
}
);
width = 723;
}
);
leftKerningGroup = O;
leftMetricsKey = O;
note = Q;
rightKerningGroup = O;
rightMetricsKey = O;
unicode = 0051;
},
{
glyphname = R;
lastChange = "2018-03-07 08:14:48 +0000";
layers = (
{
anchors = (
{
name = bottom;
position = "{249, 0}";
},
{
name = top;
position = "{360, 700}";
}
);
layerId = "0B1DFD06-3317-40CA-B510-4969A0718C16";
paths = (
{
closed = 1;
nodes = (
"111 -6 OFFCURVE",
"136 20 OFFCURVE",
"142 59 CURVE SMOOTH",
"181 300 LINE",
"276 300 LINE SMOOTH",
"431 300 OFFCURVE",
"556 396 OFFCURVE",
"556 540 CURVE SMOOTH",
"556 645 OFFCURVE",
"471 714 OFFCURVE",
"321 714 CURVE SMOOTH",
"264 714 OFFCURVE",
"191 704 OFFCURVE",
"123 704 CURVE",
"111 683 LINE",
"141 639 OFFCURVE",
"139 589 OFFCURVE",
"126 514 CURVE SMOOTH",
"45 -2 LINE",
"55 -5 OFFCURVE",
"65 -6 OFFCURVE",
"73 -6 CURVE SMOOTH"
);
},
{
closed = 1;
nodes = (
"480 -6 OFFCURVE",
"499 -3 OFFCURVE",
"515 3 CURVE",
"517 12 LINE",
"497 29 OFFCURVE",
"490 57 OFFCURVE",
"463 172 CURVE SMOOTH",
"438 282 OFFCURVE",
"418 318 OFFCURVE",
"346 332 CURVE",
"246 321 LINE",
"336 297 OFFCURVE",
"348 261 OFFCURVE",
"375 145 CURVE SMOOTH",
"401 30 OFFCURVE",
"410 -6 OFFCURVE",
"464 -6 CURVE SMOOTH"
);
},
{
closed = 1;
nodes = (
"214 514 LINE SMOOTH",
"224 577 OFFCURVE",
"230 636 OFFCURVE",
"198 677 CURVE",
"180 632 LINE",
"228 632 OFFCURVE",
"276 640 OFFCURVE",
"320 640 CURVE SMOOTH",
"419 640 OFFCURVE",
"465 600 OFFCURVE",
"465 534 CURVE SMOOTH",
"465 434 OFFCURVE",
"395 372 OFFCURVE",
"285 372 CURVE SMOOTH",
"192 372 LINE"
);
}
);
width = 577;
},
{
anchors = (
{
name = bottom;
position = "{320, 0}";
},
{
name = top;
position = "{320, 700}";
}
);
associatedMasterId = "0B1DFD06-3317-40CA-B510-4969A0718C16";
layerId = "D35D97D9-C89D-4A52-AFC4-FB9217AE979C";
name = "Mar 3 18, 11:42";
paths = (
{
closed = 1;
nodes = (
"151 -8 OFFCURVE",
"171 19 OFFCURVE",
"171 57 CURVE SMOOTH",
"171 290 LINE",
"288 290 LINE",
"352 270 OFFCURVE",
"394 220 OFFCURVE",
"440 127 CURVE SMOOTH",
"493 19 OFFCURVE",
"519 -8 OFFCURVE",
"570 -8 CURVE SMOOTH",
"584 -8 OFFCURVE",
"602 -6 OFFCURVE",
"618 5 CURVE",
"618 13 LINE",
"598 25 OFFCURVE",
"581 52 OFFCURVE",
"529 150 CURVE SMOOTH",
"483 238 OFFCURVE",
"441 282 OFFCURVE",
"386 300 CURVE",
"517 313 OFFCURVE",
"600 391 OFFCURVE",
"600 500 CURVE SMOOTH",
"600 631 OFFCURVE",
"493 714 OFFCURVE",
"325 714 CURVE SMOOTH",
"245 714 OFFCURVE",
"143 706 OFFCURVE",
"51 692 CURVE",
"76 644 OFFCURVE",
"83 592 OFFCURVE",
"83 512 CURVE SMOOTH",
"83 -4 LINE",
"94 -7 OFFCURVE",
"105 -8 OFFCURVE",
"113 -8 CURVE SMOOTH"
);
},
{
closed = 1;
nodes = (
"171 512 LINE SMOOTH",
"171 560 OFFCURVE",
"169 609 OFFCURVE",
"154 657 CURVE",
"126 620 LINE",
"187 633 OFFCURVE",
"251 640 OFFCURVE",
"309 640 CURVE SMOOTH",
"438 640 OFFCURVE",
"510 590 OFFCURVE",
"510 500 CURVE SMOOTH",
"510 414 OFFCURVE",
"447 366 OFFCURVE",
"333 366 CURVE SMOOTH",
"171 366 LINE"
);
}
);
width = 640;
},
{
anchors = (
{
name = bottom;
position = "{240, 0}";
},
{
name = top;
position = "{351, 700}";
}
);
background = {
anchors = (
{
name = bottom;
position = "{240, 0}";
},
{
name = top;
position = "{351, 700}";
}
);
paths = (
{
closed = 1;
nodes = (
"78 -4 OFFCURVE",
"88 9 OFFCURVE",
"92 31 CURVE SMOOTH",
"168 514 LINE SMOOTH",
"174 549 OFFCURVE",
"179 588 OFFCURVE",
"179 623 CURVE SMOOTH",
"179 645 OFFCURVE",
"177 666 OFFCURVE",
"171 683 CURVE",
"164 672 LINE",
"200 672 OFFCURVE",
"276 678 OFFCURVE",
"321 678 CURVE SMOOTH",
"426 678 OFFCURVE",
"489 629 OFFCURVE",
"489 549 CURVE SMOOTH",
"489 541 OFFCURVE",
"488 532 OFFCURVE",
"487 523 CURVE SMOOTH",
"471 425 OFFCURVE",
"387 362 OFFCURVE",
"271 362 CURVE SMOOTH",
"134 362 LINE",
"129 331 LINE",
"250 331 LINE SMOOTH",
"400 331 OFFCURVE",
"507 406 OFFCURVE",
"526 523 CURVE SMOOTH",
"528 533 OFFCURVE",
"528 543 OFFCURVE",
"528 553 CURVE SMOOTH",
"528 650 OFFCURVE",
"447 710 OFFCURVE",
"310 710 CURVE SMOOTH",
"250 710 OFFCURVE",
"197 704 OFFCURVE",
"141 704 CURVE",
"132 691 LINE",
"139 672 OFFCURVE",
"142 651 OFFCURVE",
"142 626 CURVE SMOOTH",
"142 597 OFFCURVE",
"137 561 OFFCURVE",
"130 514 CURVE SMOOTH",
"49 0 LINE",
"54 -3 OFFCURVE",
"57 -4 OFFCURVE",
"61 -4 CURVE SMOOTH"
);
}
);
};
layerId = "0A0B3C42-2553-4A38-A2DF-85B7A92D388E";
paths = (
{
closed = 1;
nodes = (
"78 -4 OFFCURVE",
"88 9 OFFCURVE",
"92 31 CURVE SMOOTH",
"168 514 LINE SMOOTH",
"174 549 OFFCURVE",
"179 588 OFFCURVE",
"179 623 CURVE SMOOTH",
"179 645 OFFCURVE",
"177 666 OFFCURVE",
"171 683 CURVE",
"164 672 LINE",
"200 672 OFFCURVE",
"276 678 OFFCURVE",
"321 678 CURVE SMOOTH",
"426 678 OFFCURVE",
"489 629 OFFCURVE",
"489 549 CURVE SMOOTH",
"489 486 OFFCURVE",
"443 362 OFFCURVE",
"271 362 CURVE SMOOTH",
"134 362 LINE",
"129 331 LINE",
"250 331 LINE SMOOTH",
"470 331 OFFCURVE",
"528 475 OFFCURVE",
"528 553 CURVE SMOOTH",
"528 650 OFFCURVE",
"447 710 OFFCURVE",
"310 710 CURVE SMOOTH",
"250 710 OFFCURVE",
"197 704 OFFCURVE",
"141 704 CURVE",
"132 691 LINE",
"139 672 OFFCURVE",
"142 651 OFFCURVE",
"142 626 CURVE SMOOTH",
"142 597 OFFCURVE",
"137 561 OFFCURVE",
"130 514 CURVE SMOOTH",
"49 0 LINE",
"54 -3 OFFCURVE",
"57 -4 OFFCURVE",
"61 -4 CURVE SMOOTH"
);
},
{
closed = 1;
nodes = (
"476 -4 OFFCURVE",
"485 -2 OFFCURVE",
"492 1 CURVE",
"493 7 LINE",
"473 20 OFFCURVE",
"457 52 OFFCURVE",
"421 172 CURVE SMOOTH",
"382 304 OFFCURVE",
"357 343 OFFCURVE",
"290 356 CURVE",
"250 347 LINE",
"324 325 OFFCURVE",
"348 286 OFFCURVE",
"386 154 CURVE SMOOTH",
"428 8 OFFCURVE",
"442 -4 OFFCURVE",
"466 -4 CURVE SMOOTH"
);
}
);
width = 558;
}
);
leftKerningGroup = F;
leftMetricsKey = F;
note = R;
rightKerningGroup = R;
unicode = 0052;
},
{
glyphname = S;
lastChange = "2018-03-07 08:14:48 +0000";
layers = (
{
anchors = (
{
name = bottom;
position = "{238, 0}";
},
{
name = top;
position = "{349, 700}";
}
);
layerId = "0B1DFD06-3317-40CA-B510-4969A0718C16";
paths = (
{
closed = 1;
nodes = (
"395 -12 OFFCURVE",
"508 69 OFFCURVE",
"508 223 CURVE SMOOTH",
"508 325 OFFCURVE",
"428 359 OFFCURVE",
"316 402 CURVE SMOOTH",
"240 431 OFFCURVE",
"188 455 OFFCURVE",
"188 519 CURVE SMOOTH",
"188 591 OFFCURVE",
"237 640 OFFCURVE",
"335 640 CURVE SMOOTH",
"430 640 OFFCURVE",
"478 594 OFFCURVE",
"507 533 CURVE",
"538 541 OFFCURVE",
"553 564 OFFCURVE",
"553 597 CURVE SMOOTH",
"553 662 OFFCURVE",
"474 714 OFFCURVE",
"351 714 CURVE SMOOTH",
"204 714 OFFCURVE",
"104 636 OFFCURVE",
"104 494 CURVE SMOOTH",
"104 394 OFFCURVE",
"177 359 OFFCURVE",
"277 322 CURVE SMOOTH",
"364 290 OFFCURVE",
"423 267 OFFCURVE",
"423 201 CURVE SMOOTH",
"423 113 OFFCURVE",
"353 62 OFFCURVE",
"250 62 CURVE SMOOTH",
"147 62 OFFCURVE",
"91 109 OFFCURVE",
"62 169 CURVE",
"20 157 OFFCURVE",
"16 121 OFFCURVE",
"16 106 CURVE SMOOTH",
"16 40 OFFCURVE",
"105 -12 OFFCURVE",
"235 -12 CURVE SMOOTH"
);
}
);
width = 556;
},
{
anchors = (
{
name = bottom;
position = "{228, 0}";
},
{
name = top;
position = "{339, 700}";
}
);
layerId = "0A0B3C42-2553-4A38-A2DF-85B7A92D388E";
paths = (
{
closed = 1;
nodes = (
"379 -10 OFFCURVE",
"484 74 OFFCURVE",
"484 214 CURVE SMOOTH",
"484 293 OFFCURVE",
"433 343 OFFCURVE",
"304 392 CURVE SMOOTH",
"194 434 OFFCURVE",
"149 472 OFFCURVE",
"149 530 CURVE SMOOTH",
"149 621 OFFCURVE",
"225 679 OFFCURVE",
"331 679 CURVE SMOOTH",
"410 679 OFFCURVE",
"472 650 OFFCURVE",
"511 600 CURVE",
"524 600 OFFCURVE",
"534 606 OFFCURVE",
"534 619 CURVE SMOOTH",
"534 641 OFFCURVE",
"459 710 OFFCURVE",
"330 710 CURVE SMOOTH",
"201 710 OFFCURVE",
"110 640 OFFCURVE",
"110 519 CURVE SMOOTH",
"110 450 OFFCURVE",
"157 404 OFFCURVE",
"273 361 CURVE SMOOTH",
"396 317 OFFCURVE",
"444 273 OFFCURVE",
"444 202 CURVE SMOOTH",
"444 88 OFFCURVE",
"357 21 OFFCURVE",
"228 21 CURVE SMOOTH",
"139 21 OFFCURVE",
"77 50 OFFCURVE",
"38 100 CURVE",
"25 100 OFFCURVE",
"15 94 OFFCURVE",
"15 81 CURVE SMOOTH",
"15 59 OFFCURVE",
"89 -10 OFFCURVE",
"230 -10 CURVE SMOOTH"
);
}
);
width = 536;
}
);
leftKerningGroup = S;
note = S;
rightKerningGroup = S;
unicode = 0053;
},
{
glyphname = T;
lastChange = "2018-03-07 08:14:48 +0000";
layers = (
{
anchors = (
{
name = bottom;
position = "{216, 0}";
},
{
name = center;
position = "{271, 350}";
},
{
name = top;
position = "{327, 700}";
}
);
layerId = "0B1DFD06-3317-40CA-B510-4969A0718C16";
paths = (
{
closed = 1;
nodes = (
"238 -6 OFFCURVE",
"263 20 OFFCURVE",
"269 59 CURVE SMOOTH",
"359 624 LINE",
"492 624 LINE SMOOTH",
"529 624 OFFCURVE",
"558 645 OFFCURVE",
"558 686 CURVE SMOOTH",
"558 691 OFFCURVE",
"557 696 OFFCURVE",
"556 700 CURVE",
"150 700 LINE SMOOTH",
"112 700 OFFCURVE",
"84 679 OFFCURVE",
"84 637 CURVE SMOOTH",
"84 633 OFFCURVE",
"85 628 OFFCURVE",
"86 624 CURVE",
"271 624 LINE",
"172 -2 LINE",
"182 -5 OFFCURVE",
"192 -6 OFFCURVE",
"200 -6 CURVE SMOOTH"
);
}
);
width = 512;
},
{
anchors = (
{
name = bottom;
position = "{212, 0}";
},
{
name = center;
position = "{267, 350}";
},
{
name = top;
position = "{323, 700}";
}
);
layerId = "0A0B3C42-2553-4A38-A2DF-85B7A92D388E";
paths = (
{
closed = 1;
nodes = (
"222 -4 OFFCURVE",
"232 9 OFFCURVE",
"236 31 CURVE SMOOTH",
"339 684 LINE",
"301 684 LINE",
"193 0 LINE",
"198 -3 OFFCURVE",
"201 -4 OFFCURVE",
"205 -4 CURVE SMOOTH"
);
},
{
closed = 1;
nodes = (
"515 668 LINE SMOOTH",
"535 668 OFFCURVE",
"547 675 OFFCURVE",
"547 690 CURVE SMOOTH",
"547 693 OFFCURVE",
"546 697 OFFCURVE",
"545 700 CURVE",
"126 700 LINE SMOOTH",
"106 700 OFFCURVE",
"93 691 OFFCURVE",
"93 675 CURVE SMOOTH",
"93 673 OFFCURVE",
"94 670 OFFCURVE",
"95 668 CURVE"
);
}
);
width = 504;
}
);
leftKerningGroup = T;
note = T;
rightKerningGroup = T;
unicode = 0054;
},
{
glyphname = U;
lastChange = "2018-03-07 08:14:48 +0000";
layers = (
{
anchors = (
{
name = bottom;
position = "{277, 0}";
},
{
name = ogonek;
position = "{533, 10}";
},
{
name = top;
position = "{388, 700}";
},
{
name = topright;
position = "{686, 700}";
}
);
layerId = "0B1DFD06-3317-40CA-B510-4969A0718C16";
paths = (
{
closed = 1;
nodes = (
"424 -12 OFFCURVE",
"536 95 OFFCURVE",
"563 264 CURVE SMOOTH",
"633 706 LINE",
"622 709 OFFCURVE",
"611 710 OFFCURVE",
"603 710 CURVE SMOOTH",
"565 710 OFFCURVE",
"541 683 OFFCURVE",
"535 645 CURVE SMOOTH",
"477 280 LINE SMOOTH",
"455 141 OFFCURVE",
"387 64 OFFCURVE",
"287 64 CURVE SMOOTH",
"176 64 OFFCURVE",
"144 159 OFFCURVE",
"165 280 CURVE SMOOTH",
"233 706 LINE",
"222 709 OFFCURVE",
"211 710 OFFCURVE",
"203 710 CURVE SMOOTH",
"165 710 OFFCURVE",
"141 683 OFFCURVE",
"135 645 CURVE SMOOTH",
"75 264 LINE SMOOTH",
"47 111 OFFCURVE",
"117 -12 OFFCURVE",
"275 -12 CURVE SMOOTH"
);
}
);
width = 635;
},
{
anchors = (
{
name = bottom;
position = "{267, 0}";
},
{
name = ogonek;
position = "{515, 10}";
},
{
name = top;
position = "{378, 700}";
},
{
name = topright;
position = "{666, 700}";
}
);
layerId = "0A0B3C42-2553-4A38-A2DF-85B7A92D388E";
paths = (
{
closed = 1;
nodes = (
"406 -10 OFFCURVE",
"512 95 OFFCURVE",
"538 261 CURVE SMOOTH",
"608 700 LINE",
"603 703 OFFCURVE",
"600 704 OFFCURVE",
"596 704 CURVE SMOOTH",
"579 704 OFFCURVE",
"568 691 OFFCURVE",
"565 669 CURVE SMOOTH",
"503 277 LINE SMOOTH",
"477 112 OFFCURVE",
"393 21 OFFCURVE",
"270 21 CURVE SMOOTH",
"135 21 OFFCURVE",
"97 129 OFFCURVE",
"119 277 CURVE SMOOTH",
"186 700 LINE",
"181 703 OFFCURVE",
"178 704 OFFCURVE",
"174 704 CURVE SMOOTH",
"157 704 OFFCURVE",
"146 691 OFFCURVE",
"143 669 CURVE SMOOTH",
"78 261 LINE SMOOTH",
"51 113 OFFCURVE",
"114 -10 OFFCURVE",
"265 -10 CURVE SMOOTH"
);
}
);
width = 615;
}
);
leftKerningGroup = U;
leftMetricsKey = "=|";
note = U;
rightKerningGroup = U;
unicode = 0055;
},
{
glyphname = V;
lastChange = "2018-03-07 08:14:48 +0000";
layers = (
{
anchors = (
{
name = bottom;
position = "{246, 0}";
},
{
name = top;
position = "{357, 700}";
}
);
layerId = "0B1DFD06-3317-40CA-B510-4969A0718C16";
paths = (
{
closed = 1;
nodes = (
"263 0 LINE",
"620 698 LINE",
"607 704 OFFCURVE",
"591 706 OFFCURVE",
"581 706 CURVE SMOOTH",
"552 706 OFFCURVE",
"532 691 OFFCURVE",
"515 658 CURVE SMOOTH",
"260 159 LINE",
"153 708 LINE",
"106 708 OFFCURVE",
"78 672 OFFCURVE",
"86 630 CURVE SMOOTH",
"207 0 LINE"
);
}
);
width = 571;
},
{
anchors = (
{
name = bottom;
position = "{321, 0}";
},
{
name = top;
position = "{321, 700}";
}
);
associatedMasterId = "0B1DFD06-3317-40CA-B510-4969A0718C16";
layerId = "352E64E2-8EB3-4663-8EC4-33174628ECF8";
name = "Mar 3 18, 13:31";
paths = (
{
closed = 1;
nodes = (
"369 0 LINE",
"608 667 LINE SMOOTH",
"613 682 OFFCURVE",
"622 695 OFFCURVE",
"631 702 CURVE",
"615 708 OFFCURVE",
"598 710 OFFCURVE",
"586 710 CURVE SMOOTH",
"554 710 OFFCURVE",
"525 695 OFFCURVE",
"513 662 CURVE SMOOTH",
"322 113 LINE",
"320 113 LINE",
"130 658 LINE SMOOTH",
"117 695 OFFCURVE",
"94 710 OFFCURVE",
"59 710 CURVE SMOOTH",
"46 710 OFFCURVE",
"32 708 OFFCURVE",
"19 705 CURVE",
"273 0 LINE"
);
}
);
width = 641;
},
{
anchors = (
{
name = bottom;
position = "{242, 0}";
},
{
name = top;
position = "{353, 700}";
}
);
layerId = "0A0B3C42-2553-4A38-A2DF-85B7A92D388E";
paths = (
{
closed = 1;
nodes = (
"245 0 LINE",
"609 700 LINE",
"603 703 OFFCURVE",
"597 704 OFFCURVE",
"592 704 CURVE SMOOTH",
"580 704 OFFCURVE",
"569 697 OFFCURVE",
"562 683 CURVE SMOOTH",
"250 83 LINE",
"125 704 LINE",
"105 704 OFFCURVE",
"90 689 OFFCURVE",
"94 669 CURVE SMOOTH",
"229 0 LINE"
);
}
);
width = 564;
}
);
leftKerningGroup = V;
note = V;
rightKerningGroup = V;
unicode = 0056;
},
{
glyphname = W;
lastChange = "2018-03-07 08:14:48 +0000";
layers = (
{
anchors = (
{
name = bottom;
position = "{378, 0}";
},
{
name = top;
position = "{489, 700}";
}
);
layerId = "0B1DFD06-3317-40CA-B510-4969A0718C16";
paths = (
{
closed = 1;
nodes = (
"211 0 LINE",
"461 574 LINE",
"526 0 LINE",
"582 0 LINE",
"883 698 LINE",
"870 704 OFFCURVE",
"854 706 OFFCURVE",
"844 706 CURVE SMOOTH",
"815 706 OFFCURVE",
"797 690 OFFCURVE",
"783 656 CURVE SMOOTH",
"579 184 LINE",
"528 700 LINE",
"518 704 OFFCURVE",
"507 706 OFFCURVE",
"497 706 CURVE SMOOTH",
"464 706 OFFCURVE",
"429 689 OFFCURVE",
"410 644 CURVE SMOOTH",
"216 184 LINE",
"157 708 LINE",
"95 708 OFFCURVE",
"81 668 OFFCURVE",
"88 603 CURVE SMOOTH",
"155 0 LINE"
);
}
);
width = 836;
},
{
anchors = (
{
name = bottom;
position = "{379, 0}";
},
{
name = top;
position = "{490, 700}";
}
);
layerId = "0A0B3C42-2553-4A38-A2DF-85B7A92D388E";
paths = (
{
closed = 1;
nodes = (
"194 0 LINE",
"477 646 LINE",
"556 0 LINE",
"572 0 LINE",
"881 700 LINE",
"875 703 OFFCURVE",
"869 704 OFFCURVE",
"864 704 CURVE SMOOTH",
"852 704 OFFCURVE",
"841 698 OFFCURVE",
"834 683 CURVE SMOOTH",
"580 99 LINE",
"509 700 LINE",
"503 703 OFFCURVE",
"499 704 OFFCURVE",
"493 704 CURVE SMOOTH",
"475 704 OFFCURVE",
"461 695 OFFCURVE",
"452 674 CURVE SMOOTH",
"202 100 LINE",
"130 704 LINE",
"105 704 OFFCURVE",
"92 690 OFFCURVE",
"95 665 CURVE SMOOTH",
"178 0 LINE"
);
}
);
width = 838;
}
);
leftKerningGroup = V;
note = W;
rightKerningGroup = V;
unicode = 0057;
},
{
glyphname = X;
lastChange = "2018-03-07 08:14:48 +0000";
layers = (
{
anchors = (
{
name = bottom;
position = "{254, 0}";
},
{
name = top;
position = "{365, 700}";
}
);
layerId = "0B1DFD06-3317-40CA-B510-4969A0718C16";
paths = (
{
closed = 1;
nodes = (
"74 -6 OFFCURVE",
"94 13 OFFCURVE",
"122 51 CURVE SMOOTH",
"606 699 LINE",
"590 706 OFFCURVE",
"571 708 OFFCURVE",
"561 708 CURVE SMOOTH",
"532 708 OFFCURVE",
"511 691 OFFCURVE",
"482 652 CURVE SMOOTH",
"-4 3 LINE",
"7 -2 OFFCURVE",
"25 -6 OFFCURVE",
"40 -6 CURVE SMOOTH"
);
},
{
closed = 1;
nodes = (
"491 -6 OFFCURVE",
"517 14 OFFCURVE",
"517 46 CURVE SMOOTH",
"517 57 OFFCURVE",
"514 69 OFFCURVE",
"507 83 CURVE SMOOTH",
"193 708 LINE",
"153 708 OFFCURVE",
"128 689 OFFCURVE",
"128 660 CURVE SMOOTH",
"128 650 OFFCURVE",
"130 640 OFFCURVE",
"136 629 CURVE SMOOTH",
"453 -6 LINE"
);
}
);
width = 587;
},
{
anchors = (
{
name = bottom;
position = "{327, 0}";
},
{
name = top;
position = "{327, 700}";
}
);
associatedMasterId = "0B1DFD06-3317-40CA-B510-4969A0718C16";
layerId = "B7F62D0F-FF52-4BF4-B868-61D0D777E5C8";
name = "Mar 3 18, 14:18";
paths = (
{
closed = 1;
nodes = (
"502 31 LINE SMOOTH",
"519 6 OFFCURVE",
"551 -8 OFFCURVE",
"584 -8 CURVE SMOOTH",
"597 -8 OFFCURVE",
"617 -6 OFFCURVE",
"632 5 CURVE",
"625 10 OFFCURVE",
"615 19 OFFCURVE",
"608 29 CURVE SMOOTH",
"158 673 LINE SMOOTH",
"141 698 OFFCURVE",
"118 710 OFFCURVE",
"77 710 CURVE SMOOTH",
"65 710 OFFCURVE",
"45 709 OFFCURVE",
"30 703 CURVE"
);
},
{
closed = 1;
nodes = (
"23 0 LINE",
"131 0 LINE",
"620 700 LINE",
"513 700 LINE"
);
}
);
width = 653;
},
{
anchors = (
{
name = bottom;
position = "{247, 0}";
},
{
name = top;
position = "{358, 700}";
}
);
layerId = "0A0B3C42-2553-4A38-A2DF-85B7A92D388E";
paths = (
{
closed = 1;
nodes = (
"35 -4 OFFCURVE",
"45 4 OFFCURVE",
"57 21 CURVE SMOOTH",
"576 700 LINE",
"568 703 OFFCURVE",
"560 704 OFFCURVE",
"555 704 CURVE SMOOTH",
"542 704 OFFCURVE",
"531 696 OFFCURVE",
"517 677 CURVE SMOOTH",
"0 0 LINE",
"5 -2 OFFCURVE",
"13 -4 OFFCURVE",
"20 -4 CURVE SMOOTH"
);
},
{
closed = 1;
nodes = (
"485 -4 OFFCURVE",
"497 4 OFFCURVE",
"497 17 CURVE SMOOTH",
"497 22 OFFCURVE",
"495 27 OFFCURVE",
"492 33 CURVE SMOOTH",
"155 704 LINE",
"137 704 OFFCURVE",
"127 696 OFFCURVE",
"127 684 CURVE SMOOTH",
"127 680 OFFCURVE",
"128 675 OFFCURVE",
"130 671 CURVE SMOOTH",
"470 -4 LINE"
);
}
);
width = 574;
}
);
leftKerningGroup = X;
note = X;
rightKerningGroup = X;
unicode = 0058;
},
{
glyphname = Y;
lastChange = "2018-03-07 08:14:48 +0000";
layers = (
{
anchors = (
{
name = bottom;
position = "{216, 0}";
},
{
name = top;
position = "{327, 700}";
},
{
name = topleft;
position = "{83, 700}";
}
);
layerId = "0B1DFD06-3317-40CA-B510-4969A0718C16";
paths = (
{
closed = 1;
nodes = (
"233 -6 OFFCURVE",
"258 20 OFFCURVE",
"264 59 CURVE SMOOTH",
"301 288 LINE",
"575 695 LINE",
"561 705 OFFCURVE",
"546 708 OFFCURVE",
"532 708 CURVE SMOOTH",
"504 708 OFFCURVE",
"481 694 OFFCURVE",
"452 650 CURVE SMOOTH",
"270 371 LINE",
"149 706 LINE",
"103 706 OFFCURVE",
"78 690 OFFCURVE",
"78 656 CURVE SMOOTH",
"78 644 OFFCURVE",
"81 631 OFFCURVE",
"87 615 CURVE SMOOTH",
"213 288 LINE",
"167 -2 LINE",
"177 -5 OFFCURVE",
"187 -6 OFFCURVE",
"195 -6 CURVE SMOOTH"
);
}
);
width = 519;
},
{
anchors = (
{
name = bottom;
position = "{221, 0}";
},
{
name = top;
position = "{332, 700}";
},
{
name = topleft;
position = "{91, 700}";
}
);
layerId = "0A0B3C42-2553-4A38-A2DF-85B7A92D388E";
paths = (
{
closed = 1;
nodes = (
"234 1 LINE",
"280 288 LINE",
"574 700 LINE",
"568 703 OFFCURVE",
"561 704 OFFCURVE",
"556 704 CURVE SMOOTH",
"543 704 OFFCURVE",
"535 698 OFFCURVE",
"522 680 CURVE SMOOTH",
"266 321 LINE",
"115 704 LINE",
"97 704 OFFCURVE",
"87 697 OFFCURVE",
"87 684 CURVE SMOOTH",
"87 680 OFFCURVE",
"88 674 OFFCURVE",
"91 668 CURVE SMOOTH",
"242 288 LINE",
"196 1 LINE"
);
}
);
width = 521;
}
);
leftKerningGroup = Y;
note = Y;
rightKerningGroup = Y;
unicode = 0059;
},
{
glyphname = Z;
lastChange = "2018-03-07 08:14:48 +0000";
layers = (
{
anchors = (
{
name = bottom;
position = "{222, 0}";
},
{
name = top;
position = "{333, 700}";
}
);
layerId = "0B1DFD06-3317-40CA-B510-4969A0718C16";
paths = (
{
closed = 1;
nodes = (
"395 0 LINE SMOOTH",
"433 0 OFFCURVE",
"461 21 OFFCURVE",
"461 63 CURVE SMOOTH",
"461 67 OFFCURVE",
"460 72 OFFCURVE",
"459 76 CURVE",
"108 76 LINE",
"550 668 LINE",
"555 700 LINE",
"162 700 LINE SMOOTH",
"124 700 OFFCURVE",
"96 679 OFFCURVE",
"96 637 CURVE SMOOTH",
"96 633 OFFCURVE",
"97 628 OFFCURVE",
"98 624 CURVE",
"425 624 LINE",
"-17 32 LINE",
"-22 0 LINE"
);
}
);
width = 514;
},
{
anchors = (
{
name = bottom;
position = "{213, 0}";
},
{
name = top;
position = "{324, 700}";
}
);
layerId = "0A0B3C42-2553-4A38-A2DF-85B7A92D388E";
paths = (
{
closed = 1;
nodes = (
"411 0 LINE SMOOTH",
"431 0 OFFCURVE",
"443 7 OFFCURVE",
"443 22 CURVE SMOOTH",
"443 25 OFFCURVE",
"442 29 OFFCURVE",
"441 32 CURVE",
"39 32 LINE",
"541 688 LINE",
"543 700 LINE",
"138 700 LINE SMOOTH",
"118 700 OFFCURVE",
"105 691 OFFCURVE",
"105 675 CURVE SMOOTH",
"105 673 OFFCURVE",
"106 670 OFFCURVE",
"107 668 CURVE",
"488 668 LINE",
"-16 12 LINE",
"-18 0 LINE"
);
}
);
width = 506;
}
);
leftKerningGroup = Z;
note = Z;
rightKerningGroup = Z;
unicode = 005A;
},
{
glyphname = a;
lastChange = "2018-03-07 08:14:48 +0000";
layers = (
{
anchors = (
{
name = bottom;
position = "{203, 0}";
},
{
name = ogonek;
position = "{399, 10}";
},
{
name = top;
position = "{284, 510}";
}
);
layerId = "0B1DFD06-3317-40CA-B510-4969A0718C16";
paths = (
{
closed = 1;
nodes = (
"233 -12 OFFCURVE",
"276 8 OFFCURVE",
"312 50 CURVE",
"304 -2 LINE",
"314 -5 OFFCURVE",
"323 -6 OFFCURVE",
"330 -6 CURVE SMOOTH",
"366 -6 OFFCURVE",
"389 19 OFFCURVE",
"395 55 CURVE SMOOTH",
"438 330 LINE SMOOTH",
"455 457 OFFCURVE",
"396 521 OFFCURVE",
"272 521 CURVE SMOOTH",
"184 521 OFFCURVE",
"81 487 OFFCURVE",
"81 417 CURVE SMOOTH",
"81 404 OFFCURVE",
"87 389 OFFCURVE",
"107 381 CURVE",
"150 428 OFFCURVE",
"197 455 OFFCURVE",
"257 455 CURVE SMOOTH",
"336 455 OFFCURVE",
"372 408 OFFCURVE",
"358 330 CURVE SMOOTH",
"351 282 LINE",
"326 299 OFFCURVE",
"297 313 OFFCURVE",
"245 313 CURVE SMOOTH",
"122 313 OFFCURVE",
"27 234 OFFCURVE",
"27 115 CURVE SMOOTH",
"27 36 OFFCURVE",
"80 -12 OFFCURVE",
"173 -12 CURVE SMOOTH"
);
},
{
closed = 1;
nodes = (
"140 52 OFFCURVE",
"109 77 OFFCURVE",
"109 125 CURVE SMOOTH",
"109 199 OFFCURVE",
"161 251 OFFCURVE",
"246 251 CURVE SMOOTH",
"304 251 OFFCURVE",
"342 225 OFFCURVE",
"334 177 CURVE SMOOTH",
"330 152 LINE SMOOTH",
"320 90 OFFCURVE",
"265 52 OFFCURVE",
"196 52 CURVE SMOOTH"
);
}
);
width = 486;
},
{
anchors = (
{
name = bottom;
position = "{193, 0}";
},
{
name = ogonek;
position = "{381, 10}";
},
{
name = top;
position = "{274, 510}";
}
);
layerId = "0A0B3C42-2553-4A38-A2DF-85B7A92D388E";
paths = (
{
closed = 1;
nodes = (
"229 -10 OFFCURVE",
"292 21 OFFCURVE",
"335 64 CURVE",
"325 0 LINE",
"330 -3 OFFCURVE",
"333 -4 OFFCURVE",
"337 -4 CURVE SMOOTH",
"354 -4 OFFCURVE",
"363 9 OFFCURVE",
"367 31 CURVE SMOOTH",
"414 330 LINE SMOOTH",
"430 442 OFFCURVE",
"378 520 OFFCURVE",
"269 520 CURVE SMOOTH",
"177 520 OFFCURVE",
"96 464 OFFCURVE",
"96 442 CURVE SMOOTH",
"96 432 OFFCURVE",
"102 426 OFFCURVE",
"113 426 CURVE",
"167 474 OFFCURVE",
"216 490 OFFCURVE",
"261 490 CURVE SMOOTH",
"349 490 OFFCURVE",
"392 427 OFFCURVE",
"377 330 CURVE SMOOTH",
"365 254 LINE",
"342 283 OFFCURVE",
"297 303 OFFCURVE",
"233 303 CURVE SMOOTH",
"115 303 OFFCURVE",
"30 226 OFFCURVE",
"30 113 CURVE SMOOTH",
"30 37 OFFCURVE",
"79 -10 OFFCURVE",
"163 -10 CURVE SMOOTH"
);
},
{
closed = 1;
nodes = (
"104 20 OFFCURVE",
"69 57 OFFCURVE",
"69 116 CURVE SMOOTH",
"69 211 OFFCURVE",
"133 273 OFFCURVE",
"223 273 CURVE SMOOTH",
"293 273 OFFCURVE",
"363 245 OFFCURVE",
"354 185 CURVE SMOOTH",
"349 152 LINE SMOOTH",
"336 70 OFFCURVE",
"241 20 OFFCURVE",
"164 20 CURVE SMOOTH"
);
}
);
width = 466;
}
);
leftKerningGroup = a;
note = a;
rightKerningGroup = n;
rightMetricsKey = n;
unicode = 0061;
},
{
glyphname = b;
lastChange = "2018-03-07 08:14:48 +0000";
layers = (
{
anchors = (
{
name = bottom;
position = "{237, 0}";
},
{
name = top;
position = "{364, 800}";
}
);
layerId = "0B1DFD06-3317-40CA-B510-4969A0718C16";
paths = (
{
closed = 1;
nodes = (
"410 -12 OFFCURVE",
"525 146 OFFCURVE",
"525 331 CURVE SMOOTH",
"525 449 OFFCURVE",
"464 522 OFFCURVE",
"360 522 CURVE SMOOTH",
"285 522 OFFCURVE",
"233 484 OFFCURVE",
"191 435 CURVE",
"236 722 LINE",
"227 725 OFFCURVE",
"217 726 OFFCURVE",
"210 726 CURVE SMOOTH",
"174 726 OFFCURVE",
"151 701 OFFCURVE",
"145 665 CURVE SMOOTH",
"76 226 LINE SMOOTH",
"63 147 OFFCURVE",
"45 97 OFFCURVE",
"8 50 CURVE",
"11 28 LINE",
"96 28 OFFCURVE",
"145 -12 OFFCURVE",
"234 -12 CURVE SMOOTH"
);
},
{
closed = 1;
nodes = (
"139 105 OFFCURVE",
"148 153 OFFCURVE",
"162 237 CURVE SMOOTH",
"184 381 OFFCURVE",
"244 456 OFFCURVE",
"334 456 CURVE SMOOTH",
"404 456 OFFCURVE",
"442 411 OFFCURVE",
"442 327 CURVE SMOOTH",
"442 191 OFFCURVE",
"372 54 OFFCURVE",
"240 54 CURVE SMOOTH",
"177 54 OFFCURVE",
"152 84 OFFCURVE",
"86 84 CURVE",
"91 41 LINE"
);
}
);
width = 554;
},
{
anchors = (
{
name = bottom;
position = "{228, 0}";
},
{
name = top;
position = "{355, 800}";
}
);
background = {
anchors = (
{
name = bottom;
position = "{228, 0}";
},
{
name = top;
position = "{355, 800}";
}
);
paths = (
{
closed = 1;
nodes = (
"373 -10 OFFCURVE",
"472 102 OFFCURVE",
"498 268 CURVE SMOOTH",
"502 291 OFFCURVE",
"503 313 OFFCURVE",
"503 334 CURVE SMOOTH",
"503 452 OFFCURVE",
"443 520 OFFCURVE",
"340 520 CURVE SMOOTH",
"260 520 OFFCURVE",
"195 479 OFFCURVE",
"147 414 CURVE",
"194 716 LINE",
"190 719 OFFCURVE",
"186 720 OFFCURVE",
"182 720 CURVE SMOOTH",
"165 720 OFFCURVE",
"156 707 OFFCURVE",
"152 685 CURVE SMOOTH",
"74 188 LINE SMOOTH",
"60 100 OFFCURVE",
"47 72 OFFCURVE",
"19 31 CURVE",
"23 18 LINE",
"98 18 OFFCURVE",
"146 -10 OFFCURVE",
"222 -10 CURVE SMOOTH"
);
},
{
closed = 1;
nodes = (
"174 20 OFFCURVE",
"120 48 OFFCURVE",
"57 48 CURVE",
"59 37 LINE",
"89 79 OFFCURVE",
"101 129 OFFCURVE",
"111 188 CURVE SMOOTH",
"126 285 LINE SMOOTH",
"145 404 OFFCURVE",
"233 490 OFFCURVE",
"336 490 CURVE SMOOTH",
"420 490 OFFCURVE",
"466 433 OFFCURVE",
"466 334 CURVE SMOOTH",
"466 314 OFFCURVE",
"464 292 OFFCURVE",
"460 268 CURVE SMOOTH",
"437 120 OFFCURVE",
"358 20 OFFCURVE",
"238 20 CURVE SMOOTH"
);
}
);
};
layerId = "0A0B3C42-2553-4A38-A2DF-85B7A92D388E";
paths = (
{
closed = 1;
nodes = (
"419 -10 OFFCURVE",
"503 177 OFFCURVE",
"503 334 CURVE SMOOTH",
"503 452 OFFCURVE",
"443 520 OFFCURVE",
"340 520 CURVE SMOOTH",
"260 520 OFFCURVE",
"195 479 OFFCURVE",
"147 414 CURVE",
"194 716 LINE",
"190 719 OFFCURVE",
"186 720 OFFCURVE",
"182 720 CURVE SMOOTH",
"165 720 OFFCURVE",
"156 707 OFFCURVE",
"152 685 CURVE SMOOTH",
"74 188 LINE SMOOTH",
"60 100 OFFCURVE",
"47 72 OFFCURVE",
"19 31 CURVE",
"23 18 LINE",
"98 18 OFFCURVE",
"146 -10 OFFCURVE",
"222 -10 CURVE SMOOTH"
);
},
{
closed = 1;
nodes = (
"174 20 OFFCURVE",
"120 48 OFFCURVE",
"57 48 CURVE",
"59 37 LINE",
"89 79 OFFCURVE",
"101 129 OFFCURVE",
"111 188 CURVE SMOOTH",
"126 285 LINE SMOOTH",
"145 404 OFFCURVE",
"233 490 OFFCURVE",
"336 490 CURVE SMOOTH",
"420 490 OFFCURVE",
"466 433 OFFCURVE",
"466 334 CURVE SMOOTH",
"466 210 OFFCURVE",
"405 20 OFFCURVE",
"238 20 CURVE SMOOTH"
);
}
);
width = 536;
}
);
leftKerningGroup = b;
note = b;
rightKerningGroup = o;
rightMetricsKey = o;
unicode = 0062;
},
{
glyphname = c;
lastChange = "2018-03-07 08:14:48 +0000";
layers = (
{
anchors = (
{
name = bottom;
position = "{207, 0}";
},
{
name = top;
position = "{288, 510}";
}
);
layerId = "0B1DFD06-3317-40CA-B510-4969A0718C16";
paths = (
{
closed = 1;
nodes = (
"332 -12 OFFCURVE",
"432 42 OFFCURVE",
"432 107 CURVE SMOOTH",
"432 120 OFFCURVE",
"427 134 OFFCURVE",
"407 140 CURVE",
"366 89 OFFCURVE",
"305 60 OFFCURVE",
"240 60 CURVE SMOOTH",
"153 60 OFFCURVE",
"116 112 OFFCURVE",
"116 197 CURVE SMOOTH",
"116 330 OFFCURVE",
"175 450 OFFCURVE",
"301 450 CURVE SMOOTH",
"366 450 OFFCURVE",
"419 421 OFFCURVE",
"444 370 CURVE",
"478 380 OFFCURVE",
"482 409 OFFCURVE",
"482 423 CURVE SMOOTH",
"482 479 OFFCURVE",
"405 522 OFFCURVE",
"313 522 CURVE SMOOTH",
"140 522 OFFCURVE",
"32 371 OFFCURVE",
"32 194 CURVE SMOOTH",
"32 67 OFFCURVE",
"103 -12 OFFCURVE",
"228 -12 CURVE SMOOTH"
);
}
);
width = 492;
},
{
anchors = (
{
name = bottom;
position = "{196, 0}";
},
{
name = top;
position = "{277, 510}";
}
);
background = {
anchors = (
{
name = bottom;
position = "{196, 0}";
},
{
name = top;
position = "{277, 510}";
}
);
paths = (
{
closed = 1;
nodes = (
"315 -10 OFFCURVE",
"401 46 OFFCURVE",
"401 68 CURVE SMOOTH",
"401 78 OFFCURVE",
"397 84 OFFCURVE",
"384 84 CURVE",
"333 41 OFFCURVE",
"280 20 OFFCURVE",
"224 20 CURVE SMOOTH",
"125 20 OFFCURVE",
"73 86 OFFCURVE",
"73 194 CURVE SMOOTH",
"73 213 OFFCURVE",
"75 233 OFFCURVE",
"78 255 CURVE SMOOTH",
"101 399 OFFCURVE",
"183 490 OFFCURVE",
"299 490 CURVE SMOOTH",
"355 490 OFFCURVE",
"401 469 OFFCURVE",
"438 426 CURVE",
"451 426 OFFCURVE",
"461 432 OFFCURVE",
"461 445 CURVE SMOOTH",
"461 466 OFFCURVE",
"397 520 OFFCURVE",
"303 520 CURVE SMOOTH",
"173 520 OFFCURVE",
"66 417 OFFCURVE",
"40 255 CURVE SMOOTH",
"37 234 OFFCURVE",
"35 214 OFFCURVE",
"35 195 CURVE SMOOTH",
"35 68 OFFCURVE",
"106 -10 OFFCURVE",
"219 -10 CURVE SMOOTH"
);
}
);
};
layerId = "0A0B3C42-2553-4A38-A2DF-85B7A92D388E";
paths = (
{
closed = 1;
nodes = (
"315 -10 OFFCURVE",
"401 46 OFFCURVE",
"401 68 CURVE SMOOTH",
"401 78 OFFCURVE",
"397 84 OFFCURVE",
"384 84 CURVE",
"333 41 OFFCURVE",
"280 20 OFFCURVE",
"224 20 CURVE SMOOTH",
"125 20 OFFCURVE",
"73 86 OFFCURVE",
"73 194 CURVE SMOOTH",
"73 318 OFFCURVE",
"137 490 OFFCURVE",
"299 490 CURVE SMOOTH",
"355 490 OFFCURVE",
"401 469 OFFCURVE",
"438 426 CURVE",
"451 426 OFFCURVE",
"461 432 OFFCURVE",
"461 445 CURVE SMOOTH",
"461 466 OFFCURVE",
"397 520 OFFCURVE",
"303 520 CURVE SMOOTH",
"130 520 OFFCURVE",
"35 348 OFFCURVE",
"35 195 CURVE SMOOTH",
"35 68 OFFCURVE",
"106 -10 OFFCURVE",
"219 -10 CURVE SMOOTH"
);
}
);
width = 471;
}
);
leftKerningGroup = o;
leftMetricsKey = o;
note = c;
rightKerningGroup = c;
unicode = 0063;
},
{
glyphname = d;
lastChange = "2018-03-07 08:14:48 +0000";
layers = (
{
anchors = (
{
name = bottom;
position = "{235, 0}";
},
{
name = center;
position = "{275, 255}";
},
{
name = top;
position = "{362, 800}";
},
{
name = topright;
position = "{571, 510}";
}
);
layerId = "0B1DFD06-3317-40CA-B510-4969A0718C16";
paths = (
{
closed = 1;
nodes = (
"267 -13 OFFCURVE",
"320 20 OFFCURVE",
"366 76 CURVE",
"354 -2 LINE",
"364 -5 OFFCURVE",
"373 -6 OFFCURVE",
"380 -6 CURVE SMOOTH",
"416 -6 OFFCURVE",
"439 19 OFFCURVE",
"445 55 CURVE SMOOTH",
"550 722 LINE",
"541 725 OFFCURVE",
"531 726 OFFCURVE",
"524 726 CURVE SMOOTH",
"488 726 OFFCURVE",
"465 701 OFFCURVE",
"459 665 CURVE SMOOTH",
"428 470 LINE",
"401 499 OFFCURVE",
"366 521 OFFCURVE",
"304 521 CURVE SMOOTH",
"136 521 OFFCURVE",
"30 359 OFFCURVE",
"30 179 CURVE SMOOTH",
"30 60 OFFCURVE",
"90 -13 OFFCURVE",
"196 -13 CURVE SMOOTH"
);
},
{
closed = 1;
nodes = (
"149 53 OFFCURVE",
"113 98 OFFCURVE",
"113 183 CURVE SMOOTH",
"113 315 OFFCURVE",
"176 455 OFFCURVE",
"302 455 CURVE SMOOTH",
"387 455 OFFCURVE",
"417 396 OFFCURVE",
"404 306 CURVE SMOOTH",
"396 254 LINE SMOOTH",
"376 128 OFFCURVE",
"302 53 OFFCURVE",
"216 53 CURVE SMOOTH"
);
}
);
width = 550;
},
{
anchors = (
{
name = bottom;
position = "{296, 0}";
},
{
name = center;
position = "{296, 255}";
},
{
name = top;
position = "{474, 720}";
},
{
name = topright;
position = "{572, 510}";
}
);
associatedMasterId = "0B1DFD06-3317-40CA-B510-4969A0718C16";
background = {
paths = (
{
closed = 0;
nodes = (
"516 170 LINE SMOOTH",
"516 90 OFFCURVE",
"523 56 OFFCURVE",
"548 18 CURVE",
"542 0 LINE",
"473 0 OFFCURVE",
"427 -22 OFFCURVE",
"345 -22 CURVE SMOOTH"
);
},
{
closed = 0;
nodes = (
"344 44 LINE SMOOTH",
"393 44 OFFCURVE",
"421 56 OFFCURVE",
"468 56 CURVE",
"461 16 LINE",
"436 58 OFFCURVE",
"434 120 OFFCURVE",
"434 170 CURVE SMOOTH"
);
}
);
};
layerId = "AFC82DD3-872F-4C2B-BABF-8322F2862428";
name = "Mar 3 18, 15:08";
paths = (
{
closed = 1;
nodes = (
"335 -11 OFFCURVE",
"399 21 OFFCURVE",
"436 77 CURVE",
"436 28 OFFCURVE",
"464 -8 OFFCURVE",
"495 -8 CURVE SMOOTH",
"512 -8 OFFCURVE",
"529 -4 OFFCURVE",
"542 8 CURVE",
"548 26 LINE",
"523 64 OFFCURVE",
"516 100 OFFCURVE",
"516 180 CURVE SMOOTH",
"516 716 LINE",
"506 719 OFFCURVE",
"496 720 OFFCURVE",
"488 720 CURVE SMOOTH",
"453 720 OFFCURVE",
"434 695 OFFCURVE",
"434 659 CURVE SMOOTH",
"434 471 LINE",
"402 500 OFFCURVE",
"341 522 OFFCURVE",
"280 522 CURVE SMOOTH",
"139 522 OFFCURVE",
"46 407 OFFCURVE",
"46 240 CURVE SMOOTH",
"46 82 OFFCURVE",
"130 -11 OFFCURVE",
"259 -11 CURVE SMOOTH"
);
},
{
closed = 1;
nodes = (
"174 59 OFFCURVE",
"130 113 OFFCURVE",
"130 235 CURVE SMOOTH",
"130 374 OFFCURVE",
"187 451 OFFCURVE",
"293 451 CURVE SMOOTH",
"380 451 OFFCURVE",
"436 400 OFFCURVE",
"436 307 CURVE SMOOTH",
"436 255 LINE SMOOTH",
"436 129 OFFCURVE",
"366 59 OFFCURVE",
"264 59 CURVE SMOOTH"
);
}
);
width = 592;
},
{
anchors = (
{
name = bottom;
position = "{225, 0}";
},
{
name = center;
position = "{265, 255}";
},
{
name = top;
position = "{352, 800}";
},
{
name = topright;
position = "{551, 510}";
}
);
background = {
anchors = (
{
name = bottom;
position = "{225, 0}";
},
{
name = center;
position = "{265, 255}";
},
{
name = top;
position = "{352, 800}";
},
{
name = topright;
position = "{551, 510}";
}
);
paths = (
{
closed = 1;
nodes = (
"276 -10 OFFCURVE",
"342 31 OFFCURVE",
"390 96 CURVE",
"375 0 LINE",
"380 -3 OFFCURVE",
"383 -4 OFFCURVE",
"387 -4 CURVE SMOOTH",
"404 -4 OFFCURVE",
"413 9 OFFCURVE",
"417 31 CURVE SMOOTH",
"526 720 LINE",
"522 723 OFFCURVE",
"518 724 OFFCURVE",
"514 724 CURVE SMOOTH",
"497 724 OFFCURVE",
"488 711 OFFCURVE",
"484 689 CURVE SMOOTH",
"446 449 LINE",
"420 489 OFFCURVE",
"373 520 OFFCURVE",
"302 520 CURVE SMOOTH",
"167 520 OFFCURVE",
"65 408 OFFCURVE",
"38 242 CURVE SMOOTH",
"34 219 OFFCURVE",
"33 197 OFFCURVE",
"33 176 CURVE SMOOTH",
"33 58 OFFCURVE",
"93 -10 OFFCURVE",
"196 -10 CURVE SMOOTH"
);
},
{
closed = 1;
nodes = (
"117 20 OFFCURVE",
"71 77 OFFCURVE",
"71 178 CURVE SMOOTH",
"71 198 OFFCURVE",
"72 219 OFFCURVE",
"76 242 CURVE SMOOTH",
"100 390 OFFCURVE",
"183 490 OFFCURVE",
"298 490 CURVE SMOOTH",
"389 490 OFFCURVE",
"446 425 OFFCURVE",
"429 341 CURVE SMOOTH",
"411 225 LINE SMOOTH",
"392 106 OFFCURVE",
"304 20 OFFCURVE",
"201 20 CURVE SMOOTH"
);
}
);
};
layerId = "0A0B3C42-2553-4A38-A2DF-85B7A92D388E";
paths = (
{
closed = 1;
nodes = (
"276 -10 OFFCURVE",
"342 31 OFFCURVE",
"390 96 CURVE",
"375 0 LINE",
"380 -3 OFFCURVE",
"383 -4 OFFCURVE",
"387 -4 CURVE SMOOTH",
"404 -4 OFFCURVE",
"413 9 OFFCURVE",
"417 31 CURVE SMOOTH",
"526 720 LINE",
"522 723 OFFCURVE",
"518 724 OFFCURVE",
"514 724 CURVE SMOOTH",
"497 724 OFFCURVE",
"488 711 OFFCURVE",
"484 689 CURVE SMOOTH",
"446 449 LINE",
"420 489 OFFCURVE",
"373 520 OFFCURVE",
"302 520 CURVE SMOOTH",
"122 520 OFFCURVE",
"33 330 OFFCURVE",
"33 176 CURVE SMOOTH",
"33 58 OFFCURVE",
"93 -10 OFFCURVE",
"196 -10 CURVE SMOOTH"
);
},
{
closed = 1;
nodes = (
"117 20 OFFCURVE",
"71 77 OFFCURVE",
"71 178 CURVE SMOOTH",
"71 308 OFFCURVE",
"140 490 OFFCURVE",
"298 490 CURVE SMOOTH",
"389 490 OFFCURVE",
"446 425 OFFCURVE",
"429 341 CURVE SMOOTH",
"411 225 LINE SMOOTH",
"392 106 OFFCURVE",
"304 20 OFFCURVE",
"201 20 CURVE SMOOTH"
);
}
);
width = 529;
}
);
leftKerningGroup = o;
leftMetricsKey = o;
note = d;
rightKerningGroup = u;
rightMetricsKey = u;
unicode = 0064;
},
{
glyphname = e;
lastChange = "2018-03-07 08:14:48 +0000";
layers = (
{
anchors = (
{
name = bottom;
position = "{210, 0}";
},
{
name = ogonek;
position = "{410, 10}";
},
{
name = top;
position = "{291, 510}";
}
);
background = {
anchors = (
{
name = bottom;
position = "{210, 0}";
},
{
name = ogonek;
position = "{410, 10}";
},
{
name = top;
position = "{291, 510}";
}
);
paths = (
{
closed = 1;
nodes = (
"317 -12 OFFCURVE",
"419 34 OFFCURVE",
"428 89 CURVE SMOOTH",
"428 92 OFFCURVE",
"429 95 OFFCURVE",
"429 99 CURVE SMOOTH",
"429 112 OFFCURVE",
"424 127 OFFCURVE",
"405 134 CURVE",
"367 87 OFFCURVE",
"306 54 OFFCURVE",
"238 54 CURVE SMOOTH",
"159 54 OFFCURVE",
"113 104 OFFCURVE",
"113 187 CURVE SMOOTH",
"113 199 OFFCURVE",
"114 213 OFFCURVE",
"116 227 CURVE",
"469 227 LINE",
"476 243 OFFCURVE",
"481 259 OFFCURVE",
"484 275 CURVE SMOOTH",
"487 296 OFFCURVE",
"489 316 OFFCURVE",
"489 334 CURVE SMOOTH",
"489 451 OFFCURVE",
"428 522 OFFCURVE",
"314 522 CURVE SMOOTH",
"176 522 OFFCURVE",
"62 416 OFFCURVE",
"36 252 CURVE SMOOTH",
"33 231 OFFCURVE",
"31 212 OFFCURVE",
"31 193 CURVE SMOOTH",
"31 65 OFFCURVE",
"108 -12 OFFCURVE",
"229 -12 CURVE SMOOTH"
);
},
{
closed = 1;
nodes = (
"160 397 OFFCURVE",
"222 458 OFFCURVE",
"308 458 CURVE SMOOTH",
"379 458 OFFCURVE",
"408 416 OFFCURVE",
"408 341 CURVE SMOOTH",
"408 327 OFFCURVE",
"407 311 OFFCURVE",
"405 294 CURVE",
"127 286 LINE"
);
}
);
};
layerId = "0B1DFD06-3317-40CA-B510-4969A0718C16";
paths = (
{
closed = 1;
nodes = (
"317 -12 OFFCURVE",
"419 34 OFFCURVE",
"428 89 CURVE SMOOTH",
"428 92 OFFCURVE",
"429 95 OFFCURVE",
"429 99 CURVE SMOOTH",
"429 112 OFFCURVE",
"424 127 OFFCURVE",
"405 134 CURVE",
"367 87 OFFCURVE",
"306 54 OFFCURVE",
"238 54 CURVE SMOOTH",
"159 54 OFFCURVE",
"113 104 OFFCURVE",
"113 187 CURVE SMOOTH",
"113 199 OFFCURVE",
"114 213 OFFCURVE",
"116 227 CURVE",
"469 227 LINE",
"483 260 OFFCURVE",
"489 298 OFFCURVE",
"489 334 CURVE SMOOTH",
"489 451 OFFCURVE",
"428 522 OFFCURVE",
"314 522 CURVE SMOOTH",
"133 522 OFFCURVE",
"31 350 OFFCURVE",
"31 193 CURVE SMOOTH",
"31 65 OFFCURVE",
"108 -12 OFFCURVE",
"229 -12 CURVE SMOOTH"
);
},
{
closed = 1;
nodes = (
"160 397 OFFCURVE",
"222 458 OFFCURVE",
"308 458 CURVE SMOOTH",
"379 458 OFFCURVE",
"408 416 OFFCURVE",
"408 341 CURVE SMOOTH",
"408 327 OFFCURVE",
"407 311 OFFCURVE",
"405 294 CURVE",
"127 286 LINE"
);
}
);
width = 514;
},
{
anchors = (
{
name = bottom;
position = "{205, 0}";
},
{
name = ogonek;
position = "{404, 10}";
},
{
name = top;
position = "{286, 510}";
}
);
background = {
anchors = (
{
name = bottom;
position = "{205, 0}";
},
{
name = ogonek;
position = "{404, 10}";
},
{
name = top;
position = "{286, 510}";
}
);
paths = (
{
closed = 1;
nodes = (
"322 -10 OFFCURVE",
"409 49 OFFCURVE",
"409 69 CURVE SMOOTH",
"409 81 OFFCURVE",
"405 86 OFFCURVE",
"392 86 CURVE",
"341 43 OFFCURVE",
"284 20 OFFCURVE",
"225 20 CURVE SMOOTH",
"126 20 OFFCURVE",
"72 86 OFFCURVE",
"72 193 CURVE SMOOTH",
"72 210 OFFCURVE",
"73 227 OFFCURVE",
"76 246 CURVE",
"448 246 LINE",
"453 256 OFFCURVE",
"455 264 OFFCURVE",
"456 274 CURVE SMOOTH",
"460 296 OFFCURVE",
"461 317 OFFCURVE",
"461 337 CURVE SMOOTH",
"461 451 OFFCURVE",
"403 520 OFFCURVE",
"291 520 CURVE SMOOTH",
"163 520 OFFCURVE",
"65 416 OFFCURVE",
"40 256 CURVE SMOOTH",
"36 233 OFFCURVE",
"35 212 OFFCURVE",
"35 192 CURVE SMOOTH",
"35 66 OFFCURVE",
"103 -10 OFFCURVE",
"220 -10 CURVE SMOOTH"
);
},
{
closed = 1;
nodes = (
"103 406 OFFCURVE",
"184 490 OFFCURVE",
"287 490 CURVE SMOOTH",
"379 490 OFFCURVE",
"422 429 OFFCURVE",
"422 331 CURVE SMOOTH",
"422 315 OFFCURVE",
"421 298 OFFCURVE",
"419 280 CURVE",
"80 274 LINE"
);
}
);
};
layerId = "0A0B3C42-2553-4A38-A2DF-85B7A92D388E";
paths = (
{
closed = 1;
nodes = (
"322 -10 OFFCURVE",
"409 49 OFFCURVE",
"409 69 CURVE SMOOTH",
"409 81 OFFCURVE",
"405 86 OFFCURVE",
"392 86 CURVE",
"341 43 OFFCURVE",
"284 20 OFFCURVE",
"225 20 CURVE SMOOTH",
"126 20 OFFCURVE",
"72 86 OFFCURVE",
"72 193 CURVE SMOOTH",
"72 210 OFFCURVE",
"73 227 OFFCURVE",
"76 246 CURVE",
"448 246 LINE",
"458 266 OFFCURVE",
"461 307 OFFCURVE",
"461 337 CURVE SMOOTH",
"461 451 OFFCURVE",
"403 520 OFFCURVE",
"291 520 CURVE SMOOTH",
"119 520 OFFCURVE",
"35 341 OFFCURVE",
"35 192 CURVE SMOOTH",
"35 66 OFFCURVE",
"103 -10 OFFCURVE",
"220 -10 CURVE SMOOTH"
);
},
{
closed = 1;
nodes = (
"103 406 OFFCURVE",
"184 490 OFFCURVE",
"287 490 CURVE SMOOTH",
"379 490 OFFCURVE",
"422 429 OFFCURVE",
"422 331 CURVE SMOOTH",
"422 315 OFFCURVE",
"421 298 OFFCURVE",
"419 280 CURVE",
"80 274 LINE"
);
}
);
width = 491;
}
);
leftKerningGroup = o;
leftMetricsKey = o;
note = e;
rightKerningGroup = e;
unicode = 0065;
},
{
glyphname = f;
lastChange = "2018-03-07 08:14:48 +0000";
layers = (
{
anchors = (
{
name = bottom;
position = "{122, 0}";
},
{
name = top;
position = "{249, 800}";
}
);
layerId = "0B1DFD06-3317-40CA-B510-4969A0718C16";
paths = (
{
closed = 1;
nodes = (
"120 -6 OFFCURVE",
"143 19 OFFCURVE",
"149 55 CURVE SMOOTH",
"211 446 LINE",
"292 446 LINE SMOOTH",
"323 446 OFFCURVE",
"346 465 OFFCURVE",
"346 499 CURVE SMOOTH",
"346 502 OFFCURVE",
"345 506 OFFCURVE",
"343 510 CURVE",
"221 510 LINE",
"231 574 LINE SMOOTH",
"239 626 OFFCURVE",
"262 655 OFFCURVE",
"308 655 CURVE SMOOTH",
"323 655 OFFCURVE",
"338 652 OFFCURVE",
"355 645 CURVE",
"372 652 OFFCURVE",
"385 668 OFFCURVE",
"385 686 CURVE SMOOTH",
"385 714 OFFCURVE",
"354 730 OFFCURVE",
"310 730 CURVE SMOOTH",
"223 730 OFFCURVE",
"164 669 OFFCURVE",
"149 574 CURVE SMOOTH",
"139 510 LINE",
"98 510 LINE SMOOTH",
"67 510 OFFCURVE",
"43 492 OFFCURVE",
"43 460 CURVE SMOOTH",
"43 456 OFFCURVE",
"44 451 OFFCURVE",
"46 446 CURVE",
"129 446 LINE",
"58 -2 LINE",
"67 -5 OFFCURVE",
"77 -6 OFFCURVE",
"85 -6 CURVE SMOOTH"
);
}
);
width = 324;
},
{
anchors = (
{
name = bottom;
position = "{106, 0}";
},
{
name = top;
position = "{233, 800}";
}
);
layerId = "0A0B3C42-2553-4A38-A2DF-85B7A92D388E";
paths = (
{
closed = 1;
nodes = (
"95 -4 OFFCURVE",
"104 9 OFFCURVE",
"108 31 CURVE SMOOTH",
"201 620 LINE SMOOTH",
"209 669 OFFCURVE",
"231 700 OFFCURVE",
"277 700 CURVE SMOOTH",
"299 700 OFFCURVE",
"319 693 OFFCURVE",
"330 671 CURVE",
"342 671 OFFCURVE",
"349 678 OFFCURVE",
"349 692 CURVE SMOOTH",
"349 711 OFFCURVE",
"324 730 OFFCURVE",
"281 730 CURVE SMOOTH",
"218 730 OFFCURVE",
"175 691 OFFCURVE",
"165 624 CURVE SMOOTH",
"66 0 LINE",
"71 -3 OFFCURVE",
"74 -4 OFFCURVE",
"78 -4 CURVE SMOOTH"
);
},
{
closed = 1;
nodes = (
"287 480 LINE SMOOTH",
"307 480 OFFCURVE",
"319 487 OFFCURVE",
"319 500 CURVE SMOOTH",
"319 504 OFFCURVE",
"318 507 OFFCURVE",
"316 510 CURVE",
"84 510 LINE SMOOTH",
"65 510 OFFCURVE",
"52 503 OFFCURVE",
"52 490 CURVE SMOOTH",
"52 487 OFFCURVE",
"53 483 OFFCURVE",
"54 480 CURVE"
);
}
);
width = 292;
}
);
leftKerningGroup = f;
note = f;
rightKerningGroup = f;
unicode = 0066;
},
{
glyphname = g;
lastChange = "2018-03-07 08:14:48 +0000";
layers = (
{
anchors = (
{
name = bottom;
position = "{197, -250}";
},
{
name = top;
position = "{318, 510}";
}
);
layerId = "0B1DFD06-3317-40CA-B510-4969A0718C16";
paths = (
{
closed = 1;
nodes = (
"311 -168 OFFCURVE",
"421 -79 OFFCURVE",
"444 62 CURVE SMOOTH",
"479 284 LINE SMOOTH",
"491 363 OFFCURVE",
"509 413 OFFCURVE",
"547 460 CURVE",
"543 482 LINE",
"458 482 OFFCURVE",
"410 522 OFFCURVE",
"321 522 CURVE SMOOTH",
"156 522 OFFCURVE",
"34 381 OFFCURVE",
"34 212 CURVE SMOOTH",
"34 103 OFFCURVE",
"96 28 OFFCURVE",
"201 28 CURVE SMOOTH",
"276 28 OFFCURVE",
"328 66 OFFCURVE",
"370 115 CURVE",
"362 64 LINE SMOOTH",
"346 -41 OFFCURVE",
"270 -100 OFFCURVE",
"185 -100 CURVE SMOOTH",
"119 -100 OFFCURVE",
"68 -64 OFFCURVE",
"42 -20 CURVE",
"13 -28 OFFCURVE",
"1 -52 OFFCURVE",
"1 -75 CURVE SMOOTH",
"1 -135 OFFCURVE",
"91 -168 OFFCURVE",
"174 -168 CURVE SMOOTH"
);
},
{
closed = 1;
nodes = (
"156 94 OFFCURVE",
"117 136 OFFCURVE",
"117 215 CURVE SMOOTH",
"117 342 OFFCURVE",
"188 456 OFFCURVE",
"315 456 CURVE SMOOTH",
"378 456 OFFCURVE",
"402 426 OFFCURVE",
"468 426 CURVE",
"463 469 LINE",
"417 411 OFFCURVE",
"408 368 OFFCURVE",
"396 292 CURVE SMOOTH",
"376 162 OFFCURVE",
"317 94 OFFCURVE",
"227 94 CURVE SMOOTH"
);
}
);
width = 554;
},
{
anchors = (
{
name = bottom;
position = "{294, -160}";
},
{
name = top;
position = "{294, 510}";
}
);
associatedMasterId = "0B1DFD06-3317-40CA-B510-4969A0718C16";
layerId = "753E8633-8D26-4DEF-9835-071BDB2A27F9";
name = "Feb 28 18, 20:15";
paths = (
{
closed = 1;
nodes = (
"424 -168 OFFCURVE",
"516 -77 OFFCURVE",
"516 62 CURVE SMOOTH",
"516 345 LINE SMOOTH",
"516 453 OFFCURVE",
"426 522 OFFCURVE",
"302 522 CURVE SMOOTH",
"144 522 OFFCURVE",
"46 410 OFFCURVE",
"46 255 CURVE SMOOTH",
"46 106 OFFCURVE",
"136 29 OFFCURVE",
"256 29 CURVE SMOOTH",
"332 29 OFFCURVE",
"398 60 OFFCURVE",
"434 109 CURVE",
"434 64 LINE SMOOTH",
"434 -32 OFFCURVE",
"372 -100 OFFCURVE",
"278 -100 CURVE SMOOTH",
"208 -100 OFFCURVE",
"128 -62 OFFCURVE",
"97 -18 CURVE",
"73 -26 OFFCURVE",
"64 -44 OFFCURVE",
"64 -62 CURVE SMOOTH",
"64 -129 OFFCURVE",
"189 -168 OFFCURVE",
"282 -168 CURVE SMOOTH"
);
},
{
closed = 1;
nodes = (
"183 99 OFFCURVE",
"130 141 OFFCURVE",
"130 255 CURVE SMOOTH",
"130 376 OFFCURVE",
"190 451 OFFCURVE",
"297 451 CURVE SMOOTH",
"379 451 OFFCURVE",
"436 407 OFFCURVE",
"436 328 CURVE SMOOTH",
"436 275 LINE SMOOTH",
"436 178 OFFCURVE",
"370 99 OFFCURVE",
"262 99 CURVE SMOOTH"
);
}
);
width = 588;
},
{
anchors = (
{
name = bottom;
position = "{188, -250}";
},
{
name = top;
position = "{309, 510}";
}
);
background = {
anchors = (
{
name = bottom;
position = "{188, -250}";
},
{
name = top;
position = "{309, 510}";
}
);
paths = (
{
closed = 1;
nodes = (
"314 -150 OFFCURVE",
"401 -68 OFFCURVE",
"421 54 CURVE SMOOTH",
"463 322 LINE SMOOTH",
"477 410 OFFCURVE",
"489 438 OFFCURVE",
"518 479 CURVE",
"514 492 LINE",
"439 492 OFFCURVE",
"390 520 OFFCURVE",
"314 520 CURVE SMOOTH",
"163 520 OFFCURVE",
"65 408 OFFCURVE",
"41 262 CURVE SMOOTH",
"38 244 OFFCURVE",
"37 227 OFFCURVE",
"37 211 CURVE SMOOTH",
"37 101 OFFCURVE",
"98 30 OFFCURVE",
"203 30 CURVE SMOOTH",
"283 30 OFFCURVE",
"348 71 OFFCURVE",
"397 136 CURVE",
"384 54 LINE SMOOTH",
"367 -52 OFFCURVE",
"304 -120 OFFCURVE",
"196 -120 CURVE SMOOTH",
"131 -120 OFFCURVE",
"86 -96 OFFCURVE",
"47 -46 CURVE",
"33 -46 OFFCURVE",
"24 -53 OFFCURVE",
"24 -66 CURVE SMOOTH",
"24 -87 OFFCURVE",
"84 -150 OFFCURVE",
"191 -150 CURVE SMOOTH"
);
},
{
closed = 1;
nodes = (
"122 60 OFFCURVE",
"75 120 OFFCURVE",
"75 212 CURVE SMOOTH",
"75 228 OFFCURVE",
"76 244 OFFCURVE",
"79 262 CURVE SMOOTH",
"100 390 OFFCURVE",
"179 490 OFFCURVE",
"299 490 CURVE SMOOTH",
"363 490 OFFCURVE",
"417 462 OFFCURVE",
"480 462 CURVE",
"478 473 LINE",
"448 431 OFFCURVE",
"435 381 OFFCURVE",
"426 322 CURVE SMOOTH",
"417 265 LINE SMOOTH",
"398 146 OFFCURVE",
"311 60 OFFCURVE",
"208 60 CURVE SMOOTH"
);
}
);
};
layerId = "0A0B3C42-2553-4A38-A2DF-85B7A92D388E";
paths = (
{
closed = 1;
nodes = (
"314 -150 OFFCURVE",
"401 -68 OFFCURVE",
"421 54 CURVE SMOOTH",
"463 322 LINE SMOOTH",
"477 410 OFFCURVE",
"489 438 OFFCURVE",
"518 479 CURVE",
"514 492 LINE",
"439 492 OFFCURVE",
"390 520 OFFCURVE",
"314 520 CURVE SMOOTH",
"124 520 OFFCURVE",
"37 345 OFFCURVE",
"37 211 CURVE SMOOTH",
"37 101 OFFCURVE",
"98 30 OFFCURVE",
"203 30 CURVE SMOOTH",
"283 30 OFFCURVE",
"348 71 OFFCURVE",
"397 136 CURVE",
"384 54 LINE SMOOTH",
"367 -52 OFFCURVE",
"304 -120 OFFCURVE",
"196 -120 CURVE SMOOTH",
"131 -120 OFFCURVE",
"86 -96 OFFCURVE",
"47 -46 CURVE",
"33 -46 OFFCURVE",
"24 -53 OFFCURVE",
"24 -66 CURVE SMOOTH",
"24 -87 OFFCURVE",
"84 -150 OFFCURVE",
"191 -150 CURVE SMOOTH"
);
},
{
closed = 1;
nodes = (
"122 60 OFFCURVE",
"75 120 OFFCURVE",
"75 212 CURVE SMOOTH",
"75 326 OFFCURVE",
"144 490 OFFCURVE",
"299 490 CURVE SMOOTH",
"363 490 OFFCURVE",
"417 462 OFFCURVE",
"480 462 CURVE",
"478 473 LINE",
"448 431 OFFCURVE",
"435 381 OFFCURVE",
"426 322 CURVE SMOOTH",
"417 265 LINE SMOOTH",
"398 146 OFFCURVE",
"311 60 OFFCURVE",
"208 60 CURVE SMOOTH"
);
}
);
width = 536;
}
);
leftKerningGroup = o;
leftMetricsKey = o;
note = g;
rightKerningGroup = g;
rightMetricsKey = q;
unicode = 0067;
},
{
glyphname = h;
lastChange = "2018-03-07 08:14:48 +0000";
layers = (
{
anchors = (
{
name = bottom;
position = "{225, 0}";
},
{
name = center;
position = "{288, 400}";
},
{
name = top;
position = "{352, 800}";
}
);
layerId = "0B1DFD06-3317-40CA-B510-4969A0718C16";
paths = (
{
closed = 1;
nodes = (
"96 -6 OFFCURVE",
"119 19 OFFCURVE",
"125 55 CURVE SMOOTH",
"153 236 LINE SMOOTH",
"179 396 OFFCURVE",
"234 454 OFFCURVE",
"312 454 CURVE SMOOTH",
"378 454 OFFCURVE",
"410 415 OFFCURVE",
"402 339 CURVE SMOOTH",
"348 -2 LINE",
"357 -5 OFFCURVE",
"367 -6 OFFCURVE",
"374 -6 CURVE SMOOTH",
"410 -6 OFFCURVE",
"433 19 OFFCURVE",
"439 55 CURVE SMOOTH",
"483 333 LINE SMOOTH",
"503 438 OFFCURVE",
"456 522 OFFCURVE",
"344 522 CURVE SMOOTH",
"270 522 OFFCURVE",
"220 485 OFFCURVE",
"185 437 CURVE",
"230 722 LINE",
"221 725 OFFCURVE",
"211 726 OFFCURVE",
"204 726 CURVE SMOOTH",
"168 726 OFFCURVE",
"145 701 OFFCURVE",
"139 665 CURVE SMOOTH",
"34 -2 LINE",
"43 -5 OFFCURVE",
"53 -6 OFFCURVE",
"60 -6 CURVE SMOOTH"
);
}
);
width = 530;
},
{
anchors = (
{
name = bottom;
position = "{290, 0}";
},
{
name = center;
position = "{290, 400}";
},
{
name = top;
position = "{110, 720}";
}
);
associatedMasterId = "0B1DFD06-3317-40CA-B510-4969A0718C16";
layerId = "8627CEFD-65BD-43CA-8929-0E875B8C3EE4";
name = "Feb 27 18, 22:55";
paths = (
{
closed = 1;
nodes = (
"496 -8 OFFCURVE",
"509 -4 OFFCURVE",
"522 7 CURVE",
"510 19 OFFCURVE",
"506 38 OFFCURVE",
"506 82 CURVE SMOOTH",
"506 312 LINE SMOOTH",
"506 451 OFFCURVE",
"427 522 OFFCURVE",
"318 522 CURVE SMOOTH",
"235 522 OFFCURVE",
"188 481 OFFCURVE",
"158 428 CURVE",
"158 648 LINE SMOOTH",
"158 693 OFFCURVE",
"128 720 OFFCURVE",
"76 720 CURVE",
"76 0 LINE",
"158 0 LINE",
"158 199 LINE SMOOTH",
"158 381 OFFCURVE",
"211 447 OFFCURVE",
"300 447 CURVE SMOOTH",
"378 447 OFFCURVE",
"424 397 OFFCURVE",
"424 316 CURVE SMOOTH",
"424 66 LINE SMOOTH",
"424 14 OFFCURVE",
"439 -8 OFFCURVE",
"479 -8 CURVE SMOOTH"
);
}
);
width = 580;
},
{
anchors = (
{
name = bottom;
position = "{290, 0}";
},
{
name = center;
position = "{290, 400}";
},
{
name = top;
position = "{110, 720}";
}
);
associatedMasterId = "0B1DFD06-3317-40CA-B510-4969A0718C16";
layerId = "B8EE5C70-DE22-4116-B564-BAE4D44BDED4";
name = "Mar 1 18, 02:04";
paths = (
{
closed = 1;
nodes = (
"523 -8 OFFCURVE",
"548 3 OFFCURVE",
"548 23 CURVE SMOOTH",
"548 31 OFFCURVE",
"544 37 OFFCURVE",
"536 40 CURVE",
"533 39 OFFCURVE",
"528 38 OFFCURVE",
"525 38 CURVE SMOOTH",
"515 38 OFFCURVE",
"506 44 OFFCURVE",
"506 61 CURVE SMOOTH",
"506 312 LINE SMOOTH",
"506 451 OFFCURVE",
"427 522 OFFCURVE",
"318 522 CURVE SMOOTH",
"235 522 OFFCURVE",
"188 481 OFFCURVE",
"158 428 CURVE",
"158 648 LINE SMOOTH",
"158 693 OFFCURVE",
"128 720 OFFCURVE",
"76 720 CURVE",
"76 0 LINE",
"158 0 LINE",
"158 199 LINE SMOOTH",
"158 381 OFFCURVE",
"211 447 OFFCURVE",
"300 447 CURVE SMOOTH",
"378 447 OFFCURVE",
"424 397 OFFCURVE",
"424 316 CURVE SMOOTH",
"424 61 LINE SMOOTH",
"424 17 OFFCURVE",
"443 -8 OFFCURVE",
"491 -8 CURVE SMOOTH"
);
}
);
width = 580;
},
{
anchors = (
{
name = bottom;
position = "{215, 0}";
},
{
name = center;
position = "{278, 400}";
},
{
name = top;
position = "{342, 800}";
}
);
layerId = "0A0B3C42-2553-4A38-A2DF-85B7A92D388E";
paths = (
{
closed = 1;
nodes = (
"67 -4 OFFCURVE",
"76 9 OFFCURVE",
"80 31 CURVE SMOOTH",
"117 263 LINE SMOOTH",
"138 398 OFFCURVE",
"216 489 OFFCURVE",
"315 489 CURVE SMOOTH",
"397 489 OFFCURVE",
"436 427 OFFCURVE",
"422 335 CURVE SMOOTH",
"369 0 LINE",
"374 -3 OFFCURVE",
"377 -4 OFFCURVE",
"381 -4 CURVE SMOOTH",
"398 -4 OFFCURVE",
"407 9 OFFCURVE",
"411 31 CURVE SMOOTH",
"459 335 LINE SMOOTH",
"475 445 OFFCURVE",
"426 520 OFFCURVE",
"320 520 CURVE SMOOTH",
"239 520 OFFCURVE",
"176 471 OFFCURVE",
"140 408 CURVE",
"189 720 LINE",
"185 723 OFFCURVE",
"181 724 OFFCURVE",
"177 724 CURVE SMOOTH",
"160 724 OFFCURVE",
"151 711 OFFCURVE",
"147 689 CURVE SMOOTH",
"38 0 LINE",
"43 -3 OFFCURVE",
"46 -4 OFFCURVE",
"50 -4 CURVE SMOOTH"
);
}
);
width = 510;
}
);
leftKerningGroup = n;
leftMetricsKey = n;
note = h;
rightKerningGroup = n;
rightMetricsKey = n;
unicode = 0068;
},
{
glyphname = i;
lastChange = "2018-03-07 08:14:48 +0000";
layers = (
{
anchors = (
{
name = bottom;
position = "{77, 0}";
}
);
layerId = "0B1DFD06-3317-40CA-B510-4969A0718C16";
paths = (
{
closed = 1;
nodes = (
"98 -6 OFFCURVE",
"121 19 OFFCURVE",
"127 55 CURVE SMOOTH",
"199 512 LINE",
"190 515 OFFCURVE",
"180 516 OFFCURVE",
"172 516 CURVE SMOOTH",
"137 516 OFFCURVE",
"114 491 OFFCURVE",
"108 455 CURVE SMOOTH",
"36 -2 LINE",
"45 -5 OFFCURVE",
"55 -6 OFFCURVE",
"63 -6 CURVE SMOOTH"
);
},
{
closed = 1;
nodes = (
"206 588 OFFCURVE",
"242 621 OFFCURVE",
"242 658 CURVE SMOOTH",
"242 687 OFFCURVE",
"219 710 OFFCURVE",
"189 710 CURVE SMOOTH",
"153 710 OFFCURVE",
"118 677 OFFCURVE",
"118 640 CURVE SMOOTH",
"118 611 OFFCURVE",
"140 588 OFFCURVE",
"170 588 CURVE SMOOTH"
);
}
);
width = 235;
},
{
anchors = (
{
name = bottom;
position = "{59, 0}";
}
);
layerId = "0A0B3C42-2553-4A38-A2DF-85B7A92D388E";
paths = (
{
closed = 1;
nodes = (
"69 -4 OFFCURVE",
"78 9 OFFCURVE",
"82 31 CURVE SMOOTH",
"158 510 LINE",
"153 513 OFFCURVE",
"149 514 OFFCURVE",
"145 514 CURVE SMOOTH",
"128 514 OFFCURVE",
"119 501 OFFCURVE",
"116 479 CURVE SMOOTH",
"40 0 LINE",
"45 -3 OFFCURVE",
"48 -4 OFFCURVE",
"52 -4 CURVE SMOOTH"
);
},
{
closed = 1;
nodes = (
"173 611 OFFCURVE",
"187 624 OFFCURVE",
"187 643 CURVE SMOOTH",
"187 656 OFFCURVE",
"177 665 OFFCURVE",
"163 665 CURVE SMOOTH",
"146 665 OFFCURVE",
"132 652 OFFCURVE",
"132 634 CURVE SMOOTH",
"132 620 OFFCURVE",
"140 611 OFFCURVE",
"155 611 CURVE SMOOTH"
);
}
);
width = 197;
}
);
leftKerningGroup = i;
leftMetricsKey = "=|";
note = i;
rightKerningGroup = i;
unicode = 0069;
},
{
glyphname = j;
lastChange = "2018-03-07 08:14:48 +0000";
layers = (
{
layerId = "0B1DFD06-3317-40CA-B510-4969A0718C16";
paths = (
{
closed = 1;
nodes = (
"43 -166 OFFCURVE",
"101 -105 OFFCURVE",
"116 -10 CURVE SMOOTH",
"199 512 LINE",
"189 515 OFFCURVE",
"180 516 OFFCURVE",
"172 516 CURVE SMOOTH",
"137 516 OFFCURVE",
"114 491 OFFCURVE",
"108 455 CURVE SMOOTH",
"34 -10 LINE SMOOTH",
"26 -62 OFFCURVE",
"3 -91 OFFCURVE",
"-39 -91 CURVE SMOOTH",
"-53 -91 OFFCURVE",
"-73 -88 OFFCURVE",
"-90 -81 CURVE",
"-107 -87 OFFCURVE",
"-119 -104 OFFCURVE",
"-119 -122 CURVE SMOOTH",
"-119 -150 OFFCURVE",
"-88 -166 OFFCURVE",
"-43 -166 CURVE SMOOTH"
);
},
{
closed = 1;
nodes = (
"206 588 OFFCURVE",
"242 621 OFFCURVE",
"242 658 CURVE SMOOTH",
"242 687 OFFCURVE",
"219 710 OFFCURVE",
"189 710 CURVE SMOOTH",
"153 710 OFFCURVE",
"118 677 OFFCURVE",
"118 640 CURVE SMOOTH",
"118 611 OFFCURVE",
"140 588 OFFCURVE",
"170 588 CURVE SMOOTH"
);
}
);
width = 235;
},
{
background = {
paths = (
{
closed = 1;
nodes = (
"110 -4 OFFCURVE",
"117 9 OFFCURVE",
"117 31 CURVE SMOOTH",
"117 510 LINE",
"112 513 OFFCURVE",
"108 514 OFFCURVE",
"104 514 CURVE SMOOTH",
"87 514 OFFCURVE",
"80 501 OFFCURVE",
"80 479 CURVE SMOOTH",
"80 0 LINE",
"85 -3 OFFCURVE",
"89 -4 OFFCURVE",
"93 -4 CURVE SMOOTH"
);
}
);
};
layerId = "0A0B3C42-2553-4A38-A2DF-85B7A92D388E";
paths = (
{
closed = 1;
nodes = (
"17 -150 OFFCURVE",
"59 -111 OFFCURVE",
"70 -44 CURVE SMOOTH",
"158 510 LINE",
"153 513 OFFCURVE",
"149 514 OFFCURVE",
"145 514 CURVE SMOOTH",
"128 514 OFFCURVE",
"119 501 OFFCURVE",
"116 479 CURVE SMOOTH",
"34 -40 LINE SMOOTH",
"26 -89 OFFCURVE",
"4 -120 OFFCURVE",
"-42 -120 CURVE SMOOTH",
"-64 -120 OFFCURVE",
"-84 -113 OFFCURVE",
"-95 -91 CURVE",
"-107 -91 OFFCURVE",
"-114 -98 OFFCURVE",
"-114 -112 CURVE SMOOTH",
"-114 -131 OFFCURVE",
"-89 -150 OFFCURVE",
"-46 -150 CURVE SMOOTH"
);
},
{
closed = 1;
nodes = (
"173 611 OFFCURVE",
"187 624 OFFCURVE",
"187 643 CURVE SMOOTH",
"187 656 OFFCURVE",
"177 665 OFFCURVE",
"163 665 CURVE SMOOTH",
"146 665 OFFCURVE",
"132 652 OFFCURVE",
"132 634 CURVE SMOOTH",
"132 620 OFFCURVE",
"140 611 OFFCURVE",
"155 611 CURVE SMOOTH"
);
}
);
width = 197;
}
);
leftKerningGroup = j;
note = j;
rightKerningGroup = j;
rightMetricsKey = i;
unicode = 006A;
},
{
glyphname = k;
lastChange = "2018-03-07 08:14:48 +0000";
layers = (
{
anchors = (
{
name = bottom;
position = "{189, 0}";
},
{
name = top;
position = "{316, 800}";
}
);
layerId = "0B1DFD06-3317-40CA-B510-4969A0718C16";
paths = (
{
closed = 1;
nodes = (
"472 507 LINE",
"456 513 OFFCURVE",
"436 515 OFFCURVE",
"424 515 CURVE SMOOTH",
"397 515 OFFCURVE",
"362 498 OFFCURVE",
"332 467 CURVE SMOOTH",
"112 243 LINE",
"95 134 LINE"
);
},
{
closed = 1;
nodes = (
"376 -6 OFFCURVE",
"391 -4 OFFCURVE",
"410 1 CURVE",
"412 11 LINE",
"399 16 OFFCURVE",
"384 34 OFFCURVE",
"361 78 CURVE SMOOTH",
"295 208 LINE SMOOTH",
"279 239 OFFCURVE",
"257 254 OFFCURVE",
"226 254 CURVE SMOOTH",
"215 254 OFFCURVE",
"192 252 OFFCURVE",
"178 249 CURVE",
"291 27 LINE SMOOTH",
"302 6 OFFCURVE",
"333 -6 OFFCURVE",
"361 -6 CURVE SMOOTH"
);
},
{
closed = 1;
nodes = (
"96 -6 OFFCURVE",
"119 19 OFFCURVE",
"125 55 CURVE SMOOTH",
"230 722 LINE",
"221 725 OFFCURVE",
"211 726 OFFCURVE",
"203 726 CURVE SMOOTH",
"168 726 OFFCURVE",
"145 701 OFFCURVE",
"139 665 CURVE SMOOTH",
"34 -2 LINE",
"43 -5 OFFCURVE",
"53 -6 OFFCURVE",
"61 -6 CURVE SMOOTH"
);
}
);
width = 459;
},
{
anchors = (
{
name = bottom;
position = "{184, 0}";
},
{
name = top;
position = "{311, 800}";
}
);
layerId = "0A0B3C42-2553-4A38-A2DF-85B7A92D388E";
paths = (
{
closed = 1;
nodes = (
"459 511 LINE",
"452 513 OFFCURVE",
"446 514 OFFCURVE",
"439 514 CURVE SMOOTH",
"422 514 OFFCURVE",
"409 508 OFFCURVE",
"398 496 CURVE SMOOTH",
"91 207 LINE",
"83 156 LINE"
);
},
{
closed = 1;
nodes = (
"379 -4 OFFCURVE",
"387 -3 OFFCURVE",
"394 0 CURVE",
"395 6 LINE",
"387 9 OFFCURVE",
"377 20 OFFCURVE",
"365 38 CURVE SMOOTH",
"228 231 LINE",
"218 247 OFFCURVE",
"208 255 OFFCURVE",
"195 255 CURVE SMOOTH",
"187 255 OFFCURVE",
"179 253 OFFCURVE",
"169 248 CURVE",
"338 12 LINE SMOOTH",
"344 2 OFFCURVE",
"355 -4 OFFCURVE",
"372 -4 CURVE SMOOTH"
);
},
{
closed = 1;
nodes = (
"67 -4 OFFCURVE",
"76 9 OFFCURVE",
"80 31 CURVE SMOOTH",
"189 720 LINE",
"185 723 OFFCURVE",
"181 724 OFFCURVE",
"177 724 CURVE SMOOTH",
"160 724 OFFCURVE",
"151 711 OFFCURVE",
"147 689 CURVE SMOOTH",
"38 0 LINE",
"43 -3 OFFCURVE",
"46 -4 OFFCURVE",
"50 -4 CURVE SMOOTH"
);
}
);
width = 448;
}
);
leftKerningGroup = n;
leftMetricsKey = n;
note = k;
rightKerningGroup = k;
unicode = 006B;
},
{
glyphname = l;
lastChange = "2018-03-07 08:14:48 +0000";
layers = (
{
anchors = (
{
name = bottom;
position = "{76, 0}";
},
{
name = center;
position = "{139, 400}";
},
{
name = top;
position = "{203, 800}";
},
{
name = topright;
position = "{300, 800}";
}
);
layerId = "0B1DFD06-3317-40CA-B510-4969A0718C16";
paths = (
{
closed = 1;
nodes = (
"97 -6 OFFCURVE",
"120 19 OFFCURVE",
"126 55 CURVE SMOOTH",
"231 722 LINE",
"222 725 OFFCURVE",
"212 726 OFFCURVE",
"204 726 CURVE SMOOTH",
"169 726 OFFCURVE",
"146 701 OFFCURVE",
"140 665 CURVE SMOOTH",
"35 -2 LINE",
"44 -5 OFFCURVE",
"54 -6 OFFCURVE",
"62 -6 CURVE SMOOTH"
);
}
);
width = 233;
},
{
anchors = (
{
name = bottom;
position = "{59, 0}";
},
{
name = center;
position = "{122, 400}";
},
{
name = top;
position = "{186, 800}";
},
{
name = topright;
position = "{264, 800}";
}
);
layerId = "0A0B3C42-2553-4A38-A2DF-85B7A92D388E";
paths = (
{
closed = 1;
nodes = (
"69 -4 OFFCURVE",
"78 9 OFFCURVE",
"82 31 CURVE SMOOTH",
"191 720 LINE",
"187 723 OFFCURVE",
"183 724 OFFCURVE",
"179 724 CURVE SMOOTH",
"162 724 OFFCURVE",
"153 711 OFFCURVE",
"149 689 CURVE SMOOTH",
"40 0 LINE",
"45 -3 OFFCURVE",
"48 -4 OFFCURVE",
"52 -4 CURVE SMOOTH"
);
}
);
width = 197;
}
);
leftKerningGroup = l;
leftMetricsKey = "=|";
note = l;
rightKerningGroup = l;
unicode = 006C;
},
{
glyphname = m;
lastChange = "2018-03-07 08:14:48 +0000";
layers = (
{
anchors = (
{
name = bottom;
position = "{366, 0}";
},
{
name = top;
position = "{447, 510}";
}
);
layerId = "0B1DFD06-3317-40CA-B510-4969A0718C16";
paths = (
{
closed = 1;
nodes = (
"96 -6 OFFCURVE",
"119 19 OFFCURVE",
"125 55 CURVE SMOOTH",
"153 236 LINE SMOOTH",
"179 396 OFFCURVE",
"231 454 OFFCURVE",
"304 454 CURVE SMOOTH",
"370 454 OFFCURVE",
"396 402 OFFCURVE",
"386 339 CURVE SMOOTH",
"332 -2 LINE",
"341 -5 OFFCURVE",
"351 -6 OFFCURVE",
"359 -6 CURVE SMOOTH",
"394 -6 OFFCURVE",
"417 19 OFFCURVE",
"423 55 CURVE SMOOTH",
"467 333 LINE SMOOTH",
"485 437 OFFCURVE",
"446 522 OFFCURVE",
"338 522 CURVE SMOOTH",
"267 522 OFFCURVE",
"219 485 OFFCURVE",
"185 437 CURVE",
"197 512 LINE",
"188 515 OFFCURVE",
"178 516 OFFCURVE",
"170 516 CURVE SMOOTH",
"135 516 OFFCURVE",
"112 491 OFFCURVE",
"106 455 CURVE SMOOTH",
"34 -2 LINE",
"43 -5 OFFCURVE",
"53 -6 OFFCURVE",
"61 -6 CURVE SMOOTH"
);
},
{
closed = 1;
nodes = (
"692 -6 OFFCURVE",
"715 19 OFFCURVE",
"721 55 CURVE SMOOTH",
"765 333 LINE SMOOTH",
"782 439 OFFCURVE",
"743 522 OFFCURVE",
"631 522 CURVE SMOOTH",
"545 522 OFFCURVE",
"489 473 OFFCURVE",
"454 417 CURVE",
"425 236 LINE",
"451 236 LINE",
"477 396 OFFCURVE",
"529 454 OFFCURVE",
"602 454 CURVE SMOOTH",
"668 454 OFFCURVE",
"694 402 OFFCURVE",
"684 339 CURVE SMOOTH",
"630 -2 LINE",
"639 -5 OFFCURVE",
"649 -6 OFFCURVE",
"657 -6 CURVE SMOOTH"
);
}
);
width = 812;
},
{
anchors = (
{
name = bottom;
position = "{434, 0}";
},
{
name = top;
position = "{434, 510}";
}
);
associatedMasterId = "0B1DFD06-3317-40CA-B510-4969A0718C16";
background = {
paths = (
{
closed = 1;
nodes = (
"158 0 LINE",
"158 227 LINE SMOOTH",
"158 389 OFFCURVE",
"205 447 OFFCURVE",
"284 447 CURVE SMOOTH",
"354 447 OFFCURVE",
"394 403 OFFCURVE",
"394 331 CURVE SMOOTH",
"394 0 LINE",
"476 0 LINE",
"476 330 LINE SMOOTH",
"476 457 OFFCURVE",
"404 522 OFFCURVE",
"304 522 CURVE SMOOTH",
"228 522 OFFCURVE",
"183 485 OFFCURVE",
"156 436 CURVE",
"156 446 LINE SMOOTH",
"156 491 OFFCURVE",
"128 518 OFFCURVE",
"76 518 CURVE",
"76 0 LINE"
);
},
{
closed = 1;
nodes = (
"783 -8 OFFCURVE",
"805 -5 OFFCURVE",
"830 3 CURVE",
"830 13 LINE",
"798 25 OFFCURVE",
"794 38 OFFCURVE",
"794 82 CURVE SMOOTH",
"794 319 LINE SMOOTH",
"794 454 OFFCURVE",
"718 522 OFFCURVE",
"612 522 CURVE SMOOTH",
"531 522 OFFCURVE",
"484 482 OFFCURVE",
"455 430 CURVE",
"455 227 LINE",
"476 227 LINE",
"476 389 OFFCURVE",
"523 447 OFFCURVE",
"602 447 CURVE SMOOTH",
"672 447 OFFCURVE",
"712 403 OFFCURVE",
"712 331 CURVE SMOOTH",
"712 66 LINE SMOOTH",
"712 14 OFFCURVE",
"727 -8 OFFCURVE",
"767 -8 CURVE SMOOTH"
);
}
);
};
layerId = "2CCC2C21-C074-4060-8D27-BC6DA6A7D191";
name = "Mar 1 18, 02:10";
paths = (
{
closed = 1;
nodes = (
"139 -6 OFFCURVE",
"158 19 OFFCURVE",
"158 55 CURVE SMOOTH",
"158 227 LINE SMOOTH",
"158 389 OFFCURVE",
"205 447 OFFCURVE",
"284 447 CURVE SMOOTH",
"354 447 OFFCURVE",
"394 403 OFFCURVE",
"394 331 CURVE SMOOTH",
"394 -2 LINE",
"404 -5 OFFCURVE",
"414 -6 OFFCURVE",
"422 -6 CURVE SMOOTH",
"457 -6 OFFCURVE",
"476 19 OFFCURVE",
"476 55 CURVE SMOOTH",
"476 330 LINE SMOOTH",
"476 457 OFFCURVE",
"404 522 OFFCURVE",
"304 522 CURVE SMOOTH",
"228 522 OFFCURVE",
"185 485 OFFCURVE",
"158 436 CURVE",
"158 444 LINE SMOOTH",
"158 496 OFFCURVE",
"143 518 OFFCURVE",
"103 518 CURVE SMOOTH",
"86 518 OFFCURVE",
"73 514 OFFCURVE",
"60 503 CURVE",
"72 491 OFFCURVE",
"76 472 OFFCURVE",
"76 428 CURVE SMOOTH",
"76 -2 LINE",
"86 -5 OFFCURVE",
"96 -6 OFFCURVE",
"104 -6 CURVE SMOOTH"
);
},
{
closed = 1;
nodes = (
"784 -8 OFFCURVE",
"797 -4 OFFCURVE",
"810 7 CURVE",
"798 19 OFFCURVE",
"794 38 OFFCURVE",
"794 82 CURVE SMOOTH",
"794 319 LINE SMOOTH",
"794 454 OFFCURVE",
"718 522 OFFCURVE",
"612 522 CURVE SMOOTH",
"531 522 OFFCURVE",
"484 482 OFFCURVE",
"455 430 CURVE",
"455 227 LINE",
"476 227 LINE",
"476 389 OFFCURVE",
"523 447 OFFCURVE",
"602 447 CURVE SMOOTH",
"672 447 OFFCURVE",
"712 403 OFFCURVE",
"712 331 CURVE SMOOTH",
"712 66 LINE SMOOTH",
"712 14 OFFCURVE",
"727 -8 OFFCURVE",
"767 -8 CURVE SMOOTH"
);
}
);
width = 868;
},
{
anchors = (
{
name = bottom;
position = "{434, 0}";
},
{
name = top;
position = "{434, 510}";
}
);
associatedMasterId = "0B1DFD06-3317-40CA-B510-4969A0718C16";
layerId = "2F5851E8-73D6-45C7-BC4E-54BC4326C280";
name = "Mar 3 18, 15:58";
paths = (
{
closed = 1;
nodes = (
"137 -6 OFFCURVE",
"156 19 OFFCURVE",
"156 55 CURVE SMOOTH",
"156 236 LINE SMOOTH",
"156 396 OFFCURVE",
"199 454 OFFCURVE",
"272 454 CURVE SMOOTH",
"336 454 OFFCURVE",
"372 410 OFFCURVE",
"372 339 CURVE SMOOTH",
"372 -2 LINE",
"382 -5 OFFCURVE",
"392 -6 OFFCURVE",
"400 -6 CURVE SMOOTH",
"435 -6 OFFCURVE",
"454 19 OFFCURVE",
"454 55 CURVE SMOOTH",
"454 333 LINE SMOOTH",
"454 458 OFFCURVE",
"388 522 OFFCURVE",
"295 522 CURVE SMOOTH",
"224 522 OFFCURVE",
"182 485 OFFCURVE",
"156 437 CURVE",
"156 512 LINE",
"146 515 OFFCURVE",
"136 516 OFFCURVE",
"128 516 CURVE SMOOTH",
"93 516 OFFCURVE",
"74 491 OFFCURVE",
"74 455 CURVE SMOOTH",
"74 -2 LINE",
"84 -5 OFFCURVE",
"94 -6 OFFCURVE",
"102 -6 CURVE SMOOTH"
);
},
{
closed = 1;
nodes = (
"733 -6 OFFCURVE",
"752 19 OFFCURVE",
"752 55 CURVE SMOOTH",
"752 333 LINE SMOOTH",
"752 458 OFFCURVE",
"686 522 OFFCURVE",
"588 522 CURVE SMOOTH",
"502 522 OFFCURVE",
"454 473 OFFCURVE",
"428 417 CURVE",
"428 236 LINE",
"454 236 LINE",
"454 396 OFFCURVE",
"497 454 OFFCURVE",
"570 454 CURVE SMOOTH",
"634 454 OFFCURVE",
"670 410 OFFCURVE",
"670 339 CURVE SMOOTH",
"670 -2 LINE",
"680 -5 OFFCURVE",
"690 -6 OFFCURVE",
"698 -6 CURVE SMOOTH"
);
}
);
width = 812;
},
{
anchors = (
{
name = bottom;
position = "{369, 0}";
},
{
name = top;
position = "{450, 510}";
}
);
layerId = "0A0B3C42-2553-4A38-A2DF-85B7A92D388E";
paths = (
{
closed = 1;
nodes = (
"67 -4 OFFCURVE",
"76 9 OFFCURVE",
"80 31 CURVE SMOOTH",
"117 263 LINE SMOOTH",
"138 398 OFFCURVE",
"216 489 OFFCURVE",
"309 489 CURVE SMOOTH",
"387 489 OFFCURVE",
"424 424 OFFCURVE",
"410 335 CURVE SMOOTH",
"357 0 LINE",
"362 -3 OFFCURVE",
"365 -4 OFFCURVE",
"369 -4 CURVE SMOOTH",
"386 -4 OFFCURVE",
"395 9 OFFCURVE",
"399 31 CURVE SMOOTH",
"447 335 LINE SMOOTH",
"462 442 OFFCURVE",
"417 520 OFFCURVE",
"314 520 CURVE SMOOTH",
"239 520 OFFCURVE",
"176 471 OFFCURVE",
"140 408 CURVE",
"156 510 LINE",
"151 513 OFFCURVE",
"147 514 OFFCURVE",
"143 514 CURVE SMOOTH",
"126 514 OFFCURVE",
"117 501 OFFCURVE",
"114 479 CURVE SMOOTH",
"38 0 LINE",
"43 -3 OFFCURVE",
"46 -4 OFFCURVE",
"50 -4 CURVE SMOOTH"
);
},
{
closed = 1;
nodes = (
"705 -4 OFFCURVE",
"714 9 OFFCURVE",
"718 31 CURVE SMOOTH",
"766 335 LINE SMOOTH",
"783 442 OFFCURVE",
"736 520 OFFCURVE",
"633 520 CURVE SMOOTH",
"548 520 OFFCURVE",
"476 462 OFFCURVE",
"435 369 CURVE",
"419 263 LINE",
"436 263 LINE",
"457 398 OFFCURVE",
"535 489 OFFCURVE",
"628 489 CURVE SMOOTH",
"706 489 OFFCURVE",
"743 424 OFFCURVE",
"729 335 CURVE SMOOTH",
"676 0 LINE",
"681 -3 OFFCURVE",
"684 -4 OFFCURVE",
"688 -4 CURVE SMOOTH"
);
}
);
width = 817;
}
);
leftKerningGroup = n;
leftMetricsKey = n;
note = m;
rightKerningGroup = n;
rightMetricsKey = n;
unicode = 006D;
},
{
glyphname = n;
lastChange = "2018-03-07 08:14:48 +0000";
layers = (
{
anchors = (
{
name = bottom;
position = "{225, 0}";
},
{
name = top;
position = "{306, 510}";
}
);
layerId = "0B1DFD06-3317-40CA-B510-4969A0718C16";
paths = (
{
closed = 1;
nodes = (
"96 -6 OFFCURVE",
"119 19 OFFCURVE",
"125 55 CURVE SMOOTH",
"153 236 LINE SMOOTH",
"179 396 OFFCURVE",
"234 454 OFFCURVE",
"312 454 CURVE SMOOTH",
"378 454 OFFCURVE",
"410 415 OFFCURVE",
"402 339 CURVE SMOOTH",
"348 -2 LINE",
"357 -5 OFFCURVE",
"367 -6 OFFCURVE",
"375 -6 CURVE SMOOTH",
"410 -6 OFFCURVE",
"433 19 OFFCURVE",
"439 55 CURVE SMOOTH",
"483 333 LINE SMOOTH",
"503 440 OFFCURVE",
"456 522 OFFCURVE",
"343 522 CURVE SMOOTH",
"271 522 OFFCURVE",
"220 485 OFFCURVE",
"185 437 CURVE",
"197 512 LINE",
"188 515 OFFCURVE",
"178 516 OFFCURVE",
"170 516 CURVE SMOOTH",
"135 516 OFFCURVE",
"112 491 OFFCURVE",
"106 455 CURVE SMOOTH",
"34 -2 LINE",
"43 -5 OFFCURVE",
"53 -6 OFFCURVE",
"61 -6 CURVE SMOOTH"
);
}
);
width = 530;
},
{
anchors = (
{
name = bottom;
position = "{215, 0}";
},
{
name = top;
position = "{296, 510}";
}
);
layerId = "0A0B3C42-2553-4A38-A2DF-85B7A92D388E";
paths = (
{
closed = 1;
nodes = (
"67 -4 OFFCURVE",
"76 9 OFFCURVE",
"80 31 CURVE SMOOTH",
"117 263 LINE SMOOTH",
"138 398 OFFCURVE",
"216 489 OFFCURVE",
"315 489 CURVE SMOOTH",
"397 489 OFFCURVE",
"436 427 OFFCURVE",
"422 335 CURVE SMOOTH",
"369 0 LINE",
"374 -3 OFFCURVE",
"377 -4 OFFCURVE",
"381 -4 CURVE SMOOTH",
"398 -4 OFFCURVE",
"407 9 OFFCURVE",
"411 31 CURVE SMOOTH",
"459 335 LINE SMOOTH",
"475 445 OFFCURVE",
"426 520 OFFCURVE",
"320 520 CURVE SMOOTH",
"239 520 OFFCURVE",
"176 471 OFFCURVE",
"140 408 CURVE",
"156 510 LINE",
"151 513 OFFCURVE",
"147 514 OFFCURVE",
"143 514 CURVE SMOOTH",
"126 514 OFFCURVE",
"117 501 OFFCURVE",
"114 479 CURVE SMOOTH",
"38 0 LINE",
"43 -3 OFFCURVE",
"46 -4 OFFCURVE",
"50 -4 CURVE SMOOTH"
);
}
);
width = 510;
}
);
leftKerningGroup = n;
note = n;
rightKerningGroup = n;
unicode = 006E;
},
{
glyphname = o;
lastChange = "2018-03-07 08:14:48 +0000";
layers = (
{
anchors = (
{
name = bottom;
position = "{225, 0}";
},
{
name = center;
position = "{265, 255}";
},
{
name = ogonek;
position = "{438, 10}";
},
{
name = top;
position = "{306, 510}";
},
{
name = topright;
position = "{550, 510}";
}
);
layerId = "0B1DFD06-3317-40CA-B510-4969A0718C16";
paths = (
{
closed = 1;
nodes = (
"392 -12 OFFCURVE",
"498 140 OFFCURVE",
"498 318 CURVE SMOOTH",
"498 444 OFFCURVE",
"428 522 OFFCURVE",
"308 522 CURVE SMOOTH",
"139 522 OFFCURVE",
"32 368 OFFCURVE",
"32 194 CURVE SMOOTH",
"32 66 OFFCURVE",
"102 -12 OFFCURVE",
"223 -12 CURVE SMOOTH"
);
},
{
closed = 1;
nodes = (
"160 60 OFFCURVE",
"117 115 OFFCURVE",
"117 205 CURVE SMOOTH",
"117 324 OFFCURVE",
"182 450 OFFCURVE",
"296 450 CURVE SMOOTH",
"370 450 OFFCURVE",
"413 396 OFFCURVE",
"413 307 CURVE SMOOTH",
"413 185 OFFCURVE",
"350 60 OFFCURVE",
"235 60 CURVE SMOOTH"
);
}
);
width = 529;
},
{
anchors = (
{
name = bottom;
position = "{214, 0}";
},
{
name = center;
position = "{254, 255}";
},
{
name = ogonek;
position = "{419, 10}";
},
{
name = top;
position = "{295, 510}";
},
{
name = topright;
position = "{529, 510}";
}
);
background = {
anchors = (
{
name = bottom;
position = "{214, 0}";
},
{
name = center;
position = "{254, 255}";
},
{
name = ogonek;
position = "{419, 10}";
},
{
name = top;
position = "{295, 510}";
},
{
name = topright;
position = "{529, 510}";
}
);
paths = (
{
closed = 1;
nodes = (
"343 -10 OFFCURVE",
"443 93 OFFCURVE",
"468 255 CURVE SMOOTH",
"472 278 OFFCURVE",
"474 300 OFFCURVE",
"474 321 CURVE SMOOTH",
"474 444 OFFCURVE",
"408 520 OFFCURVE",
"296 520 CURVE SMOOTH",
"165 520 OFFCURVE",
"66 417 OFFCURVE",
"40 255 CURVE SMOOTH",
"36 232 OFFCURVE",
"35 211 OFFCURVE",
"35 190 CURVE SMOOTH",
"35 66 OFFCURVE",
"99 -10 OFFCURVE",
"212 -10 CURVE SMOOTH"
);
},
{
closed = 1;
nodes = (
"125 20 OFFCURVE",
"73 86 OFFCURVE",
"73 194 CURVE SMOOTH",
"73 213 OFFCURVE",
"75 233 OFFCURVE",
"78 255 CURVE SMOOTH",
"101 399 OFFCURVE",
"184 490 OFFCURVE",
"292 490 CURVE SMOOTH",
"383 490 OFFCURVE",
"435 425 OFFCURVE",
"435 318 CURVE SMOOTH",
"435 298 OFFCURVE",
"434 277 OFFCURVE",
"430 255 CURVE SMOOTH",
"408 111 OFFCURVE",
"325 20 OFFCURVE",
"217 20 CURVE SMOOTH"
);
}
);
};
layerId = "0A0B3C42-2553-4A38-A2DF-85B7A92D388E";
paths = (
{
closed = 1;
nodes = (
"392 -10 OFFCURVE",
"474 174 OFFCURVE",
"474 321 CURVE SMOOTH",
"474 444 OFFCURVE",
"408 520 OFFCURVE",
"296 520 CURVE SMOOTH",
"119 520 OFFCURVE",
"35 342 OFFCURVE",
"35 190 CURVE SMOOTH",
"35 66 OFFCURVE",
"99 -10 OFFCURVE",
"212 -10 CURVE SMOOTH"
);
},
{
closed = 1;
nodes = (
"125 20 OFFCURVE",
"73 86 OFFCURVE",
"73 194 CURVE SMOOTH",
"73 322 OFFCURVE",
"141 490 OFFCURVE",
"292 490 CURVE SMOOTH",
"383 490 OFFCURVE",
"435 425 OFFCURVE",
"435 318 CURVE SMOOTH",
"435 188 OFFCURVE",
"369 20 OFFCURVE",
"217 20 CURVE SMOOTH"
);
}
);
width = 509;
}
);
leftKerningGroup = o;
leftMetricsKey = "=|";
note = o;
rightKerningGroup = o;
unicode = 006F;
},
{
glyphname = p;
lastChange = "2018-03-07 08:14:48 +0000";
layers = (
{
anchors = (
{
name = bottom;
position = "{235, 0}";
},
{
name = top;
position = "{316, 510}";
}
);
layerId = "0B1DFD06-3317-40CA-B510-4969A0718C16";
paths = (
{
closed = 1;
nodes = (
"71 -166 OFFCURVE",
"94 -141 OFFCURVE",
"99 -105 CURVE SMOOTH",
"122 39 LINE",
"150 10 OFFCURVE",
"185 -12 OFFCURVE",
"247 -12 CURVE SMOOTH",
"415 -12 OFFCURVE",
"521 150 OFFCURVE",
"521 330 CURVE SMOOTH",
"521 449 OFFCURVE",
"461 522 OFFCURVE",
"355 522 CURVE SMOOTH",
"284 522 OFFCURVE",
"230 489 OFFCURVE",
"185 433 CURVE",
"197 511 LINE",
"186 514 OFFCURVE",
"178 515 OFFCURVE",
"171 515 CURVE SMOOTH",
"135 515 OFFCURVE",
"112 490 OFFCURVE",
"106 454 CURVE SMOOTH",
"8 -162 LINE",
"18 -165 OFFCURVE",
"28 -166 OFFCURVE",
"35 -166 CURVE SMOOTH"
);
},
{
closed = 1;
nodes = (
"163 54 OFFCURVE",
"133 113 OFFCURVE",
"146 203 CURVE SMOOTH",
"154 255 LINE SMOOTH",
"174 381 OFFCURVE",
"248 456 OFFCURVE",
"334 456 CURVE SMOOTH",
"401 456 OFFCURVE",
"437 411 OFFCURVE",
"437 327 CURVE SMOOTH",
"437 194 OFFCURVE",
"375 54 OFFCURVE",
"249 54 CURVE SMOOTH"
);
}
);
width = 551;
},
{
anchors = (
{
name = bottom;
position = "{225, 0}";
},
{
name = top;
position = "{306, 510}";
}
);
background = {
anchors = (
{
name = bottom;
position = "{225, 0}";
},
{
name = top;
position = "{306, 510}";
}
);
paths = (
{
closed = 1;
nodes = (
"45 -144 OFFCURVE",
"54 -131 OFFCURVE",
"58 -109 CURVE SMOOTH",
"85 61 LINE",
"110 21 OFFCURVE",
"157 -10 OFFCURVE",
"228 -10 CURVE SMOOTH",
"363 -10 OFFCURVE",
"466 102 OFFCURVE",
"492 268 CURVE SMOOTH",
"496 291 OFFCURVE",
"497 313 OFFCURVE",
"497 334 CURVE SMOOTH",
"497 452 OFFCURVE",
"437 520 OFFCURVE",
"334 520 CURVE SMOOTH",
"254 520 OFFCURVE",
"189 479 OFFCURVE",
"141 414 CURVE",
"156 510 LINE",
"151 513 OFFCURVE",
"147 514 OFFCURVE",
"143 514 CURVE SMOOTH",
"126 514 OFFCURVE",
"117 501 OFFCURVE",
"114 479 CURVE SMOOTH",
"16 -140 LINE",
"20 -143 OFFCURVE",
"24 -144 OFFCURVE",
"28 -144 CURVE SMOOTH"
);
},
{
closed = 1;
nodes = (
"142 20 OFFCURVE",
"89 85 OFFCURVE",
"102 169 CURVE SMOOTH",
"120 285 LINE SMOOTH",
"139 404 OFFCURVE",
"227 490 OFFCURVE",
"330 490 CURVE SMOOTH",
"414 490 OFFCURVE",
"460 433 OFFCURVE",
"460 334 CURVE SMOOTH",
"460 314 OFFCURVE",
"458 292 OFFCURVE",
"454 268 CURVE SMOOTH",
"431 120 OFFCURVE",
"348 20 OFFCURVE",
"233 20 CURVE SMOOTH"
);
}
);
};
layerId = "0A0B3C42-2553-4A38-A2DF-85B7A92D388E";
paths = (
{
closed = 1;
nodes = (
"45 -144 OFFCURVE",
"54 -131 OFFCURVE",
"58 -109 CURVE SMOOTH",
"85 61 LINE",
"110 21 OFFCURVE",
"157 -10 OFFCURVE",
"228 -10 CURVE SMOOTH",
"408 -10 OFFCURVE",
"497 179 OFFCURVE",
"497 334 CURVE SMOOTH",
"497 452 OFFCURVE",
"437 520 OFFCURVE",
"334 520 CURVE SMOOTH",
"254 520 OFFCURVE",
"189 479 OFFCURVE",
"141 414 CURVE",
"156 510 LINE",
"151 513 OFFCURVE",
"147 514 OFFCURVE",
"143 514 CURVE SMOOTH",
"126 514 OFFCURVE",
"117 501 OFFCURVE",
"114 479 CURVE SMOOTH",
"16 -140 LINE",
"20 -143 OFFCURVE",
"24 -144 OFFCURVE",
"28 -144 CURVE SMOOTH"
);
},
{
closed = 1;
nodes = (
"142 20 OFFCURVE",
"89 85 OFFCURVE",
"102 169 CURVE SMOOTH",
"120 285 LINE SMOOTH",
"139 404 OFFCURVE",
"227 490 OFFCURVE",
"330 490 CURVE SMOOTH",
"414 490 OFFCURVE",
"460 433 OFFCURVE",
"460 334 CURVE SMOOTH",
"460 206 OFFCURVE",
"393 20 OFFCURVE",
"233 20 CURVE SMOOTH"
);
}
);
width = 530;
}
);
leftKerningGroup = n;
leftMetricsKey = n;
note = p;
rightKerningGroup = o;
rightMetricsKey = o;
unicode = 0070;
},
{
glyphname = q;
lastChange = "2018-03-07 08:14:48 +0000";
layers = (
{
anchors = (
{
name = bottom;
position = "{238, 0}";
},
{
name = top;
position = "{319, 510}";
}
);
layerId = "0B1DFD06-3317-40CA-B510-4969A0718C16";
paths = (
{
closed = 1;
nodes = (
"390 -166 OFFCURVE",
"413 -141 OFFCURVE",
"418 -105 CURVE SMOOTH",
"480 284 LINE SMOOTH",
"492 363 OFFCURVE",
"510 413 OFFCURVE",
"548 460 CURVE",
"544 482 LINE",
"459 482 OFFCURVE",
"411 522 OFFCURVE",
"322 522 CURVE SMOOTH",
"145 522 OFFCURVE",
"30 362 OFFCURVE",
"30 181 CURVE SMOOTH",
"30 61 OFFCURVE",
"92 -12 OFFCURVE",
"196 -12 CURVE SMOOTH",
"271 -12 OFFCURVE",
"323 26 OFFCURVE",
"365 75 CURVE",
"327 -162 LINE",
"337 -165 OFFCURVE",
"347 -166 OFFCURVE",
"354 -166 CURVE SMOOTH"
);
},
{
closed = 1;
nodes = (
"152 54 OFFCURVE",
"114 99 OFFCURVE",
"114 183 CURVE SMOOTH",
"114 319 OFFCURVE",
"184 456 OFFCURVE",
"316 456 CURVE SMOOTH",
"379 456 OFFCURVE",
"403 426 OFFCURVE",
"469 426 CURVE",
"464 469 LINE",
"417 405 OFFCURVE",
"408 357 OFFCURVE",
"394 273 CURVE SMOOTH",
"371 129 OFFCURVE",
"312 54 OFFCURVE",
"222 54 CURVE SMOOTH"
);
}
);
width = 555;
},
{
anchors = (
{
name = bottom;
position = "{294, 0}";
},
{
name = top;
position = "{294, 510}";
}
);
associatedMasterId = "0B1DFD06-3317-40CA-B510-4969A0718C16";
layerId = "BE452828-8F5C-4A27-B94C-5B88E6AC3AC1";
name = "Feb 28 18, 20:14";
paths = (
{
closed = 1;
nodes = (
"516 -160 LINE",
"516 330 LINE SMOOTH",
"516 447 OFFCURVE",
"426 522 OFFCURVE",
"302 522 CURVE SMOOTH",
"144 522 OFFCURVE",
"46 401 OFFCURVE",
"46 233 CURVE SMOOTH",
"46 72 OFFCURVE",
"136 -12 OFFCURVE",
"256 -12 CURVE SMOOTH",
"337 -12 OFFCURVE",
"401 26 OFFCURVE",
"434 75 CURVE",
"434 -160 LINE"
);
},
{
closed = 1;
nodes = (
"183 59 OFFCURVE",
"130 106 OFFCURVE",
"130 232 CURVE SMOOTH",
"130 367 OFFCURVE",
"190 451 OFFCURVE",
"297 451 CURVE SMOOTH",
"379 451 OFFCURVE",
"436 402 OFFCURVE",
"436 314 CURVE SMOOTH",
"436 255 LINE SMOOTH",
"436 147 OFFCURVE",
"370 59 OFFCURVE",
"262 59 CURVE SMOOTH"
);
}
);
width = 588;
},
{
anchors = (
{
name = bottom;
position = "{228, 0}";
},
{
name = top;
position = "{309, 510}";
}
);
background = {
anchors = (
{
name = bottom;
position = "{228, 0}";
},
{
name = top;
position = "{309, 510}";
}
);
paths = (
{
closed = 1;
nodes = (
"382 -144 OFFCURVE",
"391 -131 OFFCURVE",
"395 -109 CURVE SMOOTH",
"463 322 LINE SMOOTH",
"477 410 OFFCURVE",
"489 438 OFFCURVE",
"518 479 CURVE",
"514 492 LINE",
"439 492 OFFCURVE",
"390 520 OFFCURVE",
"314 520 CURVE SMOOTH",
"163 520 OFFCURVE",
"65 408 OFFCURVE",
"38 242 CURVE SMOOTH",
"34 219 OFFCURVE",
"33 197 OFFCURVE",
"33 176 CURVE SMOOTH",
"33 58 OFFCURVE",
"93 -10 OFFCURVE",
"196 -10 CURVE SMOOTH",
"276 -10 OFFCURVE",
"342 31 OFFCURVE",
"390 96 CURVE",
"353 -140 LINE",
"357 -143 OFFCURVE",
"361 -144 OFFCURVE",
"365 -144 CURVE SMOOTH"
);
},
{
closed = 1;
nodes = (
"117 20 OFFCURVE",
"71 77 OFFCURVE",
"71 178 CURVE SMOOTH",
"71 198 OFFCURVE",
"72 219 OFFCURVE",
"76 242 CURVE SMOOTH",
"100 390 OFFCURVE",
"179 490 OFFCURVE",
"299 490 CURVE SMOOTH",
"363 490 OFFCURVE",
"417 462 OFFCURVE",
"480 462 CURVE",
"478 473 LINE",
"448 431 OFFCURVE",
"435 381 OFFCURVE",
"426 322 CURVE SMOOTH",
"411 225 LINE SMOOTH",
"392 106 OFFCURVE",
"304 20 OFFCURVE",
"201 20 CURVE SMOOTH"
);
}
);
};
layerId = "0A0B3C42-2553-4A38-A2DF-85B7A92D388E";
paths = (
{
closed = 1;
nodes = (
"382 -144 OFFCURVE",
"391 -131 OFFCURVE",
"395 -109 CURVE SMOOTH",
"463 322 LINE SMOOTH",
"477 410 OFFCURVE",
"489 438 OFFCURVE",
"518 479 CURVE",
"514 492 LINE",
"439 492 OFFCURVE",
"390 520 OFFCURVE",
"314 520 CURVE SMOOTH",
"114 520 OFFCURVE",
"33 327 OFFCURVE",
"33 176 CURVE SMOOTH",
"33 58 OFFCURVE",
"93 -10 OFFCURVE",
"196 -10 CURVE SMOOTH",
"276 -10 OFFCURVE",
"342 31 OFFCURVE",
"390 96 CURVE",
"353 -140 LINE",
"357 -143 OFFCURVE",
"361 -144 OFFCURVE",
"365 -144 CURVE SMOOTH"
);
},
{
closed = 1;
nodes = (
"117 20 OFFCURVE",
"71 77 OFFCURVE",
"71 178 CURVE SMOOTH",
"71 306 OFFCURVE",
"135 490 OFFCURVE",
"299 490 CURVE SMOOTH",
"363 490 OFFCURVE",
"417 462 OFFCURVE",
"480 462 CURVE",
"478 473 LINE",
"448 431 OFFCURVE",
"435 381 OFFCURVE",
"426 322 CURVE SMOOTH",
"411 225 LINE SMOOTH",
"392 106 OFFCURVE",
"304 20 OFFCURVE",
"201 20 CURVE SMOOTH"
);
}
);
width = 536;
}
);
leftKerningGroup = o;
leftMetricsKey = o;
note = q;
rightKerningGroup = q;
unicode = 0071;
},
{
glyphname = r;
lastChange = "2018-03-07 08:14:48 +0000";
layers = (
{
anchors = (
{
name = bottom;
position = "{144, 0}";
},
{
name = top;
position = "{225, 510}";
}
);
layerId = "0B1DFD06-3317-40CA-B510-4969A0718C16";
paths = (
{
closed = 1;
nodes = (
"96 -6 OFFCURVE",
"119 19 OFFCURVE",
"125 55 CURVE SMOOTH",
"139 148 LINE SMOOTH",
"172 354 OFFCURVE",
"244 430 OFFCURVE",
"324 430 CURVE SMOOTH",
"339 430 OFFCURVE",
"348 428 OFFCURVE",
"353 425 CURVE",
"369 436 OFFCURVE",
"381 451 OFFCURVE",
"381 481 CURVE SMOOTH",
"381 505 OFFCURVE",
"367 519 OFFCURVE",
"332 519 CURVE SMOOTH",
"281 519 OFFCURVE",
"220 473 OFFCURVE",
"180 405 CURVE",
"197 512 LINE",
"188 515 OFFCURVE",
"178 516 OFFCURVE",
"170 516 CURVE SMOOTH",
"135 516 OFFCURVE",
"112 491 OFFCURVE",
"106 455 CURVE SMOOTH",
"34 -2 LINE",
"43 -5 OFFCURVE",
"53 -6 OFFCURVE",
"61 -6 CURVE SMOOTH"
);
}
);
width = 368;
},
{
anchors = (
{
name = bottom;
position = "{111, 0}";
},
{
name = top;
position = "{192, 510}";
}
);
layerId = "0A0B3C42-2553-4A38-A2DF-85B7A92D388E";
paths = (
{
closed = 1;
nodes = (
"67 -4 OFFCURVE",
"76 9 OFFCURVE",
"80 31 CURVE SMOOTH",
"121 288 LINE SMOOTH",
"139 406 OFFCURVE",
"204 489 OFFCURVE",
"268 489 CURVE SMOOTH",
"281 489 OFFCURVE",
"292 487 OFFCURVE",
"301 485 CURVE",
"308 485 OFFCURVE",
"314 491 OFFCURVE",
"314 500 CURVE SMOOTH",
"314 515 OFFCURVE",
"293 520 OFFCURVE",
"273 520 CURVE SMOOTH",
"219 520 OFFCURVE",
"173 480 OFFCURVE",
"142 422 CURVE",
"156 510 LINE",
"151 513 OFFCURVE",
"147 514 OFFCURVE",
"143 514 CURVE SMOOTH",
"126 514 OFFCURVE",
"117 501 OFFCURVE",
"114 479 CURVE SMOOTH",
"38 0 LINE",
"43 -3 OFFCURVE",
"46 -4 OFFCURVE",
"50 -4 CURVE SMOOTH"
);
}
);
width = 301;
}
);
leftKerningGroup = r;
leftMetricsKey = h;
note = r;
rightKerningGroup = r;
unicode = 0072;
},
{
glyphname = s;
lastChange = "2018-03-07 08:14:48 +0000";
layers = (
{
anchors = (
{
name = bottom;
position = "{168, 0}";
},
{
name = top;
position = "{249, 510}";
}
);
layerId = "0B1DFD06-3317-40CA-B510-4969A0718C16";
paths = (
{
closed = 1;
nodes = (
"281 -12 OFFCURVE",
"368 52 OFFCURVE",
"368 164 CURVE SMOOTH",
"368 222 OFFCURVE",
"330 258 OFFCURVE",
"236 291 CURVE SMOOTH",
"163 317 OFFCURVE",
"135 341 OFFCURVE",
"135 378 CURVE SMOOTH",
"135 429 OFFCURVE",
"183 458 OFFCURVE",
"238 458 CURVE SMOOTH",
"300 458 OFFCURVE",
"336 421 OFFCURVE",
"361 385 CURVE",
"383 390 OFFCURVE",
"396 409 OFFCURVE",
"396 433 CURVE SMOOTH",
"396 483 OFFCURVE",
"340 522 OFFCURVE",
"245 522 CURVE SMOOTH",
"133 522 OFFCURVE",
"57 468 OFFCURVE",
"57 360 CURVE SMOOTH",
"57 298 OFFCURVE",
"96 262 OFFCURVE",
"192 229 CURVE SMOOTH",
"260 206 OFFCURVE",
"286 183 OFFCURVE",
"286 147 CURVE SMOOTH",
"286 91 OFFCURVE",
"244 54 OFFCURVE",
"179 54 CURVE SMOOTH",
"114 54 OFFCURVE",
"65 89 OFFCURVE",
"38 125 CURVE",
"6 117 OFFCURVE",
"3 88 OFFCURVE",
"3 80 CURVE SMOOTH",
"3 30 OFFCURVE",
"71 -12 OFFCURVE",
"166 -12 CURVE SMOOTH"
);
}
);
width = 416;
},
{
anchors = (
{
name = bottom;
position = "{247, 0}";
},
{
name = top;
position = "{247, 510}";
}
);
associatedMasterId = "0B1DFD06-3317-40CA-B510-4969A0718C16";
layerId = "5432E317-41B8-4136-B37C-3992528B03CD";
name = "Mar 3 18, 16:27";
paths = (
{
closed = 1;
nodes = (
"362 -10 OFFCURVE",
"454 35 OFFCURVE",
"454 147 CURVE SMOOTH",
"454 233 OFFCURVE",
"400 256 OFFCURVE",
"266 294 CURVE SMOOTH",
"162 323 OFFCURVE",
"126 334 OFFCURVE",
"126 379 CURVE SMOOTH",
"126 429 OFFCURVE",
"172 451 OFFCURVE",
"231 451 CURVE SMOOTH",
"299 451 OFFCURVE",
"373 421 OFFCURVE",
"402 379 CURVE",
"426 386 OFFCURVE",
"433 405 OFFCURVE",
"433 420 CURVE SMOOTH",
"433 483 OFFCURVE",
"317 521 OFFCURVE",
"228 521 CURVE SMOOTH",
"134 521 OFFCURVE",
"47 478 OFFCURVE",
"47 372 CURVE SMOOTH",
"47 284 OFFCURVE",
"107 263 OFFCURVE",
"237 229 CURVE SMOOTH",
"334 204 OFFCURVE",
"373 192 OFFCURVE",
"373 143 CURVE SMOOTH",
"373 87 OFFCURVE",
"322 57 OFFCURVE",
"259 57 CURVE SMOOTH",
"184 57 OFFCURVE",
"108 99 OFFCURVE",
"79 140 CURVE",
"55 132 OFFCURVE",
"46 114 OFFCURVE",
"46 96 CURVE SMOOTH",
"46 30 OFFCURVE",
"169 -10 OFFCURVE",
"263 -10 CURVE SMOOTH"
);
}
);
width = 494;
},
{
anchors = (
{
name = bottom;
position = "{158, 0}";
},
{
name = top;
position = "{239, 510}";
}
);
layerId = "0A0B3C42-2553-4A38-A2DF-85B7A92D388E";
paths = (
{
closed = 1;
nodes = (
"265 -10 OFFCURVE",
"343 54 OFFCURVE",
"343 158 CURVE SMOOTH",
"343 214 OFFCURVE",
"309 250 OFFCURVE",
"225 281 CURVE SMOOTH",
"137 314 OFFCURVE",
"102 340 OFFCURVE",
"102 383 CURVE SMOOTH",
"102 447 OFFCURVE",
"156 490 OFFCURVE",
"230 490 CURVE SMOOTH",
"285 490 OFFCURVE",
"322 468 OFFCURVE",
"352 427 CURVE",
"366 427 OFFCURVE",
"374 434 OFFCURVE",
"374 447 CURVE SMOOTH",
"374 469 OFFCURVE",
"323 520 OFFCURVE",
"231 520 CURVE SMOOTH",
"136 520 OFFCURVE",
"62 461 OFFCURVE",
"62 373 CURVE SMOOTH",
"62 321 OFFCURVE",
"97 287 OFFCURVE",
"186 255 CURVE SMOOTH",
"271 225 OFFCURVE",
"304 194 OFFCURVE",
"304 148 CURVE SMOOTH",
"304 74 OFFCURVE",
"243 20 OFFCURVE",
"159 20 CURVE SMOOTH",
"105 20 OFFCURVE",
"57 42 OFFCURVE",
"27 83 CURVE",
"13 83 OFFCURVE",
"4 76 OFFCURVE",
"4 63 CURVE SMOOTH",
"4 42 OFFCURVE",
"56 -10 OFFCURVE",
"156 -10 CURVE SMOOTH"
);
}
);
width = 396;
}
);
leftKerningGroup = s;
note = s;
rightKerningGroup = s;
unicode = 0073;
},
{
glyphname = t;
lastChange = "2018-03-07 08:14:48 +0000";
layers = (
{
anchors = (
{
name = bottom;
position = "{129, 0}";
},
{
name = center;
position = "{169, 255}";
},
{
name = top;
position = "{210, 510}";
},
{
name = topright;
position = "{359, 510}";
}
);
layerId = "0B1DFD06-3317-40CA-B510-4969A0718C16";
paths = (
{
closed = 1;
nodes = (
"243 -8 OFFCURVE",
"285 12 OFFCURVE",
"285 47 CURVE SMOOTH",
"285 61 OFFCURVE",
"279 72 OFFCURVE",
"267 77 CURVE",
"250 70 OFFCURVE",
"235 67 OFFCURVE",
"221 67 CURVE SMOOTH",
"174 67 OFFCURVE",
"168 99 OFFCURVE",
"173 148 CURVE SMOOTH",
"221 446 LINE",
"336 446 LINE",
"341 454 OFFCURVE",
"343 461 OFFCURVE",
"344 468 CURVE SMOOTH",
"348 495 OFFCURVE",
"332 510 OFFCURVE",
"304 510 CURVE SMOOTH",
"231 510 LINE",
"251 640 LINE",
"242 643 OFFCURVE",
"232 644 OFFCURVE",
"224 644 CURVE SMOOTH",
"189 644 OFFCURVE",
"166 619 OFFCURVE",
"160 583 CURVE SMOOTH",
"149 510 LINE",
"74 510 LINE",
"69 502 OFFCURVE",
"66 495 OFFCURVE",
"65 488 CURVE SMOOTH",
"61 461 OFFCURVE",
"78 446 OFFCURVE",
"106 446 CURVE SMOOTH",
"139 446 LINE",
"91 148 LINE SMOOTH",
"77 58 OFFCURVE",
"111 -8 OFFCURVE",
"197 -8 CURVE SMOOTH"
);
}
);
width = 338;
},
{
anchors = (
{
name = bottom;
position = "{105, 0}";
},
{
name = center;
position = "{145, 255}";
},
{
name = top;
position = "{186, 510}";
},
{
name = topright;
position = "{310, 510}";
}
);
layerId = "0A0B3C42-2553-4A38-A2DF-85B7A92D388E";
paths = (
{
closed = 1;
nodes = (
"195 -4 OFFCURVE",
"231 20 OFFCURVE",
"231 43 CURVE SMOOTH",
"231 51 OFFCURVE",
"227 55 OFFCURVE",
"218 55 CURVE",
"200 33 OFFCURVE",
"177 26 OFFCURVE",
"159 26 CURVE SMOOTH",
"120 26 OFFCURVE",
"115 55 OFFCURVE",
"120 94 CURVE SMOOTH",
"206 636 LINE",
"201 639 OFFCURVE",
"197 640 OFFCURVE",
"193 640 CURVE SMOOTH",
"176 640 OFFCURVE",
"167 627 OFFCURVE",
"164 605 CURVE SMOOTH",
"82 90 LINE SMOOTH",
"75 35 OFFCURVE",
"90 -4 OFFCURVE",
"150 -4 CURVE SMOOTH"
);
},
{
closed = 1;
nodes = (
"272 480 LINE SMOOTH",
"291 480 OFFCURVE",
"304 487 OFFCURVE",
"304 500 CURVE SMOOTH",
"304 503 OFFCURVE",
"303 507 OFFCURVE",
"302 510 CURVE",
"102 510 LINE SMOOTH",
"82 510 OFFCURVE",
"70 503 OFFCURVE",
"70 490 CURVE SMOOTH",
"70 486 OFFCURVE",
"71 483 OFFCURVE",
"73 480 CURVE"
);
}
);
width = 289;
}
);
leftKerningGroup = t;
note = t;
rightKerningGroup = t;
unicode = 0074;
},
{
glyphname = u;
lastChange = "2018-03-07 08:14:48 +0000";
layers = (
{
anchors = (
{
name = bottom;
position = "{223, 0}";
},
{
name = ogonek;
position = "{435, 10}";
},
{
name = top;
position = "{304, 510}";
},
{
name = topright;
position = "{547, 510}";
}
);
layerId = "0B1DFD06-3317-40CA-B510-4969A0718C16";
paths = (
{
closed = 1;
nodes = (
"256 -12 OFFCURVE",
"307 25 OFFCURVE",
"342 73 CURVE",
"330 -2 LINE",
"339 -5 OFFCURVE",
"349 -6 OFFCURVE",
"357 -6 CURVE SMOOTH",
"392 -6 OFFCURVE",
"415 19 OFFCURVE",
"421 55 CURVE SMOOTH",
"493 512 LINE",
"484 515 OFFCURVE",
"474 516 OFFCURVE",
"466 516 CURVE SMOOTH",
"431 516 OFFCURVE",
"408 491 OFFCURVE",
"402 455 CURVE SMOOTH",
"373 274 LINE SMOOTH",
"348 114 OFFCURVE",
"293 56 OFFCURVE",
"217 56 CURVE SMOOTH",
"151 56 OFFCURVE",
"121 95 OFFCURVE",
"129 171 CURVE SMOOTH",
"183 512 LINE",
"174 515 OFFCURVE",
"164 516 OFFCURVE",
"156 516 CURVE SMOOTH",
"121 516 OFFCURVE",
"98 491 OFFCURVE",
"92 455 CURVE SMOOTH",
"48 177 LINE SMOOTH",
"28 72 OFFCURVE",
"74 -12 OFFCURVE",
"186 -12 CURVE SMOOTH"
);
}
);
width = 526;
},
{
anchors = (
{
name = bottom;
position = "{213, 0}";
},
{
name = ogonek;
position = "{417, 10}";
},
{
name = top;
position = "{294, 510}";
},
{
name = topright;
position = "{527, 510}";
}
);
layerId = "0A0B3C42-2553-4A38-A2DF-85B7A92D388E";
paths = (
{
closed = 1;
nodes = (
"267 -10 OFFCURVE",
"331 39 OFFCURVE",
"367 102 CURVE",
"351 0 LINE",
"356 -3 OFFCURVE",
"359 -4 OFFCURVE",
"363 -4 CURVE SMOOTH",
"380 -4 OFFCURVE",
"389 9 OFFCURVE",
"393 31 CURVE SMOOTH",
"469 510 LINE",
"464 513 OFFCURVE",
"460 514 OFFCURVE",
"456 514 CURVE SMOOTH",
"439 514 OFFCURVE",
"430 501 OFFCURVE",
"427 479 CURVE SMOOTH",
"390 247 LINE SMOOTH",
"369 112 OFFCURVE",
"290 21 OFFCURVE",
"193 21 CURVE SMOOTH",
"110 21 OFFCURVE",
"74 87 OFFCURVE",
"88 173 CURVE SMOOTH",
"142 510 LINE",
"137 513 OFFCURVE",
"133 514 OFFCURVE",
"129 514 CURVE SMOOTH",
"112 514 OFFCURVE",
"103 501 OFFCURVE",
"100 479 CURVE SMOOTH",
"51 173 LINE SMOOTH",
"34 65 OFFCURVE",
"83 -10 OFFCURVE",
"188 -10 CURVE SMOOTH"
);
}
);
width = 506;
}
);
leftKerningGroup = u;
note = u;
rightKerningGroup = u;
unicode = 0075;
},
{
glyphname = v;
lastChange = "2018-03-07 08:14:48 +0000";
layers = (
{
anchors = (
{
name = bottom;
position = "{192, 0}";
},
{
name = top;
position = "{273, 510}";
}
);
layerId = "0B1DFD06-3317-40CA-B510-4969A0718C16";
paths = (
{
closed = 1;
nodes = (
"206 0 LINE",
"491 510 LINE",
"479 516 OFFCURVE",
"464 518 OFFCURVE",
"455 518 CURVE SMOOTH",
"428 518 OFFCURVE",
"405 503 OFFCURVE",
"386 470 CURVE SMOOTH",
"204 146 LINE",
"114 515 LINE",
"68 515 OFFCURVE",
"36 476 OFFCURVE",
"49 437 CURVE SMOOTH",
"156 0 LINE"
);
}
);
width = 464;
},
{
anchors = (
{
name = bottom;
position = "{178, 0}";
},
{
name = top;
position = "{259, 510}";
}
);
layerId = "0A0B3C42-2553-4A38-A2DF-85B7A92D388E";
paths = (
{
closed = 1;
nodes = (
"183 0 LINE",
"458 510 LINE",
"452 513 OFFCURVE",
"445 514 OFFCURVE",
"440 514 CURVE SMOOTH",
"428 514 OFFCURVE",
"418 505 OFFCURVE",
"411 491 CURVE SMOOTH",
"184 67 LINE",
"86 514 LINE",
"69 514 OFFCURVE",
"56 503 OFFCURVE",
"56 486 CURVE SMOOTH",
"56 484 OFFCURVE",
"56 481 OFFCURVE",
"57 478 CURVE SMOOTH",
"163 0 LINE"
);
}
);
width = 435;
}
);
leftKerningGroup = v;
note = v;
rightKerningGroup = v;
unicode = 0076;
},
{
glyphname = w;
lastChange = "2018-03-07 08:14:48 +0000";
layers = (
{
anchors = (
{
name = bottom;
position = "{322, 0}";
},
{
name = top;
position = "{403, 510}";
}
);
layerId = "0B1DFD06-3317-40CA-B510-4969A0718C16";
paths = (
{
closed = 1;
nodes = (
"185 0 LINE",
"376 400 LINE",
"441 0 LINE",
"490 0 LINE",
"746 510 LINE",
"734 514 OFFCURVE",
"721 516 OFFCURVE",
"712 516 CURVE SMOOTH",
"686 516 OFFCURVE",
"661 504 OFFCURVE",
"648 479 CURVE SMOOTH",
"488 159 LINE",
"434 510 LINE",
"425 514 OFFCURVE",
"409 516 OFFCURVE",
"400 516 CURVE SMOOTH",
"372 516 OFFCURVE",
"350 498 OFFCURVE",
"329 454 CURVE SMOOTH",
"188 156 LINE",
"121 516 LINE",
"67 516 OFFCURVE",
"47 490 OFFCURVE",
"54 440 CURVE SMOOTH",
"135 0 LINE"
);
}
);
width = 723;
},
{
anchors = (
{
name = bottom;
position = "{300, 0}";
},
{
name = top;
position = "{381, 510}";
}
);
layerId = "0A0B3C42-2553-4A38-A2DF-85B7A92D388E";
paths = (
{
closed = 1;
nodes = (
"166 0 LINE",
"369 466 LINE",
"424 0 LINE",
"444 0 LINE",
"698 510 LINE",
"692 513 OFFCURVE",
"685 514 OFFCURVE",
"680 514 CURVE SMOOTH",
"668 514 OFFCURVE",
"658 506 OFFCURVE",
"651 491 CURVE SMOOTH",
"451 91 LINE",
"402 510 LINE",
"395 513 OFFCURVE",
"389 514 OFFCURVE",
"383 514 CURVE SMOOTH",
"362 514 OFFCURVE",
"348 504 OFFCURVE",
"337 480 CURVE SMOOTH",
"167 91 LINE",
"91 514 LINE",
"71 514 OFFCURVE",
"56 502 OFFCURVE",
"60 478 CURVE SMOOTH",
"146 0 LINE"
);
}
);
width = 679;
}
);
leftKerningGroup = w;
note = w;
rightKerningGroup = w;
unicode = 0077;
},
{
glyphname = x;
lastChange = "2018-03-07 08:14:48 +0000";
layers = (
{
anchors = (
{
name = bottom;
position = "{186, 0}";
},
{
name = top;
position = "{267, 510}";
}
);
layerId = "0B1DFD06-3317-40CA-B510-4969A0718C16";
paths = (
{
closed = 1;
nodes = (
"45 -6 OFFCURVE",
"73 8 OFFCURVE",
"95 35 CURVE SMOOTH",
"467 509 LINE",
"455 515 OFFCURVE",
"437 516 OFFCURVE",
"428 516 CURVE SMOOTH",
"406 516 OFFCURVE",
"376 503 OFFCURVE",
"353 475 CURVE SMOOTH",
"-22 1 LINE",
"-12 -3 OFFCURVE",
"5 -6 OFFCURVE",
"17 -6 CURVE SMOOTH"
);
},
{
closed = 1;
nodes = (
"368 -6 OFFCURVE",
"400 11 OFFCURVE",
"400 40 CURVE SMOOTH",
"400 48 OFFCURVE",
"397 56 OFFCURVE",
"392 66 CURVE SMOOTH",
"148 516 LINE",
"114 516 OFFCURVE",
"82 501 OFFCURVE",
"82 473 CURVE SMOOTH",
"82 467 OFFCURVE",
"84 459 OFFCURVE",
"88 451 CURVE SMOOTH",
"334 -6 LINE"
);
}
);
width = 452;
},
{
anchors = (
{
name = bottom;
position = "{185, 0}";
},
{
name = top;
position = "{266, 510}";
}
);
layerId = "0A0B3C42-2553-4A38-A2DF-85B7A92D388E";
paths = (
{
closed = 1;
nodes = (
"13 -4 OFFCURVE",
"22 0 OFFCURVE",
"37 17 CURVE SMOOTH",
"459 510 LINE",
"452 513 OFFCURVE",
"446 514 OFFCURVE",
"440 514 CURVE SMOOTH",
"427 514 OFFCURVE",
"416 507 OFFCURVE",
"399 487 CURVE SMOOTH",
"-18 0 LINE",
"-13 -3 OFFCURVE",
"-6 -4 OFFCURVE",
"0 -4 CURVE SMOOTH"
);
},
{
closed = 1;
nodes = (
"380 -4 OFFCURVE",
"390 3 OFFCURVE",
"390 14 CURVE SMOOTH",
"390 18 OFFCURVE",
"388 24 OFFCURVE",
"385 29 CURVE SMOOTH",
"114 514 LINE",
"101 514 OFFCURVE",
"89 507 OFFCURVE",
"89 495 CURVE SMOOTH",
"89 492 OFFCURVE",
"90 488 OFFCURVE",
"92 484 CURVE SMOOTH",
"364 -4 LINE"
);
}
);
width = 449;
}
);
leftKerningGroup = x;
note = x;
rightKerningGroup = x;
unicode = 0078;
},
{
glyphname = y;
lastChange = "2018-03-07 08:14:48 +0000";
layers = (
{
anchors = (
{
name = bottom;
position = "{193, 0}";
},
{
name = top;
position = "{274, 510}";
}
);
layerId = "0B1DFD06-3317-40CA-B510-4969A0718C16";
paths = (
{
closed = 1;
nodes = (
"84 -170 OFFCURVE",
"143 -123 OFFCURVE",
"181 -50 CURVE SMOOTH",
"492 510 LINE",
"480 516 OFFCURVE",
"465 518 OFFCURVE",
"456 518 CURVE SMOOTH",
"429 518 OFFCURVE",
"406 503 OFFCURVE",
"387 470 CURVE SMOOTH",
"205 146 LINE",
"115 515 LINE",
"69 515 OFFCURVE",
"37 476 OFFCURVE",
"50 437 CURVE SMOOTH",
"149 46 LINE",
"108 -26 LINE SMOOTH",
"77 -80 OFFCURVE",
"56 -97 OFFCURVE",
"28 -97 CURVE SMOOTH",
"13 -97 OFFCURVE",
"-4 -92 OFFCURVE",
"-20 -85 CURVE",
"-37 -91 OFFCURVE",
"-50 -108 OFFCURVE",
"-50 -127 CURVE SMOOTH",
"-50 -153 OFFCURVE",
"-22 -170 OFFCURVE",
"18 -170 CURVE SMOOTH"
);
}
);
width = 465;
},
{
anchors = (
{
name = bottom;
position = "{178, 0}";
},
{
name = top;
position = "{259, 510}";
}
);
layerId = "0A0B3C42-2553-4A38-A2DF-85B7A92D388E";
paths = (
{
closed = 1;
nodes = (
"79 -150 OFFCURVE",
"115 -125 OFFCURVE",
"143 -73 CURVE SMOOTH",
"183 0 LINE",
"458 510 LINE",
"452 513 OFFCURVE",
"445 514 OFFCURVE",
"440 514 CURVE SMOOTH",
"428 514 OFFCURVE",
"418 505 OFFCURVE",
"411 491 CURVE SMOOTH",
"184 67 LINE",
"86 514 LINE",
"69 514 OFFCURVE",
"56 503 OFFCURVE",
"56 486 CURVE SMOOTH",
"56 484 OFFCURVE",
"56 481 OFFCURVE",
"57 478 CURVE SMOOTH",
"158 21 LINE",
"109 -69 LINE SMOOTH",
"91 -102 OFFCURVE",
"65 -120 OFFCURVE",
"35 -120 CURVE SMOOTH",
"14 -120 OFFCURVE",
"-6 -111 OFFCURVE",
"-17 -91 CURVE",
"-29 -91 OFFCURVE",
"-36 -98 OFFCURVE",
"-36 -112 CURVE SMOOTH",
"-36 -130 OFFCURVE",
"-10 -150 OFFCURVE",
"32 -150 CURVE SMOOTH"
);
}
);
width = 435;
}
);
leftKerningGroup = y;
note = y;
rightKerningGroup = v;
rightMetricsKey = v;
unicode = 0079;
},
{
glyphname = z;
lastChange = "2018-03-07 08:14:48 +0000";
layers = (
{
anchors = (
{
name = bottom;
position = "{171, 0}";
},
{
name = top;
position = "{252, 510}";
}
);
layerId = "0B1DFD06-3317-40CA-B510-4969A0718C16";
paths = (
{
closed = 1;
nodes = (
"318 0 LINE SMOOTH",
"349 0 OFFCURVE",
"375 18 OFFCURVE",
"375 53 CURVE SMOOTH",
"375 57 OFFCURVE",
"374 62 OFFCURVE",
"373 66 CURVE",
"95 66 LINE",
"427 478 LINE",
"432 510 LINE",
"126 510 LINE SMOOTH",
"98 510 OFFCURVE",
"70 496 OFFCURVE",
"70 468 CURVE SMOOTH",
"70 461 OFFCURVE",
"71 452 OFFCURVE",
"72 444 CURVE",
"309 444 LINE",
"-23 32 LINE",
"-28 0 LINE"
);
}
);
width = 421;
},
{
anchors = (
{
name = bottom;
position = "{161, 0}";
},
{
name = top;
position = "{242, 510}";
}
);
layerId = "0A0B3C42-2553-4A38-A2DF-85B7A92D388E";
paths = (
{
closed = 1;
nodes = (
"314 0 LINE SMOOTH",
"334 0 OFFCURVE",
"346 7 OFFCURVE",
"346 21 CURVE SMOOTH",
"346 24 OFFCURVE",
"345 27 OFFCURVE",
"343 30 CURVE",
"28 30 LINE",
"405 494 LINE",
"408 510 LINE",
"110 510 LINE SMOOTH",
"90 510 OFFCURVE",
"78 503 OFFCURVE",
"78 489 CURVE SMOOTH",
"78 486 OFFCURVE",
"79 483 OFFCURVE",
"81 480 CURVE",
"356 480 LINE",
"-21 16 LINE",
"-24 0 LINE"
);
}
);
width = 401;
}
);
leftKerningGroup = z;
note = z;
rightKerningGroup = z;
unicode = 007A;
},
{
glyphname = AE;
lastChange = "2018-03-07 08:14:48 +0000";
layers = (
{
anchors = (
{
name = bottom;
position = "{380, 0}";
},
{
name = top;
position = "{491, 700}";
}
);
layerId = "0B1DFD06-3317-40CA-B510-4969A0718C16";
paths = (
{
closed = 1;
nodes = (
"54 -8 OFFCURVE",
"74 8 OFFCURVE",
"92 43 CURVE SMOOTH",
"169 195 LINE",
"397 195 LINE",
"394 177 LINE SMOOTH",
"382 98 OFFCURVE",
"368 62 OFFCURVE",
"327 21 CURVE",
"332 0 LINE",
"713 0 LINE SMOOTH",
"751 0 OFFCURVE",
"779 21 OFFCURVE",
"779 63 CURVE SMOOTH",
"779 67 OFFCURVE",
"778 72 OFFCURVE",
"777 76 CURVE",
"413 76 LINE",
"417 34 LINE",
"463 76 OFFCURVE",
"474 127 OFFCURVE",
"482 177 CURVE SMOOTH",
"505 320 LINE",
"716 320 LINE SMOOTH",
"753 320 OFFCURVE",
"782 341 OFFCURVE",
"782 382 CURVE SMOOTH",
"782 387 OFFCURVE",
"781 392 OFFCURVE",
"780 396 CURVE",
"517 396 LINE",
"553 624 LINE",
"796 624 LINE SMOOTH",
"833 624 OFFCURVE",
"862 645 OFFCURVE",
"862 686 CURVE SMOOTH",
"862 691 OFFCURVE",
"861 696 OFFCURVE",
"860 700 CURVE",
"401 700 LINE SMOOTH",
"363 700 OFFCURVE",
"330 677 OFFCURVE",
"309 635 CURVE SMOOTH",
"-14 0 LINE",
"-5 -5 OFFCURVE",
"11 -8 OFFCURVE",
"24 -8 CURVE SMOOTH"
);
},
{
closed = 1;
nodes = (
"374 619 LINE",
"464 619 LINE",
"409 269 LINE",
"205 269 LINE"
);
}
);
width = 840;
},
{
anchors = (
{
name = bottom;
position = "{357, 0}";
},
{
name = top;
position = "{468, 700}";
}
);
layerId = "0A0B3C42-2553-4A38-A2DF-85B7A92D388E";
paths = (
{
closed = 1;
nodes = (
"19 -6 OFFCURVE",
"29 2 OFFCURVE",
"40 23 CURVE SMOOTH",
"144 227 LINE",
"379 227 LINE",
"373 188 LINE SMOOTH",
"359 100 OFFCURVE",
"346 54 OFFCURVE",
"319 13 CURVE",
"323 0 LINE",
"690 0 LINE SMOOTH",
"710 0 OFFCURVE",
"722 7 OFFCURVE",
"722 22 CURVE SMOOTH",
"722 25 OFFCURVE",
"721 29 OFFCURVE",
"720 32 CURVE",
"368 32 LINE",
"391 74 OFFCURVE",
"403 136 OFFCURVE",
"411 188 CURVE SMOOTH",
"437 355 LINE",
"698 355 LINE SMOOTH",
"718 355 OFFCURVE",
"731 363 OFFCURVE",
"731 379 CURVE SMOOTH",
"731 381 OFFCURVE",
"730 384 OFFCURVE",
"729 386 CURVE",
"442 386 LINE",
"487 668 LINE",
"780 668 LINE SMOOTH",
"800 668 OFFCURVE",
"812 675 OFFCURVE",
"812 690 CURVE SMOOTH",
"812 693 OFFCURVE",
"811 697 OFFCURVE",
"810 700 CURVE",
"385 700 LINE SMOOTH",
"360 700 OFFCURVE",
"340 686 OFFCURVE",
"327 662 CURVE SMOOTH",
"-10 0 LINE",
"-5 -4 OFFCURVE",
"1 -6 OFFCURVE",
"7 -6 CURVE SMOOTH"
);
},
{
closed = 1;
nodes = (
"368 668 LINE",
"449 668 LINE",
"384 259 LINE",
"160 259 LINE"
);
}
);
width = 793;
}
);
leftMetricsKey = A;
note = AE;
rightMetricsKey = E;
unicode = 00C6;
},
{
glyphname = Eth;
lastChange = "2018-03-07 08:14:48 +0000";
layers = (
{
components = (
{
name = D;
}
);
layerId = "0B1DFD06-3317-40CA-B510-4969A0718C16";
paths = (
{
closed = 1;
nodes = (
"361 320 LINE",
"370 380 LINE",
"20 380 LINE",
"11 320 LINE"
);
}
);
width = 691;
},
{
components = (
{
name = D;
}
);
layerId = "0A0B3C42-2553-4A38-A2DF-85B7A92D388E";
paths = (
{
closed = 1;
nodes = (
"363 334 LINE",
"368 366 LINE",
"18 366 LINE",
"13 334 LINE"
);
}
);
width = 620;
}
);
note = Eth;
unicode = 00D0;
},
{
glyphname = Eacute;
lastChange = "2018-03-07 08:14:48 +0000";
layers = (
{
background = {
paths = (
{
closed = 1;
nodes = (
"554 0 LINE",
"571 179 LINE",
"544 179 LINE",
"538 124 OFFCURVE",
"520 40 OFFCURVE",
"456 40 CURVE SMOOTH",
"201 40 LINE",
"201 659 LINE",
"441 659 LINE SMOOTH",
"516 659 OFFCURVE",
"525 567 OFFCURVE",
"528 527 CURVE",
"555 527 LINE",
"555 700 LINE",
"16 700 LINE",
"16 673 LINE",
"44 673 LINE SMOOTH",
"83 673 OFFCURVE",
"103 662 OFFCURVE",
"103 637 CURVE SMOOTH",
"103 62 LINE SMOOTH",
"103 37 OFFCURVE",
"83 26 OFFCURVE",
"44 26 CURVE SMOOTH",
"16 26 LINE",
"16 0 LINE"
);
},
{
closed = 1;
nodes = (
"455 251 LINE",
"455 485 LINE",
"431 485 LINE",
"427 436 OFFCURVE",
"424 388 OFFCURVE",
"379 388 CURVE SMOOTH",
"162 388 LINE",
"162 348 LINE",
"379 348 LINE SMOOTH",
"424 348 OFFCURVE",
"427 300 OFFCURVE",
"431 251 CURVE"
);
},
{
closed = 1;
nodes = (
"398 865 LINE SMOOTH",
"420 877 OFFCURVE",
"432 890 OFFCURVE",
"432 907 CURVE SMOOTH",
"432 922 OFFCURVE",
"420 937 OFFCURVE",
"398 937 CURVE SMOOTH",
"377 937 OFFCURVE",
"362 921 OFFCURVE",
"354 914 CURVE SMOOTH",
"239 807 LINE",
"256 782 LINE"
);
}
);
};
components = (
{
name = E;
},
{
name = acutecomb;
transform = "{1, 0, 0, 1, 207, 190}";
}
);
layerId = "0B1DFD06-3317-40CA-B510-4969A0718C16";
width = 520;
},
{
background = {
paths = (
{
closed = 1;
nodes = (
"554 0 LINE",
"571 179 LINE",
"544 179 LINE",
"538 124 OFFCURVE",
"520 40 OFFCURVE",
"456 40 CURVE SMOOTH",
"201 40 LINE",
"201 659 LINE",
"441 659 LINE SMOOTH",
"516 659 OFFCURVE",
"525 567 OFFCURVE",
"528 527 CURVE",
"555 527 LINE",
"555 700 LINE",
"16 700 LINE",
"16 673 LINE",
"44 673 LINE SMOOTH",
"83 673 OFFCURVE",
"103 662 OFFCURVE",
"103 637 CURVE SMOOTH",
"103 62 LINE SMOOTH",
"103 37 OFFCURVE",
"83 26 OFFCURVE",
"44 26 CURVE SMOOTH",
"16 26 LINE",
"16 0 LINE"
);
},
{
closed = 1;
nodes = (
"455 251 LINE",
"455 485 LINE",
"431 485 LINE",
"427 436 OFFCURVE",
"424 388 OFFCURVE",
"379 388 CURVE SMOOTH",
"162 388 LINE",
"162 348 LINE",
"379 348 LINE SMOOTH",
"424 348 OFFCURVE",
"427 300 OFFCURVE",
"431 251 CURVE"
);
},
{
closed = 1;
nodes = (
"398 865 LINE SMOOTH",
"420 877 OFFCURVE",
"432 890 OFFCURVE",
"432 907 CURVE SMOOTH",
"432 922 OFFCURVE",
"420 937 OFFCURVE",
"398 937 CURVE SMOOTH",
"377 937 OFFCURVE",
"362 921 OFFCURVE",
"354 914 CURVE SMOOTH",
"239 807 LINE",
"256 782 LINE"
);
}
);
};
components = (
{
name = E;
},
{
name = acutecomb;
transform = "{1, 0, 0, 1, 214, 190}";
}
);
layerId = "0A0B3C42-2553-4A38-A2DF-85B7A92D388E";
width = 500;
}
);
note = Eacute;
unicode = 00C9;
},
{
glyphname = Ebreve;
lastChange = "2018-03-07 08:14:48 +0000";
layers = (
{
background = {
paths = (
{
closed = 1;
nodes = (
"554 0 LINE",
"571 179 LINE",
"544 179 LINE",
"538 124 OFFCURVE",
"520 40 OFFCURVE",
"456 40 CURVE SMOOTH",
"201 40 LINE",
"201 659 LINE",
"441 659 LINE SMOOTH",
"516 659 OFFCURVE",
"525 567 OFFCURVE",
"528 527 CURVE",
"555 527 LINE",
"555 700 LINE",
"16 700 LINE",
"16 673 LINE",
"44 673 LINE SMOOTH",
"83 673 OFFCURVE",
"103 662 OFFCURVE",
"103 637 CURVE SMOOTH",
"103 62 LINE SMOOTH",
"103 37 OFFCURVE",
"83 26 OFFCURVE",
"44 26 CURVE SMOOTH",
"16 26 LINE",
"16 0 LINE"
);
},
{
closed = 1;
nodes = (
"455 251 LINE",
"455 485 LINE",
"431 485 LINE",
"427 436 OFFCURVE",
"424 388 OFFCURVE",
"379 388 CURVE SMOOTH",
"162 388 LINE",
"162 348 LINE",
"379 348 LINE SMOOTH",
"424 348 OFFCURVE",
"427 300 OFFCURVE",
"431 251 CURVE"
);
},
{
closed = 1;
nodes = (
"432 776 OFFCURVE",
"474 832 OFFCURVE",
"478 907 CURVE",
"445 907 LINE",
"439 848 OFFCURVE",
"397 822 OFFCURVE",
"333 822 CURVE SMOOTH",
"269 822 OFFCURVE",
"226 848 OFFCURVE",
"219 907 CURVE",
"186 907 LINE",
"190 829 OFFCURVE",
"232 776 OFFCURVE",
"333 776 CURVE SMOOTH"
);
}
);
};
components = (
{
name = E;
},
{
name = brevecomb;
transform = "{1, 0, 0, 1, 120, 190}";
}
);
layerId = "0B1DFD06-3317-40CA-B510-4969A0718C16";
width = 520;
},
{
background = {
paths = (
{
closed = 1;
nodes = (
"554 0 LINE",
"571 179 LINE",
"544 179 LINE",
"538 124 OFFCURVE",
"520 40 OFFCURVE",
"456 40 CURVE SMOOTH",
"201 40 LINE",
"201 659 LINE",
"441 659 LINE SMOOTH",
"516 659 OFFCURVE",
"525 567 OFFCURVE",
"528 527 CURVE",
"555 527 LINE",
"555 700 LINE",
"16 700 LINE",
"16 673 LINE",
"44 673 LINE SMOOTH",
"83 673 OFFCURVE",
"103 662 OFFCURVE",
"103 637 CURVE SMOOTH",
"103 62 LINE SMOOTH",
"103 37 OFFCURVE",
"83 26 OFFCURVE",
"44 26 CURVE SMOOTH",
"16 26 LINE",
"16 0 LINE"
);
},
{
closed = 1;
nodes = (
"455 251 LINE",
"455 485 LINE",
"431 485 LINE",
"427 436 OFFCURVE",
"424 388 OFFCURVE",
"379 388 CURVE SMOOTH",
"162 388 LINE",
"162 348 LINE",
"379 348 LINE SMOOTH",
"424 348 OFFCURVE",
"427 300 OFFCURVE",
"431 251 CURVE"
);
},
{
closed = 1;
nodes = (
"432 776 OFFCURVE",
"474 832 OFFCURVE",
"478 907 CURVE",
"445 907 LINE",
"439 848 OFFCURVE",
"397 822 OFFCURVE",
"333 822 CURVE SMOOTH",
"269 822 OFFCURVE",
"226 848 OFFCURVE",
"219 907 CURVE",
"186 907 LINE",
"190 829 OFFCURVE",
"232 776 OFFCURVE",
"333 776 CURVE SMOOTH"
);
}
);
};
components = (
{
name = E;
},
{
name = brevecomb;
transform = "{1, 0, 0, 1, 120, 190}";
}
);
layerId = "0A0B3C42-2553-4A38-A2DF-85B7A92D388E";
width = 500;
}
);
note = Ebreve;
unicode = 0114;
},
{
glyphname = Ecaron;
lastChange = "2018-03-07 08:14:48 +0000";
layers = (
{
background = {
paths = (
{
closed = 1;
nodes = (
"554 0 LINE",
"571 179 LINE",
"544 179 LINE",
"538 124 OFFCURVE",
"520 40 OFFCURVE",
"456 40 CURVE SMOOTH",
"201 40 LINE",
"201 659 LINE",
"441 659 LINE SMOOTH",
"516 659 OFFCURVE",
"525 567 OFFCURVE",
"528 527 CURVE",
"555 527 LINE",
"555 700 LINE",
"16 700 LINE",
"16 673 LINE",
"44 673 LINE SMOOTH",
"83 673 OFFCURVE",
"103 662 OFFCURVE",
"103 637 CURVE SMOOTH",
"103 62 LINE SMOOTH",
"103 37 OFFCURVE",
"83 26 OFFCURVE",
"44 26 CURVE SMOOTH",
"16 26 LINE",
"16 0 LINE"
);
},
{
closed = 1;
nodes = (
"455 251 LINE",
"455 485 LINE",
"431 485 LINE",
"427 436 OFFCURVE",
"424 388 OFFCURVE",
"379 388 CURVE SMOOTH",
"162 388 LINE",
"162 348 LINE",
"379 348 LINE SMOOTH",
"424 348 OFFCURVE",
"427 300 OFFCURVE",
"431 251 CURVE"
);
},
{
closed = 1;
nodes = (
"357 782 LINE",
"481 911 LINE",
"462 932 LINE",
"354 847 LINE",
"346 840 OFFCURVE",
"337 836 OFFCURVE",
"331 836 CURVE SMOOTH",
"325 836 OFFCURVE",
"317 840 OFFCURVE",
"307 847 CURVE",
"199 932 LINE",
"180 911 LINE",
"304 782 LINE"
);
}
);
};
components = (
{
name = E;
},
{
name = caroncomb;
transform = "{1, 0, 0, 1, 100, 190}";
}
);
layerId = "0B1DFD06-3317-40CA-B510-4969A0718C16";
width = 520;
},
{
background = {
paths = (
{
closed = 1;
nodes = (
"554 0 LINE",
"571 179 LINE",
"544 179 LINE",
"538 124 OFFCURVE",
"520 40 OFFCURVE",
"456 40 CURVE SMOOTH",
"201 40 LINE",
"201 659 LINE",
"441 659 LINE SMOOTH",
"516 659 OFFCURVE",
"525 567 OFFCURVE",
"528 527 CURVE",
"555 527 LINE",
"555 700 LINE",
"16 700 LINE",
"16 673 LINE",
"44 673 LINE SMOOTH",
"83 673 OFFCURVE",
"103 662 OFFCURVE",
"103 637 CURVE SMOOTH",
"103 62 LINE SMOOTH",
"103 37 OFFCURVE",
"83 26 OFFCURVE",
"44 26 CURVE SMOOTH",
"16 26 LINE",
"16 0 LINE"
);
},
{
closed = 1;
nodes = (
"455 251 LINE",
"455 485 LINE",
"431 485 LINE",
"427 436 OFFCURVE",
"424 388 OFFCURVE",
"379 388 CURVE SMOOTH",
"162 388 LINE",
"162 348 LINE",
"379 348 LINE SMOOTH",
"424 348 OFFCURVE",
"427 300 OFFCURVE",
"431 251 CURVE"
);
},
{
closed = 1;
nodes = (
"357 782 LINE",
"481 911 LINE",
"462 932 LINE",
"354 847 LINE",
"346 840 OFFCURVE",
"337 836 OFFCURVE",
"331 836 CURVE SMOOTH",
"325 836 OFFCURVE",
"317 840 OFFCURVE",
"307 847 CURVE",
"199 932 LINE",
"180 911 LINE",
"304 782 LINE"
);
}
);
};
components = (
{
name = E;
},
{
name = caroncomb;
transform = "{1, 0, 0, 1, 120, 190}";
}
);
layerId = "0A0B3C42-2553-4A38-A2DF-85B7A92D388E";
width = 500;
}
);
note = Ecaron;
unicode = 011A;
},
{
glyphname = Ecircumflex;
lastChange = "2018-03-07 08:14:48 +0000";
layers = (
{
background = {
paths = (
{
closed = 1;
nodes = (
"554 0 LINE",
"571 179 LINE",
"544 179 LINE",
"538 124 OFFCURVE",
"520 40 OFFCURVE",
"456 40 CURVE SMOOTH",
"201 40 LINE",
"201 659 LINE",
"441 659 LINE SMOOTH",
"516 659 OFFCURVE",
"525 567 OFFCURVE",
"528 527 CURVE",
"555 527 LINE",
"555 700 LINE",
"16 700 LINE",
"16 673 LINE",
"44 673 LINE SMOOTH",
"83 673 OFFCURVE",
"103 662 OFFCURVE",
"103 637 CURVE SMOOTH",
"103 62 LINE SMOOTH",
"103 37 OFFCURVE",
"83 26 OFFCURVE",
"44 26 CURVE SMOOTH",
"16 26 LINE",
"16 0 LINE"
);
},
{
closed = 1;
nodes = (
"455 251 LINE",
"455 485 LINE",
"431 485 LINE",
"427 436 OFFCURVE",
"424 388 OFFCURVE",
"379 388 CURVE SMOOTH",
"162 388 LINE",
"162 348 LINE",
"379 348 LINE SMOOTH",
"424 348 OFFCURVE",
"427 300 OFFCURVE",
"431 251 CURVE"
);
},
{
closed = 1;
nodes = (
"304 868 LINE SMOOTH",
"312 874 OFFCURVE",
"322 879 OFFCURVE",
"328 879 CURVE SMOOTH",
"334 879 OFFCURVE",
"342 874 OFFCURVE",
"351 868 CURVE",
"459 782 LINE",
"478 803 LINE",
"354 932 LINE",
"301 932 LINE",
"177 803 LINE",
"196 782 LINE"
);
}
);
};
components = (
{
name = E;
},
{
name = circumflexcomb;
transform = "{1, 0, 0, 1, 100, 190}";
}
);
layerId = "0B1DFD06-3317-40CA-B510-4969A0718C16";
width = 520;
},
{
background = {
paths = (
{
closed = 1;
nodes = (
"554 0 LINE",
"571 179 LINE",
"544 179 LINE",
"538 124 OFFCURVE",
"520 40 OFFCURVE",
"456 40 CURVE SMOOTH",
"201 40 LINE",
"201 659 LINE",
"441 659 LINE SMOOTH",
"516 659 OFFCURVE",
"525 567 OFFCURVE",
"528 527 CURVE",
"555 527 LINE",
"555 700 LINE",
"16 700 LINE",
"16 673 LINE",
"44 673 LINE SMOOTH",
"83 673 OFFCURVE",
"103 662 OFFCURVE",
"103 637 CURVE SMOOTH",
"103 62 LINE SMOOTH",
"103 37 OFFCURVE",
"83 26 OFFCURVE",
"44 26 CURVE SMOOTH",
"16 26 LINE",
"16 0 LINE"
);
},
{
closed = 1;
nodes = (
"455 251 LINE",
"455 485 LINE",
"431 485 LINE",
"427 436 OFFCURVE",
"424 388 OFFCURVE",
"379 388 CURVE SMOOTH",
"162 388 LINE",
"162 348 LINE",
"379 348 LINE SMOOTH",
"424 348 OFFCURVE",
"427 300 OFFCURVE",
"431 251 CURVE"
);
},
{
closed = 1;
nodes = (
"304 868 LINE SMOOTH",
"312 874 OFFCURVE",
"322 879 OFFCURVE",
"328 879 CURVE SMOOTH",
"334 879 OFFCURVE",
"342 874 OFFCURVE",
"351 868 CURVE",
"459 782 LINE",
"478 803 LINE",
"354 932 LINE",
"301 932 LINE",
"177 803 LINE",
"196 782 LINE"
);
}
);
};
components = (
{
name = E;
},
{
name = circumflexcomb;
transform = "{1, 0, 0, 1, 120, 190}";
}
);
layerId = "0A0B3C42-2553-4A38-A2DF-85B7A92D388E";
width = 500;
}
);
note = Ecircumflex;
unicode = 00CA;
},
{
glyphname = Ecircumflexacute;
lastChange = "2018-03-07 08:14:48 +0000";
layers = (
{
background = {
paths = (
{
closed = 1;
nodes = (
"554 0 LINE",
"571 179 LINE",
"544 179 LINE",
"538 124 OFFCURVE",
"520 40 OFFCURVE",
"456 40 CURVE SMOOTH",
"201 40 LINE",
"201 659 LINE",
"441 659 LINE SMOOTH",
"516 659 OFFCURVE",
"525 567 OFFCURVE",
"528 527 CURVE",
"555 527 LINE",
"555 700 LINE",
"16 700 LINE",
"16 673 LINE",
"44 673 LINE SMOOTH",
"83 673 OFFCURVE",
"103 662 OFFCURVE",
"103 637 CURVE SMOOTH",
"103 62 LINE SMOOTH",
"103 37 OFFCURVE",
"83 26 OFFCURVE",
"44 26 CURVE SMOOTH",
"16 26 LINE",
"16 0 LINE"
);
},
{
closed = 1;
nodes = (
"455 251 LINE",
"455 485 LINE",
"431 485 LINE",
"427 436 OFFCURVE",
"424 388 OFFCURVE",
"379 388 CURVE SMOOTH",
"162 388 LINE",
"162 348 LINE",
"379 348 LINE SMOOTH",
"424 348 OFFCURVE",
"427 300 OFFCURVE",
"431 251 CURVE"
);
},
{
closed = 1;
nodes = (
"290 862 LINE SMOOTH",
"300 870 OFFCURVE",
"310 878 OFFCURVE",
"318 878 CURVE SMOOTH",
"324 878 OFFCURVE",
"332 873 OFFCURVE",
"341 867 CURVE",
"447 781 LINE",
"466 803 LINE",
"344 932 LINE",
"293 932 LINE",
"171 803 LINE",
"189 781 LINE"
);
},
{
closed = 1;
nodes = (
"555 960 LINE SMOOTH",
"578 972 OFFCURVE",
"591 988 OFFCURVE",
"591 1003 CURVE SMOOTH",
"591 1017 OFFCURVE",
"580 1034 OFFCURVE",
"557 1034 CURVE SMOOTH",
"538 1034 OFFCURVE",
"521 1018 OFFCURVE",
"511 1008 CURVE SMOOTH",
"415 915 LINE",
"433 893 LINE"
);
}
);
};
components = (
{
name = E;
},
{
name = circumflexcomb;
transform = "{1, 0, 0, 1, 100, 190}";
},
{
name = acutecomb;
transform = "{1, 0, 0, 1, 240, 400}";
}
);
layerId = "0B1DFD06-3317-40CA-B510-4969A0718C16";
width = 520;
},
{
background = {
paths = (
{
closed = 1;
nodes = (
"554 0 LINE",
"571 179 LINE",
"544 179 LINE",
"538 124 OFFCURVE",
"520 40 OFFCURVE",
"456 40 CURVE SMOOTH",
"201 40 LINE",
"201 659 LINE",
"441 659 LINE SMOOTH",
"516 659 OFFCURVE",
"525 567 OFFCURVE",
"528 527 CURVE",
"555 527 LINE",
"555 700 LINE",
"16 700 LINE",
"16 673 LINE",
"44 673 LINE SMOOTH",
"83 673 OFFCURVE",
"103 662 OFFCURVE",
"103 637 CURVE SMOOTH",
"103 62 LINE SMOOTH",
"103 37 OFFCURVE",
"83 26 OFFCURVE",
"44 26 CURVE SMOOTH",
"16 26 LINE",
"16 0 LINE"
);
},
{
closed = 1;
nodes = (
"455 251 LINE",
"455 485 LINE",
"431 485 LINE",
"427 436 OFFCURVE",
"424 388 OFFCURVE",
"379 388 CURVE SMOOTH",
"162 388 LINE",
"162 348 LINE",
"379 348 LINE SMOOTH",
"424 348 OFFCURVE",
"427 300 OFFCURVE",
"431 251 CURVE"
);
},
{
closed = 1;
nodes = (
"290 862 LINE SMOOTH",
"300 870 OFFCURVE",
"310 878 OFFCURVE",
"318 878 CURVE SMOOTH",
"324 878 OFFCURVE",
"332 873 OFFCURVE",
"341 867 CURVE",
"447 781 LINE",
"466 803 LINE",
"344 932 LINE",
"293 932 LINE",
"171 803 LINE",
"189 781 LINE"
);
},
{
closed = 1;
nodes = (
"555 960 LINE SMOOTH",
"578 972 OFFCURVE",
"591 988 OFFCURVE",
"591 1003 CURVE SMOOTH",
"591 1017 OFFCURVE",
"580 1034 OFFCURVE",
"557 1034 CURVE SMOOTH",
"538 1034 OFFCURVE",
"521 1018 OFFCURVE",
"511 1008 CURVE SMOOTH",
"415 915 LINE",
"433 893 LINE"
);
}
);
};
components = (
{
name = E;
},
{
name = circumflexcomb;
transform = "{1, 0, 0, 1, 120, 190}";
},
{
name = acutecomb;
transform = "{1, 0, 0, 1, 244, 380}";
}
);
layerId = "0A0B3C42-2553-4A38-A2DF-85B7A92D388E";
width = 500;
}
);
note = Ecircumflexacute;
unicode = 1EBE;
},
{
glyphname = Ecircumflexdotbelow;
lastChange = "2018-03-07 08:14:48 +0000";
layers = (
{
background = {
paths = (
{
closed = 1;
nodes = (
"554 0 LINE",
"571 179 LINE",
"544 179 LINE",
"538 124 OFFCURVE",
"520 40 OFFCURVE",
"456 40 CURVE SMOOTH",
"201 40 LINE",
"201 659 LINE",
"441 659 LINE SMOOTH",
"516 659 OFFCURVE",
"525 567 OFFCURVE",
"528 527 CURVE",
"555 527 LINE",
"555 700 LINE",
"16 700 LINE",
"16 673 LINE",
"44 673 LINE SMOOTH",
"83 673 OFFCURVE",
"103 662 OFFCURVE",
"103 637 CURVE SMOOTH",
"103 62 LINE SMOOTH",
"103 37 OFFCURVE",
"83 26 OFFCURVE",
"44 26 CURVE SMOOTH",
"16 26 LINE",
"16 0 LINE"
);
},
{
closed = 1;
nodes = (
"350 -159 OFFCURVE",
"368 -140 OFFCURVE",
"368 -112 CURVE SMOOTH",
"368 -84 OFFCURVE",
"350 -64 OFFCURVE",
"322 -64 CURVE SMOOTH",
"294 -64 OFFCURVE",
"275 -84 OFFCURVE",
"275 -112 CURVE SMOOTH",
"275 -140 OFFCURVE",
"294 -159 OFFCURVE",
"322 -159 CURVE SMOOTH"
);
},
{
closed = 1;
nodes = (
"455 251 LINE",
"455 485 LINE",
"431 485 LINE",
"427 436 OFFCURVE",
"424 388 OFFCURVE",
"379 388 CURVE SMOOTH",
"162 388 LINE",
"162 348 LINE",
"379 348 LINE SMOOTH",
"424 348 OFFCURVE",
"427 300 OFFCURVE",
"431 251 CURVE"
);
},
{
closed = 1;
nodes = (
"294 868 LINE SMOOTH",
"302 874 OFFCURVE",
"312 879 OFFCURVE",
"318 879 CURVE SMOOTH",
"324 879 OFFCURVE",
"332 874 OFFCURVE",
"341 868 CURVE",
"449 782 LINE",
"468 803 LINE",
"344 932 LINE",
"291 932 LINE",
"167 803 LINE",
"186 782 LINE"
);
}
);
};
components = (
{
name = E;
},
{
name = dotbelowcomb;
transform = "{1, 0, 0, 1, 168, 0}";
},
{
name = circumflexcomb;
transform = "{1, 0, 0, 1, 100, 190}";
}
);
layerId = "0B1DFD06-3317-40CA-B510-4969A0718C16";
width = 520;
},
{
background = {
paths = (
{
closed = 1;
nodes = (
"554 0 LINE",
"571 179 LINE",
"544 179 LINE",
"538 124 OFFCURVE",
"520 40 OFFCURVE",
"456 40 CURVE SMOOTH",
"201 40 LINE",
"201 659 LINE",
"441 659 LINE SMOOTH",
"516 659 OFFCURVE",
"525 567 OFFCURVE",
"528 527 CURVE",
"555 527 LINE",
"555 700 LINE",
"16 700 LINE",
"16 673 LINE",
"44 673 LINE SMOOTH",
"83 673 OFFCURVE",
"103 662 OFFCURVE",
"103 637 CURVE SMOOTH",
"103 62 LINE SMOOTH",
"103 37 OFFCURVE",
"83 26 OFFCURVE",
"44 26 CURVE SMOOTH",
"16 26 LINE",
"16 0 LINE"
);
},
{
closed = 1;
nodes = (
"350 -159 OFFCURVE",
"368 -140 OFFCURVE",
"368 -112 CURVE SMOOTH",
"368 -84 OFFCURVE",
"350 -64 OFFCURVE",
"322 -64 CURVE SMOOTH",
"294 -64 OFFCURVE",
"275 -84 OFFCURVE",
"275 -112 CURVE SMOOTH",
"275 -140 OFFCURVE",
"294 -159 OFFCURVE",
"322 -159 CURVE SMOOTH"
);
},
{
closed = 1;
nodes = (
"455 251 LINE",
"455 485 LINE",
"431 485 LINE",
"427 436 OFFCURVE",
"424 388 OFFCURVE",
"379 388 CURVE SMOOTH",
"162 388 LINE",
"162 348 LINE",
"379 348 LINE SMOOTH",
"424 348 OFFCURVE",
"427 300 OFFCURVE",
"431 251 CURVE"
);
},
{
closed = 1;
nodes = (
"294 868 LINE SMOOTH",
"302 874 OFFCURVE",
"312 879 OFFCURVE",
"318 879 CURVE SMOOTH",
"324 879 OFFCURVE",
"332 874 OFFCURVE",
"341 868 CURVE",
"449 782 LINE",
"468 803 LINE",
"344 932 LINE",
"291 932 LINE",
"167 803 LINE",
"186 782 LINE"
);
}
);
};
components = (
{
name = E;
},
{
name = dotbelowcomb;
transform = "{1, 0, 0, 1, 175, 0}";
},
{
name = circumflexcomb;
transform = "{1, 0, 0, 1, 120, 190}";
}
);
layerId = "0A0B3C42-2553-4A38-A2DF-85B7A92D388E";
width = 500;
}
);
note = Ecircumflexdotbelow;
unicode = 1EC6;
},
{
glyphname = Ecircumflexgrave;
lastChange = "2018-03-07 08:14:48 +0000";
layers = (
{
background = {
paths = (
{
closed = 1;
nodes = (
"554 0 LINE",
"571 179 LINE",
"544 179 LINE",
"538 124 OFFCURVE",
"520 40 OFFCURVE",
"456 40 CURVE SMOOTH",
"201 40 LINE",
"201 659 LINE",
"441 659 LINE SMOOTH",
"516 659 OFFCURVE",
"525 567 OFFCURVE",
"528 527 CURVE",
"555 527 LINE",
"555 700 LINE",
"16 700 LINE",
"16 673 LINE",
"44 673 LINE SMOOTH",
"83 673 OFFCURVE",
"103 662 OFFCURVE",
"103 637 CURVE SMOOTH",
"103 62 LINE SMOOTH",
"103 37 OFFCURVE",
"83 26 OFFCURVE",
"44 26 CURVE SMOOTH",
"16 26 LINE",
"16 0 LINE"
);
},
{
closed = 1;
nodes = (
"455 251 LINE",
"455 485 LINE",
"431 485 LINE",
"427 436 OFFCURVE",
"424 388 OFFCURVE",
"379 388 CURVE SMOOTH",
"162 388 LINE",
"162 348 LINE",
"379 348 LINE SMOOTH",
"424 348 OFFCURVE",
"427 300 OFFCURVE",
"431 251 CURVE"
);
},
{
closed = 1;
nodes = (
"227 915 LINE",
"132 1008 LINE SMOOTH",
"122 1018 OFFCURVE",
"105 1034 OFFCURVE",
"85 1034 CURVE SMOOTH",
"63 1034 OFFCURVE",
"52 1017 OFFCURVE",
"52 1003 CURVE SMOOTH",
"52 988 OFFCURVE",
"65 972 OFFCURVE",
"88 960 CURVE SMOOTH",
"210 893 LINE"
);
},
{
closed = 1;
nodes = (
"290 862 LINE SMOOTH",
"300 870 OFFCURVE",
"310 878 OFFCURVE",
"318 878 CURVE SMOOTH",
"324 878 OFFCURVE",
"332 873 OFFCURVE",
"341 867 CURVE",
"447 781 LINE",
"466 803 LINE",
"344 932 LINE",
"293 932 LINE",
"171 803 LINE",
"189 781 LINE"
);
}
);
};
components = (
{
name = E;
},
{
name = circumflexcomb;
transform = "{1, 0, 0, 1, 100, 190}";
},
{
name = gravecomb;
transform = "{1, 0, 0, 1, 205, 400}";
}
);
layerId = "0B1DFD06-3317-40CA-B510-4969A0718C16";
width = 520;
},
{
background = {
paths = (
{
closed = 1;
nodes = (
"554 0 LINE",
"571 179 LINE",
"544 179 LINE",
"538 124 OFFCURVE",
"520 40 OFFCURVE",
"456 40 CURVE SMOOTH",
"201 40 LINE",
"201 659 LINE",
"441 659 LINE SMOOTH",
"516 659 OFFCURVE",
"525 567 OFFCURVE",
"528 527 CURVE",
"555 527 LINE",
"555 700 LINE",
"16 700 LINE",
"16 673 LINE",
"44 673 LINE SMOOTH",
"83 673 OFFCURVE",
"103 662 OFFCURVE",
"103 637 CURVE SMOOTH",
"103 62 LINE SMOOTH",
"103 37 OFFCURVE",
"83 26 OFFCURVE",
"44 26 CURVE SMOOTH",
"16 26 LINE",
"16 0 LINE"
);
},
{
closed = 1;
nodes = (
"455 251 LINE",
"455 485 LINE",
"431 485 LINE",
"427 436 OFFCURVE",
"424 388 OFFCURVE",
"379 388 CURVE SMOOTH",
"162 388 LINE",
"162 348 LINE",
"379 348 LINE SMOOTH",
"424 348 OFFCURVE",
"427 300 OFFCURVE",
"431 251 CURVE"
);
},
{
closed = 1;
nodes = (
"227 915 LINE",
"132 1008 LINE SMOOTH",
"122 1018 OFFCURVE",
"105 1034 OFFCURVE",
"85 1034 CURVE SMOOTH",
"63 1034 OFFCURVE",
"52 1017 OFFCURVE",
"52 1003 CURVE SMOOTH",
"52 988 OFFCURVE",
"65 972 OFFCURVE",
"88 960 CURVE SMOOTH",
"210 893 LINE"
);
},
{
closed = 1;
nodes = (
"290 862 LINE SMOOTH",
"300 870 OFFCURVE",
"310 878 OFFCURVE",
"318 878 CURVE SMOOTH",
"324 878 OFFCURVE",
"332 873 OFFCURVE",
"341 867 CURVE",
"447 781 LINE",
"466 803 LINE",
"344 932 LINE",
"293 932 LINE",
"171 803 LINE",
"189 781 LINE"
);
}
);
};
components = (
{
name = E;
},
{
name = circumflexcomb;
transform = "{1, 0, 0, 1, 120, 190}";
},
{
name = gravecomb;
transform = "{1, 0, 0, 1, 207, 380}";
}
);
layerId = "0A0B3C42-2553-4A38-A2DF-85B7A92D388E";
width = 500;
}
);
note = Ecircumflexgrave;
unicode = 1EC0;
},
{
glyphname = Ecircumflexhookabove;
lastChange = "2018-03-07 08:14:48 +0000";
layers = (
{
background = {
paths = (
{
closed = 1;
nodes = (
"554 0 LINE",
"571 179 LINE",
"544 179 LINE",
"538 124 OFFCURVE",
"520 40 OFFCURVE",
"456 40 CURVE SMOOTH",
"201 40 LINE",
"201 659 LINE",
"441 659 LINE SMOOTH",
"516 659 OFFCURVE",
"525 567 OFFCURVE",
"528 527 CURVE",
"555 527 LINE",
"555 700 LINE",
"16 700 LINE",
"16 673 LINE",
"44 673 LINE SMOOTH",
"83 673 OFFCURVE",
"103 662 OFFCURVE",
"103 637 CURVE SMOOTH",
"103 62 LINE SMOOTH",
"103 37 OFFCURVE",
"83 26 OFFCURVE",
"44 26 CURVE SMOOTH",
"16 26 LINE",
"16 0 LINE"
);
},
{
closed = 1;
nodes = (
"455 251 LINE",
"455 485 LINE",
"431 485 LINE",
"427 436 OFFCURVE",
"424 388 OFFCURVE",
"379 388 CURVE SMOOTH",
"162 388 LINE",
"162 348 LINE",
"379 348 LINE SMOOTH",
"424 348 OFFCURVE",
"427 300 OFFCURVE",
"431 251 CURVE"
);
},
{
closed = 1;
nodes = (
"286 858 LINE",
"297 868 OFFCURVE",
"309 878 OFFCURVE",
"318 878 CURVE SMOOTH",
"324 878 OFFCURVE",
"332 873 OFFCURVE",
"341 867 CURVE",
"447 781 LINE",
"466 803 LINE",
"344 932 LINE",
"293 932 LINE",
"171 803 LINE",
"189 781 LINE"
);
},
{
closed = 1;
nodes = (
"493 898 LINE",
"474 905 OFFCURVE",
"464 912 OFFCURVE",
"464 926 CURVE SMOOTH",
"464 954 OFFCURVE",
"544 965 OFFCURVE",
"544 1010 CURVE SMOOTH",
"544 1047 OFFCURVE",
"502 1063 OFFCURVE",
"460 1063 CURVE SMOOTH",
"429 1063 OFFCURVE",
"384 1053 OFFCURVE",
"384 1022 CURVE SMOOTH",
"384 1010 OFFCURVE",
"395 1001 OFFCURVE",
"405 1001 CURVE SMOOTH",
"434 1001 OFFCURVE",
"421 1040 OFFCURVE",
"464 1040 CURVE SMOOTH",
"483 1040 OFFCURVE",
"494 1028 OFFCURVE",
"494 1013 CURVE SMOOTH",
"494 973 OFFCURVE",
"421 965 OFFCURVE",
"421 925 CURVE SMOOTH",
"421 901 OFFCURVE",
"437 880 OFFCURVE",
"484 880 CURVE"
);
}
);
};
components = (
{
name = E;
},
{
name = circumflexcomb;
transform = "{1, 0, 0, 1, 100, 190}";
},
{
name = hookabovecomb;
transform = "{1, 0, 0, 1, 264, 400}";
}
);
layerId = "0B1DFD06-3317-40CA-B510-4969A0718C16";
width = 520;
},
{
background = {
paths = (
{
closed = 1;
nodes = (
"554 0 LINE",
"571 179 LINE",
"544 179 LINE",
"538 124 OFFCURVE",
"520 40 OFFCURVE",
"456 40 CURVE SMOOTH",
"201 40 LINE",
"201 659 LINE",
"441 659 LINE SMOOTH",
"516 659 OFFCURVE",
"525 567 OFFCURVE",
"528 527 CURVE",
"555 527 LINE",
"555 700 LINE",
"16 700 LINE",
"16 673 LINE",
"44 673 LINE SMOOTH",
"83 673 OFFCURVE",
"103 662 OFFCURVE",
"103 637 CURVE SMOOTH",
"103 62 LINE SMOOTH",
"103 37 OFFCURVE",
"83 26 OFFCURVE",
"44 26 CURVE SMOOTH",
"16 26 LINE",
"16 0 LINE"
);
},
{
closed = 1;
nodes = (
"455 251 LINE",
"455 485 LINE",
"431 485 LINE",
"427 436 OFFCURVE",
"424 388 OFFCURVE",
"379 388 CURVE SMOOTH",
"162 388 LINE",
"162 348 LINE",
"379 348 LINE SMOOTH",
"424 348 OFFCURVE",
"427 300 OFFCURVE",
"431 251 CURVE"
);
},
{
closed = 1;
nodes = (
"286 858 LINE",
"297 868 OFFCURVE",
"309 878 OFFCURVE",
"318 878 CURVE SMOOTH",
"324 878 OFFCURVE",
"332 873 OFFCURVE",
"341 867 CURVE",
"447 781 LINE",
"466 803 LINE",
"344 932 LINE",
"293 932 LINE",
"171 803 LINE",
"189 781 LINE"
);
},
{
closed = 1;
nodes = (
"493 898 LINE",
"474 905 OFFCURVE",
"464 912 OFFCURVE",
"464 926 CURVE SMOOTH",
"464 954 OFFCURVE",
"544 965 OFFCURVE",
"544 1010 CURVE SMOOTH",
"544 1047 OFFCURVE",
"502 1063 OFFCURVE",
"460 1063 CURVE SMOOTH",
"429 1063 OFFCURVE",
"384 1053 OFFCURVE",
"384 1022 CURVE SMOOTH",
"384 1010 OFFCURVE",
"395 1001 OFFCURVE",
"405 1001 CURVE SMOOTH",
"434 1001 OFFCURVE",
"421 1040 OFFCURVE",
"464 1040 CURVE SMOOTH",
"483 1040 OFFCURVE",
"494 1028 OFFCURVE",
"494 1013 CURVE SMOOTH",
"494 973 OFFCURVE",
"421 965 OFFCURVE",
"421 925 CURVE SMOOTH",
"421 901 OFFCURVE",
"437 880 OFFCURVE",
"484 880 CURVE"
);
}
);
};
components = (
{
name = E;
},
{
name = circumflexcomb;
transform = "{1, 0, 0, 1, 120, 190}";
},
{
name = hookabovecomb;
transform = "{1, 0, 0, 1, 232, 380}";
}
);
layerId = "0A0B3C42-2553-4A38-A2DF-85B7A92D388E";
width = 500;
}
);
note = Ecircumflexhookabove;
unicode = 1EC2;
},
{
glyphname = Ecircumflextilde;
lastChange = "2018-03-07 08:14:48 +0000";
layers = (
{
background = {
paths = (
{
closed = 1;
nodes = (
"554 0 LINE",
"571 179 LINE",
"544 179 LINE",
"538 124 OFFCURVE",
"520 40 OFFCURVE",
"456 40 CURVE SMOOTH",
"201 40 LINE",
"201 659 LINE",
"441 659 LINE SMOOTH",
"516 659 OFFCURVE",
"525 567 OFFCURVE",
"528 527 CURVE",
"555 527 LINE",
"555 700 LINE",
"16 700 LINE",
"16 673 LINE",
"44 673 LINE SMOOTH",
"83 673 OFFCURVE",
"103 662 OFFCURVE",
"103 637 CURVE SMOOTH",
"103 62 LINE SMOOTH",
"103 37 OFFCURVE",
"83 26 OFFCURVE",
"44 26 CURVE SMOOTH",
"16 26 LINE",
"16 0 LINE"
);
},
{
closed = 1;
nodes = (
"455 251 LINE",
"455 485 LINE",
"431 485 LINE",
"427 436 OFFCURVE",
"424 388 OFFCURVE",
"379 388 CURVE SMOOTH",
"162 388 LINE",
"162 348 LINE",
"379 348 LINE SMOOTH",
"424 348 OFFCURVE",
"427 300 OFFCURVE",
"431 251 CURVE"
);
},
{
closed = 1;
nodes = (
"290 862 LINE SMOOTH",
"300 870 OFFCURVE",
"310 878 OFFCURVE",
"318 878 CURVE SMOOTH",
"324 878 OFFCURVE",
"332 873 OFFCURVE",
"341 867 CURVE",
"447 781 LINE",
"466 803 LINE",
"344 932 LINE",
"293 932 LINE",
"171 803 LINE",
"189 781 LINE"
);
},
{
closed = 1;
nodes = (
"193 997 OFFCURVE",
"211 1018 OFFCURVE",
"242 1018 CURVE SMOOTH",
"291 1018 OFFCURVE",
"338 964 OFFCURVE",
"387 964 CURVE SMOOTH",
"440 964 OFFCURVE",
"469 1012 OFFCURVE",
"481 1063 CURVE",
"460 1075 LINE",
"447 1035 OFFCURVE",
"431 1012 OFFCURVE",
"398 1012 CURVE SMOOTH",
"351 1012 OFFCURVE",
"302 1065 OFFCURVE",
"253 1065 CURVE SMOOTH",
"202 1065 OFFCURVE",
"170 1021 OFFCURVE",
"160 970 CURVE",
"180 958 LINE"
);
}
);
};
components = (
{
name = E;
},
{
name = circumflexcomb;
transform = "{1, 0, 0, 1, 100, 190}";
},
{
name = tildecomb;
transform = "{1, 0, 0, 1, 126, 400}";
}
);
layerId = "0B1DFD06-3317-40CA-B510-4969A0718C16";
width = 520;
},
{
background = {
paths = (
{
closed = 1;
nodes = (
"554 0 LINE",
"571 179 LINE",
"544 179 LINE",
"538 124 OFFCURVE",
"520 40 OFFCURVE",
"456 40 CURVE SMOOTH",
"201 40 LINE",
"201 659 LINE",
"441 659 LINE SMOOTH",
"516 659 OFFCURVE",
"525 567 OFFCURVE",
"528 527 CURVE",
"555 527 LINE",
"555 700 LINE",
"16 700 LINE",
"16 673 LINE",
"44 673 LINE SMOOTH",
"83 673 OFFCURVE",
"103 662 OFFCURVE",
"103 637 CURVE SMOOTH",
"103 62 LINE SMOOTH",
"103 37 OFFCURVE",
"83 26 OFFCURVE",
"44 26 CURVE SMOOTH",
"16 26 LINE",
"16 0 LINE"
);
},
{
closed = 1;
nodes = (
"455 251 LINE",
"455 485 LINE",
"431 485 LINE",
"427 436 OFFCURVE",
"424 388 OFFCURVE",
"379 388 CURVE SMOOTH",
"162 388 LINE",
"162 348 LINE",
"379 348 LINE SMOOTH",
"424 348 OFFCURVE",
"427 300 OFFCURVE",
"431 251 CURVE"
);
},
{
closed = 1;
nodes = (
"290 862 LINE SMOOTH",
"300 870 OFFCURVE",
"310 878 OFFCURVE",
"318 878 CURVE SMOOTH",
"324 878 OFFCURVE",
"332 873 OFFCURVE",
"341 867 CURVE",
"447 781 LINE",
"466 803 LINE",
"344 932 LINE",
"293 932 LINE",
"171 803 LINE",
"189 781 LINE"
);
},
{
closed = 1;
nodes = (
"193 997 OFFCURVE",
"211 1018 OFFCURVE",
"242 1018 CURVE SMOOTH",
"291 1018 OFFCURVE",
"338 964 OFFCURVE",
"387 964 CURVE SMOOTH",
"440 964 OFFCURVE",
"469 1012 OFFCURVE",
"481 1063 CURVE",
"460 1075 LINE",
"447 1035 OFFCURVE",
"431 1012 OFFCURVE",
"398 1012 CURVE SMOOTH",
"351 1012 OFFCURVE",
"302 1065 OFFCURVE",
"253 1065 CURVE SMOOTH",
"202 1065 OFFCURVE",
"170 1021 OFFCURVE",
"160 970 CURVE",
"180 958 LINE"
);
}
);
};
components = (
{
name = E;
},
{
name = circumflexcomb;
transform = "{1, 0, 0, 1, 120, 190}";
},
{
name = tildecomb;
transform = "{1, 0, 0, 1, 133, 380}";
}
);
layerId = "0A0B3C42-2553-4A38-A2DF-85B7A92D388E";
width = 500;
}
);
note = Ecircumflextilde;
unicode = 1EC4;
},
{
glyphname = Edieresis;
lastChange = "2018-03-07 08:14:48 +0000";
layers = (
{
background = {
paths = (
{
closed = 1;
nodes = (
"554 0 LINE",
"571 179 LINE",
"544 179 LINE",
"538 124 OFFCURVE",
"520 40 OFFCURVE",
"456 40 CURVE SMOOTH",
"201 40 LINE",
"201 659 LINE",
"441 659 LINE SMOOTH",
"516 659 OFFCURVE",
"525 567 OFFCURVE",
"528 527 CURVE",
"555 527 LINE",
"555 700 LINE",
"16 700 LINE",
"16 673 LINE",
"44 673 LINE SMOOTH",
"83 673 OFFCURVE",
"103 662 OFFCURVE",
"103 637 CURVE SMOOTH",
"103 62 LINE SMOOTH",
"103 37 OFFCURVE",
"83 26 OFFCURVE",
"44 26 CURVE SMOOTH",
"16 26 LINE",
"16 0 LINE"
);
},
{
closed = 1;
nodes = (
"455 251 LINE",
"455 485 LINE",
"431 485 LINE",
"427 436 OFFCURVE",
"424 388 OFFCURVE",
"379 388 CURVE SMOOTH",
"162 388 LINE",
"162 348 LINE",
"379 348 LINE SMOOTH",
"424 348 OFFCURVE",
"427 300 OFFCURVE",
"431 251 CURVE"
);
},
{
closed = 1;
nodes = (
"254 781 OFFCURVE",
"272 800 OFFCURVE",
"272 827 CURVE SMOOTH",
"272 855 OFFCURVE",
"254 875 OFFCURVE",
"225 875 CURVE SMOOTH",
"197 875 OFFCURVE",
"179 855 OFFCURVE",
"179 827 CURVE SMOOTH",
"179 800 OFFCURVE",
"197 781 OFFCURVE",
"225 781 CURVE SMOOTH"
);
},
{
closed = 1;
nodes = (
"470 781 OFFCURVE",
"488 800 OFFCURVE",
"488 827 CURVE SMOOTH",
"488 855 OFFCURVE",
"470 875 OFFCURVE",
"441 875 CURVE SMOOTH",
"412 875 OFFCURVE",
"394 855 OFFCURVE",
"394 827 CURVE SMOOTH",
"394 800 OFFCURVE",
"412 781 OFFCURVE",
"441 781 CURVE SMOOTH"
);
}
);
};
components = (
{
name = E;
},
{
name = dieresiscomb;
transform = "{1, 0, 0, 1, 124, 190}";
}
);
layerId = "0B1DFD06-3317-40CA-B510-4969A0718C16";
width = 520;
},
{
background = {
paths = (
{
closed = 1;
nodes = (
"554 0 LINE",
"571 179 LINE",
"544 179 LINE",
"538 124 OFFCURVE",
"520 40 OFFCURVE",
"456 40 CURVE SMOOTH",
"201 40 LINE",
"201 659 LINE",
"441 659 LINE SMOOTH",
"516 659 OFFCURVE",
"525 567 OFFCURVE",
"528 527 CURVE",
"555 527 LINE",
"555 700 LINE",
"16 700 LINE",
"16 673 LINE",
"44 673 LINE SMOOTH",
"83 673 OFFCURVE",
"103 662 OFFCURVE",
"103 637 CURVE SMOOTH",
"103 62 LINE SMOOTH",
"103 37 OFFCURVE",
"83 26 OFFCURVE",
"44 26 CURVE SMOOTH",
"16 26 LINE",
"16 0 LINE"
);
},
{
closed = 1;
nodes = (
"455 251 LINE",
"455 485 LINE",
"431 485 LINE",
"427 436 OFFCURVE",
"424 388 OFFCURVE",
"379 388 CURVE SMOOTH",
"162 388 LINE",
"162 348 LINE",
"379 348 LINE SMOOTH",
"424 348 OFFCURVE",
"427 300 OFFCURVE",
"431 251 CURVE"
);
},
{
closed = 1;
nodes = (
"254 781 OFFCURVE",
"272 800 OFFCURVE",
"272 827 CURVE SMOOTH",
"272 855 OFFCURVE",
"254 875 OFFCURVE",
"225 875 CURVE SMOOTH",
"197 875 OFFCURVE",
"179 855 OFFCURVE",
"179 827 CURVE SMOOTH",
"179 800 OFFCURVE",
"197 781 OFFCURVE",
"225 781 CURVE SMOOTH"
);
},
{
closed = 1;
nodes = (
"470 781 OFFCURVE",
"488 800 OFFCURVE",
"488 827 CURVE SMOOTH",
"488 855 OFFCURVE",
"470 875 OFFCURVE",
"441 875 CURVE SMOOTH",
"412 875 OFFCURVE",
"394 855 OFFCURVE",
"394 827 CURVE SMOOTH",
"394 800 OFFCURVE",
"412 781 OFFCURVE",
"441 781 CURVE SMOOTH"
);
}
);
};
components = (
{
name = E;
},
{
name = dieresiscomb;
transform = "{1, 0, 0, 1, 138, 190}";
}
);
layerId = "0A0B3C42-2553-4A38-A2DF-85B7A92D388E";
width = 500;
}
);
note = Edieresis;
unicode = 00CB;
},
{
glyphname = Edotaccent;
lastChange = "2018-03-07 08:14:48 +0000";
layers = (
{
background = {
paths = (
{
closed = 1;
nodes = (
"554 0 LINE",
"571 179 LINE",
"544 179 LINE",
"538 124 OFFCURVE",
"520 40 OFFCURVE",
"456 40 CURVE SMOOTH",
"201 40 LINE",
"201 659 LINE",
"441 659 LINE SMOOTH",
"516 659 OFFCURVE",
"525 567 OFFCURVE",
"528 527 CURVE",
"555 527 LINE",
"555 700 LINE",
"16 700 LINE",
"16 673 LINE",
"44 673 LINE SMOOTH",
"83 673 OFFCURVE",
"103 662 OFFCURVE",
"103 637 CURVE SMOOTH",
"103 62 LINE SMOOTH",
"103 37 OFFCURVE",
"83 26 OFFCURVE",
"44 26 CURVE SMOOTH",
"16 26 LINE",
"16 0 LINE"
);
},
{
closed = 1;
nodes = (
"455 251 LINE",
"455 485 LINE",
"431 485 LINE",
"427 436 OFFCURVE",
"424 388 OFFCURVE",
"379 388 CURVE SMOOTH",
"162 388 LINE",
"162 348 LINE",
"379 348 LINE SMOOTH",
"424 348 OFFCURVE",
"427 300 OFFCURVE",
"431 251 CURVE"
);
},
{
closed = 1;
nodes = (
"362 765 OFFCURVE",
"380 784 OFFCURVE",
"380 811 CURVE SMOOTH",
"380 839 OFFCURVE",
"362 858 OFFCURVE",
"334 858 CURVE SMOOTH",
"305 858 OFFCURVE",
"287 839 OFFCURVE",
"287 811 CURVE SMOOTH",
"287 784 OFFCURVE",
"305 765 OFFCURVE",
"334 765 CURVE SMOOTH"
);
}
);
};
components = (
{
name = E;
},
{
name = dotaccentcomb;
transform = "{1, 0, 0, 1, 198, 190}";
}
);
layerId = "0B1DFD06-3317-40CA-B510-4969A0718C16";
width = 520;
},
{
background = {
paths = (
{
closed = 1;
nodes = (
"554 0 LINE",
"571 179 LINE",
"544 179 LINE",
"538 124 OFFCURVE",
"520 40 OFFCURVE",
"456 40 CURVE SMOOTH",
"201 40 LINE",
"201 659 LINE",
"441 659 LINE SMOOTH",
"516 659 OFFCURVE",
"525 567 OFFCURVE",
"528 527 CURVE",
"555 527 LINE",
"555 700 LINE",
"16 700 LINE",
"16 673 LINE",
"44 673 LINE SMOOTH",
"83 673 OFFCURVE",
"103 662 OFFCURVE",
"103 637 CURVE SMOOTH",
"103 62 LINE SMOOTH",
"103 37 OFFCURVE",
"83 26 OFFCURVE",
"44 26 CURVE SMOOTH",
"16 26 LINE",
"16 0 LINE"
);
},
{
closed = 1;
nodes = (
"455 251 LINE",
"455 485 LINE",
"431 485 LINE",
"427 436 OFFCURVE",
"424 388 OFFCURVE",
"379 388 CURVE SMOOTH",
"162 388 LINE",
"162 348 LINE",
"379 348 LINE SMOOTH",
"424 348 OFFCURVE",
"427 300 OFFCURVE",
"431 251 CURVE"
);
},
{
closed = 1;
nodes = (
"362 765 OFFCURVE",
"380 784 OFFCURVE",
"380 811 CURVE SMOOTH",
"380 839 OFFCURVE",
"362 858 OFFCURVE",
"334 858 CURVE SMOOTH",
"305 858 OFFCURVE",
"287 839 OFFCURVE",
"287 811 CURVE SMOOTH",
"287 784 OFFCURVE",
"305 765 OFFCURVE",
"334 765 CURVE SMOOTH"
);
}
);
};
components = (
{
name = E;
},
{
name = dotaccentcomb;
transform = "{1, 0, 0, 1, 205, 190}";
}
);
layerId = "0A0B3C42-2553-4A38-A2DF-85B7A92D388E";
width = 500;
}
);
note = Edotaccent;
unicode = 0116;
},
{
glyphname = Edotbelow;
lastChange = "2018-03-07 08:14:48 +0000";
layers = (
{
background = {
paths = (
{
closed = 1;
nodes = (
"554 0 LINE",
"571 179 LINE",
"544 179 LINE",
"538 124 OFFCURVE",
"520 40 OFFCURVE",
"456 40 CURVE SMOOTH",
"201 40 LINE",
"201 659 LINE",
"441 659 LINE SMOOTH",
"516 659 OFFCURVE",
"525 567 OFFCURVE",
"528 527 CURVE",
"555 527 LINE",
"555 700 LINE",
"16 700 LINE",
"16 673 LINE",
"44 673 LINE SMOOTH",
"83 673 OFFCURVE",
"103 662 OFFCURVE",
"103 637 CURVE SMOOTH",
"103 62 LINE SMOOTH",
"103 37 OFFCURVE",
"83 26 OFFCURVE",
"44 26 CURVE SMOOTH",
"16 26 LINE",
"16 0 LINE"
);
},
{
closed = 1;
nodes = (
"343 -159 OFFCURVE",
"361 -140 OFFCURVE",
"361 -112 CURVE SMOOTH",
"361 -84 OFFCURVE",
"343 -64 OFFCURVE",
"315 -64 CURVE SMOOTH",
"287 -64 OFFCURVE",
"268 -84 OFFCURVE",
"268 -112 CURVE SMOOTH",
"268 -140 OFFCURVE",
"287 -159 OFFCURVE",
"315 -159 CURVE SMOOTH"
);
},
{
closed = 1;
nodes = (
"455 251 LINE",
"455 485 LINE",
"431 485 LINE",
"427 436 OFFCURVE",
"424 388 OFFCURVE",
"379 388 CURVE SMOOTH",
"162 388 LINE",
"162 348 LINE",
"379 348 LINE SMOOTH",
"424 348 OFFCURVE",
"427 300 OFFCURVE",
"431 251 CURVE"
);
}
);
};
components = (
{
name = E;
},
{
name = dotbelowcomb;
transform = "{1, 0, 0, 1, 168, 0}";
}
);
layerId = "0B1DFD06-3317-40CA-B510-4969A0718C16";
width = 520;
},
{
background = {
paths = (
{
closed = 1;
nodes = (
"554 0 LINE",
"571 179 LINE",
"544 179 LINE",
"538 124 OFFCURVE",
"520 40 OFFCURVE",
"456 40 CURVE SMOOTH",
"201 40 LINE",
"201 659 LINE",
"441 659 LINE SMOOTH",
"516 659 OFFCURVE",
"525 567 OFFCURVE",
"528 527 CURVE",
"555 527 LINE",
"555 700 LINE",
"16 700 LINE",
"16 673 LINE",
"44 673 LINE SMOOTH",
"83 673 OFFCURVE",
"103 662 OFFCURVE",
"103 637 CURVE SMOOTH",
"103 62 LINE SMOOTH",
"103 37 OFFCURVE",
"83 26 OFFCURVE",
"44 26 CURVE SMOOTH",
"16 26 LINE",
"16 0 LINE"
);
},
{
closed = 1;
nodes = (
"343 -159 OFFCURVE",
"361 -140 OFFCURVE",
"361 -112 CURVE SMOOTH",
"361 -84 OFFCURVE",
"343 -64 OFFCURVE",
"315 -64 CURVE SMOOTH",
"287 -64 OFFCURVE",
"268 -84 OFFCURVE",
"268 -112 CURVE SMOOTH",
"268 -140 OFFCURVE",
"287 -159 OFFCURVE",
"315 -159 CURVE SMOOTH"
);
},
{
closed = 1;
nodes = (
"455 251 LINE",
"455 485 LINE",
"431 485 LINE",
"427 436 OFFCURVE",
"424 388 OFFCURVE",
"379 388 CURVE SMOOTH",
"162 388 LINE",
"162 348 LINE",
"379 348 LINE SMOOTH",
"424 348 OFFCURVE",
"427 300 OFFCURVE",
"431 251 CURVE"
);
}
);
};
components = (
{
name = E;
},
{
name = dotbelowcomb;
transform = "{1, 0, 0, 1, 175, 0}";
}
);
layerId = "0A0B3C42-2553-4A38-A2DF-85B7A92D388E";
width = 500;
}
);
note = Edotbelow;
unicode = 1EB8;
},
{
glyphname = Egrave;
lastChange = "2018-03-07 08:14:48 +0000";
layers = (
{
background = {
paths = (
{
closed = 1;
nodes = (
"554 0 LINE",
"571 179 LINE",
"544 179 LINE",
"538 124 OFFCURVE",
"520 40 OFFCURVE",
"456 40 CURVE SMOOTH",
"201 40 LINE",
"201 659 LINE",
"441 659 LINE SMOOTH",
"516 659 OFFCURVE",
"525 567 OFFCURVE",
"528 527 CURVE",
"555 527 LINE",
"555 700 LINE",
"16 700 LINE",
"16 673 LINE",
"44 673 LINE SMOOTH",
"83 673 OFFCURVE",
"103 662 OFFCURVE",
"103 637 CURVE SMOOTH",
"103 62 LINE SMOOTH",
"103 37 OFFCURVE",
"83 26 OFFCURVE",
"44 26 CURVE SMOOTH",
"16 26 LINE",
"16 0 LINE"
);
},
{
closed = 1;
nodes = (
"455 251 LINE",
"455 485 LINE",
"431 485 LINE",
"427 436 OFFCURVE",
"424 388 OFFCURVE",
"379 388 CURVE SMOOTH",
"162 388 LINE",
"162 348 LINE",
"379 348 LINE SMOOTH",
"424 348 OFFCURVE",
"427 300 OFFCURVE",
"431 251 CURVE"
);
},
{
closed = 1;
nodes = (
"425 807 LINE",
"310 913 LINE",
"301 922 OFFCURVE",
"285 937 OFFCURVE",
"265 937 CURVE SMOOTH",
"245 937 OFFCURVE",
"233 924 OFFCURVE",
"233 908 CURVE SMOOTH",
"233 890 OFFCURVE",
"245 876 OFFCURVE",
"264 865 CURVE SMOOTH",
"407 782 LINE"
);
}
);
};
components = (
{
name = E;
},
{
name = gravecomb;
transform = "{1, 0, 0, 1, 172, 190}";
}
);
layerId = "0B1DFD06-3317-40CA-B510-4969A0718C16";
width = 520;
},
{
background = {
paths = (
{
closed = 1;
nodes = (
"554 0 LINE",
"571 179 LINE",
"544 179 LINE",
"538 124 OFFCURVE",
"520 40 OFFCURVE",
"456 40 CURVE SMOOTH",
"201 40 LINE",
"201 659 LINE",
"441 659 LINE SMOOTH",
"516 659 OFFCURVE",
"525 567 OFFCURVE",
"528 527 CURVE",
"555 527 LINE",
"555 700 LINE",
"16 700 LINE",
"16 673 LINE",
"44 673 LINE SMOOTH",
"83 673 OFFCURVE",
"103 662 OFFCURVE",
"103 637 CURVE SMOOTH",
"103 62 LINE SMOOTH",
"103 37 OFFCURVE",
"83 26 OFFCURVE",
"44 26 CURVE SMOOTH",
"16 26 LINE",
"16 0 LINE"
);
},
{
closed = 1;
nodes = (
"455 251 LINE",
"455 485 LINE",
"431 485 LINE",
"427 436 OFFCURVE",
"424 388 OFFCURVE",
"379 388 CURVE SMOOTH",
"162 388 LINE",
"162 348 LINE",
"379 348 LINE SMOOTH",
"424 348 OFFCURVE",
"427 300 OFFCURVE",
"431 251 CURVE"
);
},
{
closed = 1;
nodes = (
"425 807 LINE",
"310 913 LINE",
"301 922 OFFCURVE",
"285 937 OFFCURVE",
"265 937 CURVE SMOOTH",
"245 937 OFFCURVE",
"233 924 OFFCURVE",
"233 908 CURVE SMOOTH",
"233 890 OFFCURVE",
"245 876 OFFCURVE",
"264 865 CURVE SMOOTH",
"407 782 LINE"
);
}
);
};
components = (
{
name = E;
},
{
name = gravecomb;
transform = "{1, 0, 0, 1, 177, 190}";
}
);
layerId = "0A0B3C42-2553-4A38-A2DF-85B7A92D388E";
width = 500;
}
);
note = Egrave;
unicode = 00C8;
},
{
glyphname = Ehookabove;
lastChange = "2018-03-07 08:14:48 +0000";
layers = (
{
background = {
paths = (
{
closed = 1;
nodes = (
"554 0 LINE",
"571 179 LINE",
"544 179 LINE",
"538 124 OFFCURVE",
"520 40 OFFCURVE",
"456 40 CURVE SMOOTH",
"201 40 LINE",
"201 659 LINE",
"441 659 LINE SMOOTH",
"516 659 OFFCURVE",
"525 567 OFFCURVE",
"528 527 CURVE",
"555 527 LINE",
"555 700 LINE",
"16 700 LINE",
"16 673 LINE",
"44 673 LINE SMOOTH",
"83 673 OFFCURVE",
"103 662 OFFCURVE",
"103 637 CURVE SMOOTH",
"103 62 LINE SMOOTH",
"103 37 OFFCURVE",
"83 26 OFFCURVE",
"44 26 CURVE SMOOTH",
"16 26 LINE",
"16 0 LINE"
);
},
{
closed = 1;
nodes = (
"455 251 LINE",
"455 485 LINE",
"431 485 LINE",
"427 436 OFFCURVE",
"424 388 OFFCURVE",
"379 388 CURVE SMOOTH",
"162 388 LINE",
"162 348 LINE",
"379 348 LINE SMOOTH",
"424 348 OFFCURVE",
"427 300 OFFCURVE",
"431 251 CURVE"
);
},
{
closed = 1;
nodes = (
"367 798 LINE",
"348 805 OFFCURVE",
"336 811 OFFCURVE",
"336 828 CURVE SMOOTH",
"336 861 OFFCURVE",
"425 876 OFFCURVE",
"425 927 CURVE SMOOTH",
"425 969 OFFCURVE",
"389 991 OFFCURVE",
"336 991 CURVE SMOOTH",
"289 991 OFFCURVE",
"248 974 OFFCURVE",
"248 940 CURVE SMOOTH",
"248 923 OFFCURVE",
"256 915 OFFCURVE",
"271 915 CURVE SMOOTH",
"294 915 OFFCURVE",
"296 934 OFFCURVE",
"299 942 CURVE SMOOTH",
"304 956 OFFCURVE",
"321 962 OFFCURVE",
"337 962 CURVE SMOOTH",
"358 962 OFFCURVE",
"371 947 OFFCURVE",
"371 930 CURVE SMOOTH",
"371 885 OFFCURVE",
"289 874 OFFCURVE",
"289 828 CURVE SMOOTH",
"289 801 OFFCURVE",
"307 778 OFFCURVE",
"358 778 CURVE"
);
}
);
};
components = (
{
name = E;
},
{
name = hookabovecomb;
transform = "{1, 0, 0, 1, 231, 190}";
}
);
layerId = "0B1DFD06-3317-40CA-B510-4969A0718C16";
width = 520;
},
{
background = {
paths = (
{
closed = 1;
nodes = (
"554 0 LINE",
"571 179 LINE",
"544 179 LINE",
"538 124 OFFCURVE",
"520 40 OFFCURVE",
"456 40 CURVE SMOOTH",
"201 40 LINE",
"201 659 LINE",
"441 659 LINE SMOOTH",
"516 659 OFFCURVE",
"525 567 OFFCURVE",
"528 527 CURVE",
"555 527 LINE",
"555 700 LINE",
"16 700 LINE",
"16 673 LINE",
"44 673 LINE SMOOTH",
"83 673 OFFCURVE",
"103 662 OFFCURVE",
"103 637 CURVE SMOOTH",
"103 62 LINE SMOOTH",
"103 37 OFFCURVE",
"83 26 OFFCURVE",
"44 26 CURVE SMOOTH",
"16 26 LINE",
"16 0 LINE"
);
},
{
closed = 1;
nodes = (
"455 251 LINE",
"455 485 LINE",
"431 485 LINE",
"427 436 OFFCURVE",
"424 388 OFFCURVE",
"379 388 CURVE SMOOTH",
"162 388 LINE",
"162 348 LINE",
"379 348 LINE SMOOTH",
"424 348 OFFCURVE",
"427 300 OFFCURVE",
"431 251 CURVE"
);
},
{
closed = 1;
nodes = (
"367 798 LINE",
"348 805 OFFCURVE",
"336 811 OFFCURVE",
"336 828 CURVE SMOOTH",
"336 861 OFFCURVE",
"425 876 OFFCURVE",
"425 927 CURVE SMOOTH",
"425 969 OFFCURVE",
"389 991 OFFCURVE",
"336 991 CURVE SMOOTH",
"289 991 OFFCURVE",
"248 974 OFFCURVE",
"248 940 CURVE SMOOTH",
"248 923 OFFCURVE",
"256 915 OFFCURVE",
"271 915 CURVE SMOOTH",
"294 915 OFFCURVE",
"296 934 OFFCURVE",
"299 942 CURVE SMOOTH",
"304 956 OFFCURVE",
"321 962 OFFCURVE",
"337 962 CURVE SMOOTH",
"358 962 OFFCURVE",
"371 947 OFFCURVE",
"371 930 CURVE SMOOTH",
"371 885 OFFCURVE",
"289 874 OFFCURVE",
"289 828 CURVE SMOOTH",
"289 801 OFFCURVE",
"307 778 OFFCURVE",
"358 778 CURVE"
);
}
);
};
components = (
{
name = E;
},
{
name = hookabovecomb;
transform = "{1, 0, 0, 1, 202, 190}";
}
);
layerId = "0A0B3C42-2553-4A38-A2DF-85B7A92D388E";
width = 500;
}
);
note = Ehookabove;
unicode = 1EBA;
},
{
glyphname = Emacron;
lastChange = "2018-03-07 08:14:48 +0000";
layers = (
{
background = {
paths = (
{
closed = 1;
nodes = (
"554 0 LINE",
"571 179 LINE",
"544 179 LINE",
"538 124 OFFCURVE",
"520 40 OFFCURVE",
"456 40 CURVE SMOOTH",
"201 40 LINE",
"201 659 LINE",
"441 659 LINE SMOOTH",
"516 659 OFFCURVE",
"525 567 OFFCURVE",
"528 527 CURVE",
"555 527 LINE",
"555 700 LINE",
"16 700 LINE",
"16 673 LINE",
"44 673 LINE SMOOTH",
"83 673 OFFCURVE",
"103 662 OFFCURVE",
"103 637 CURVE SMOOTH",
"103 62 LINE SMOOTH",
"103 37 OFFCURVE",
"83 26 OFFCURVE",
"44 26 CURVE SMOOTH",
"16 26 LINE",
"16 0 LINE"
);
},
{
closed = 1;
nodes = (
"455 251 LINE",
"455 485 LINE",
"431 485 LINE",
"427 436 OFFCURVE",
"424 388 OFFCURVE",
"379 388 CURVE SMOOTH",
"162 388 LINE",
"162 348 LINE",
"379 348 LINE SMOOTH",
"424 348 OFFCURVE",
"427 300 OFFCURVE",
"431 251 CURVE"
);
},
{
closed = 1;
nodes = (
"495 782 LINE",
"495 824 LINE",
"162 824 LINE",
"162 782 LINE"
);
}
);
};
components = (
{
name = E;
},
{
name = macroncomb;
transform = "{1, 0, 0, 1, 88, 190}";
}
);
layerId = "0B1DFD06-3317-40CA-B510-4969A0718C16";
width = 520;
},
{
background = {
paths = (
{
closed = 1;
nodes = (
"554 0 LINE",
"571 179 LINE",
"544 179 LINE",
"538 124 OFFCURVE",
"520 40 OFFCURVE",
"456 40 CURVE SMOOTH",
"201 40 LINE",
"201 659 LINE",
"441 659 LINE SMOOTH",
"516 659 OFFCURVE",
"525 567 OFFCURVE",
"528 527 CURVE",
"555 527 LINE",
"555 700 LINE",
"16 700 LINE",
"16 673 LINE",
"44 673 LINE SMOOTH",
"83 673 OFFCURVE",
"103 662 OFFCURVE",
"103 637 CURVE SMOOTH",
"103 62 LINE SMOOTH",
"103 37 OFFCURVE",
"83 26 OFFCURVE",
"44 26 CURVE SMOOTH",
"16 26 LINE",
"16 0 LINE"
);
},
{
closed = 1;
nodes = (
"455 251 LINE",
"455 485 LINE",
"431 485 LINE",
"427 436 OFFCURVE",
"424 388 OFFCURVE",
"379 388 CURVE SMOOTH",
"162 388 LINE",
"162 348 LINE",
"379 348 LINE SMOOTH",
"424 348 OFFCURVE",
"427 300 OFFCURVE",
"431 251 CURVE"
);
},
{
closed = 1;
nodes = (
"495 782 LINE",
"495 824 LINE",
"162 824 LINE",
"162 782 LINE"
);
}
);
};
components = (
{
name = E;
},
{
name = macroncomb;
transform = "{1, 0, 0, 1, 98, 190}";
}
);
layerId = "0A0B3C42-2553-4A38-A2DF-85B7A92D388E";
width = 500;
}
);
note = Emacron;
unicode = 0112;
},
{
glyphname = Eogonek;
lastChange = "2018-03-07 08:14:48 +0000";
layers = (
{
background = {
paths = (
{
closed = 1;
nodes = (
"554 0 LINE",
"571 179 LINE",
"544 179 LINE",
"538 124 OFFCURVE",
"520 40 OFFCURVE",
"456 40 CURVE SMOOTH",
"201 40 LINE",
"201 659 LINE",
"441 659 LINE SMOOTH",
"516 659 OFFCURVE",
"525 567 OFFCURVE",
"528 527 CURVE",
"555 527 LINE",
"555 700 LINE",
"16 700 LINE",
"16 673 LINE",
"44 673 LINE SMOOTH",
"83 673 OFFCURVE",
"103 662 OFFCURVE",
"103 637 CURVE SMOOTH",
"103 62 LINE SMOOTH",
"103 37 OFFCURVE",
"83 26 OFFCURVE",
"44 26 CURVE SMOOTH",
"16 26 LINE",
"16 0 LINE"
);
},
{
closed = 1;
nodes = (
"496 -196 OFFCURVE",
"524 -189 OFFCURVE",
"549 -172 CURVE",
"543 -152 LINE",
"527 -158 OFFCURVE",
"510 -162 OFFCURVE",
"497 -162 CURVE SMOOTH",
"464 -162 OFFCURVE",
"437 -146 OFFCURVE",
"437 -106 CURVE SMOOTH",
"437 -66 OFFCURVE",
"464 -26 OFFCURVE",
"510 4 CURVE",
"469 4 LINE",
"416 -22 OFFCURVE",
"376 -64 OFFCURVE",
"376 -114 CURVE SMOOTH",
"376 -147 OFFCURVE",
"395 -196 OFFCURVE",
"470 -196 CURVE SMOOTH"
);
},
{
closed = 1;
nodes = (
"455 251 LINE",
"455 485 LINE",
"431 485 LINE",
"427 436 OFFCURVE",
"424 388 OFFCURVE",
"379 388 CURVE SMOOTH",
"162 388 LINE",
"162 348 LINE",
"379 348 LINE SMOOTH",
"424 348 OFFCURVE",
"427 300 OFFCURVE",
"431 251 CURVE"
);
}
);
};
components = (
{
name = E;
},
{
name = ogonekcomb;
transform = "{1, 0, 0, 1, 320, 10}";
}
);
layerId = "0B1DFD06-3317-40CA-B510-4969A0718C16";
width = 520;
},
{
background = {
paths = (
{
closed = 1;
nodes = (
"554 0 LINE",
"571 179 LINE",
"544 179 LINE",
"538 124 OFFCURVE",
"520 40 OFFCURVE",
"456 40 CURVE SMOOTH",
"201 40 LINE",
"201 659 LINE",
"441 659 LINE SMOOTH",
"516 659 OFFCURVE",
"525 567 OFFCURVE",
"528 527 CURVE",
"555 527 LINE",
"555 700 LINE",
"16 700 LINE",
"16 673 LINE",
"44 673 LINE SMOOTH",
"83 673 OFFCURVE",
"103 662 OFFCURVE",
"103 637 CURVE SMOOTH",
"103 62 LINE SMOOTH",
"103 37 OFFCURVE",
"83 26 OFFCURVE",
"44 26 CURVE SMOOTH",
"16 26 LINE",
"16 0 LINE"
);
},
{
closed = 1;
nodes = (
"496 -196 OFFCURVE",
"524 -189 OFFCURVE",
"549 -172 CURVE",
"543 -152 LINE",
"527 -158 OFFCURVE",
"510 -162 OFFCURVE",
"497 -162 CURVE SMOOTH",
"464 -162 OFFCURVE",
"437 -146 OFFCURVE",
"437 -106 CURVE SMOOTH",
"437 -66 OFFCURVE",
"464 -26 OFFCURVE",
"510 4 CURVE",
"469 4 LINE",
"416 -22 OFFCURVE",
"376 -64 OFFCURVE",
"376 -114 CURVE SMOOTH",
"376 -147 OFFCURVE",
"395 -196 OFFCURVE",
"470 -196 CURVE SMOOTH"
);
},
{
closed = 1;
nodes = (
"455 251 LINE",
"455 485 LINE",
"431 485 LINE",
"427 436 OFFCURVE",
"424 388 OFFCURVE",
"379 388 CURVE SMOOTH",
"162 388 LINE",
"162 348 LINE",
"379 348 LINE SMOOTH",
"424 348 OFFCURVE",
"427 300 OFFCURVE",
"431 251 CURVE"
);
}
);
};
components = (
{
name = E;
},
{
name = ogonekcomb;
transform = "{1, 0, 0, 1, 312, 10}";
}
);
layerId = "0A0B3C42-2553-4A38-A2DF-85B7A92D388E";
width = 500;
}
);
note = Eogonek;
unicode = 0118;
},
{
glyphname = Etilde;
lastChange = "2018-03-07 08:14:48 +0000";
layers = (
{
background = {
paths = (
{
closed = 1;
nodes = (
"554 0 LINE",
"571 179 LINE",
"544 179 LINE",
"538 124 OFFCURVE",
"520 40 OFFCURVE",
"456 40 CURVE SMOOTH",
"201 40 LINE",
"201 659 LINE",
"441 659 LINE SMOOTH",
"516 659 OFFCURVE",
"525 567 OFFCURVE",
"528 527 CURVE",
"555 527 LINE",
"555 700 LINE",
"16 700 LINE",
"16 673 LINE",
"44 673 LINE SMOOTH",
"83 673 OFFCURVE",
"103 662 OFFCURVE",
"103 637 CURVE SMOOTH",
"103 62 LINE SMOOTH",
"103 37 OFFCURVE",
"83 26 OFFCURVE",
"44 26 CURVE SMOOTH",
"16 26 LINE",
"16 0 LINE"
);
},
{
closed = 1;
nodes = (
"455 251 LINE",
"455 485 LINE",
"431 485 LINE",
"427 436 OFFCURVE",
"424 388 OFFCURVE",
"379 388 CURVE SMOOTH",
"162 388 LINE",
"162 348 LINE",
"379 348 LINE SMOOTH",
"424 348 OFFCURVE",
"427 300 OFFCURVE",
"431 251 CURVE"
);
},
{
closed = 1;
nodes = (
"190 817 OFFCURVE",
"208 838 OFFCURVE",
"241 838 CURVE SMOOTH",
"292 838 OFFCURVE",
"341 784 OFFCURVE",
"392 784 CURVE SMOOTH",
"450 784 OFFCURVE",
"480 832 OFFCURVE",
"492 884 CURVE",
"471 895 LINE",
"455 855 OFFCURVE",
"439 833 OFFCURVE",
"405 833 CURVE SMOOTH",
"356 833 OFFCURVE",
"304 886 OFFCURVE",
"253 886 CURVE SMOOTH",
"199 886 OFFCURVE",
"166 842 OFFCURVE",
"154 790 CURVE",
"176 779 LINE"
);
}
);
};
components = (
{
name = E;
},
{
name = tildecomb;
transform = "{1, 0, 0, 1, 93, 190}";
}
);
layerId = "0B1DFD06-3317-40CA-B510-4969A0718C16";
width = 520;
},
{
background = {
paths = (
{
closed = 1;
nodes = (
"554 0 LINE",
"571 179 LINE",
"544 179 LINE",
"538 124 OFFCURVE",
"520 40 OFFCURVE",
"456 40 CURVE SMOOTH",
"201 40 LINE",
"201 659 LINE",
"441 659 LINE SMOOTH",
"516 659 OFFCURVE",
"525 567 OFFCURVE",
"528 527 CURVE",
"555 527 LINE",
"555 700 LINE",
"16 700 LINE",
"16 673 LINE",
"44 673 LINE SMOOTH",
"83 673 OFFCURVE",
"103 662 OFFCURVE",
"103 637 CURVE SMOOTH",
"103 62 LINE SMOOTH",
"103 37 OFFCURVE",
"83 26 OFFCURVE",
"44 26 CURVE SMOOTH",
"16 26 LINE",
"16 0 LINE"
);
},
{
closed = 1;
nodes = (
"455 251 LINE",
"455 485 LINE",
"431 485 LINE",
"427 436 OFFCURVE",
"424 388 OFFCURVE",
"379 388 CURVE SMOOTH",
"162 388 LINE",
"162 348 LINE",
"379 348 LINE SMOOTH",
"424 348 OFFCURVE",
"427 300 OFFCURVE",
"431 251 CURVE"
);
},
{
closed = 1;
nodes = (
"190 817 OFFCURVE",
"208 838 OFFCURVE",
"241 838 CURVE SMOOTH",
"292 838 OFFCURVE",
"341 784 OFFCURVE",
"392 784 CURVE SMOOTH",
"450 784 OFFCURVE",
"480 832 OFFCURVE",
"492 884 CURVE",
"471 895 LINE",
"455 855 OFFCURVE",
"439 833 OFFCURVE",
"405 833 CURVE SMOOTH",
"356 833 OFFCURVE",
"304 886 OFFCURVE",
"253 886 CURVE SMOOTH",
"199 886 OFFCURVE",
"166 842 OFFCURVE",
"154 790 CURVE",
"176 779 LINE"
);
}
);
};
components = (
{
name = E;
},
{
name = tildecomb;
transform = "{1, 0, 0, 1, 103, 190}";
}
);
layerId = "0A0B3C42-2553-4A38-A2DF-85B7A92D388E";
width = 500;
}
);
note = Etilde;
unicode = 1EBC;
},
{
glyphname = Hbar;
lastChange = "2018-03-07 08:14:48 +0000";
layers = (
{
components = (
{
name = H;
}
);
layerId = "0B1DFD06-3317-40CA-B510-4969A0718C16";
paths = (
{
closed = 1;
nodes = (
"691 500 LINE",
"703 576 LINE",
"67 576 LINE",
"55 500 LINE"
);
}
);
width = 668;
},
{
components = (
{
name = H;
}
);
layerId = "0A0B3C42-2553-4A38-A2DF-85B7A92D388E";
paths = (
{
closed = 1;
nodes = (
"691 522 LINE",
"696 554 LINE",
"48 554 LINE",
"43 522 LINE"
);
}
);
width = 648;
}
);
note = Hbar;
unicode = 0126;
},
{
glyphname = Lslash;
lastChange = "2018-03-07 08:14:48 +0000";
layers = (
{
components = (
{
name = L;
}
);
layerId = "0B1DFD06-3317-40CA-B510-4969A0718C16";
paths = (
{
closed = 1;
nodes = (
"380 440 LINE",
"389 500 LINE",
"20 380 LINE",
"11 320 LINE"
);
}
);
width = 566;
},
{
components = (
{
name = L;
}
);
layerId = "0A0B3C42-2553-4A38-A2DF-85B7A92D388E";
paths = (
{
closed = 1;
nodes = (
"383 464 LINE",
"389 496 LINE",
"16 356 LINE",
"11 324 LINE"
);
}
);
width = 474;
}
);
note = Lslash;
unicode = 0141;
},
{
glyphname = Nacute;
lastChange = "2018-03-07 08:14:48 +0000";
layers = (
{
background = {
paths = (
{
closed = 1;
nodes = (
"247 0 LINE",
"247 26 LINE",
"217 26 LINE SMOOTH",
"179 26 OFFCURVE",
"159 37 OFFCURVE",
"159 62 CURVE SMOOTH",
"159 642 LINE",
"587 0 LINE",
"645 0 LINE",
"645 637 LINE SMOOTH",
"645 662 OFFCURVE",
"665 673 OFFCURVE",
"703 673 CURVE SMOOTH",
"733 673 LINE",
"733 700 LINE",
"508 700 LINE",
"508 673 LINE",
"537 673 LINE SMOOTH",
"576 673 OFFCURVE",
"595 662 OFFCURVE",
"595 637 CURVE SMOOTH",
"595 126 LINE",
"217 700 LINE",
"22 700 LINE",
"22 673 LINE",
"51 673 LINE SMOOTH",
"90 673 OFFCURVE",
"109 662 OFFCURVE",
"109 637 CURVE SMOOTH",
"109 62 LINE SMOOTH",
"109 37 OFFCURVE",
"90 26 OFFCURVE",
"51 26 CURVE SMOOTH",
"22 26 LINE",
"22 0 LINE"
);
},
{
closed = 1;
nodes = (
"458 865 LINE SMOOTH",
"480 877 OFFCURVE",
"492 890 OFFCURVE",
"492 907 CURVE SMOOTH",
"492 922 OFFCURVE",
"480 937 OFFCURVE",
"458 937 CURVE SMOOTH",
"437 937 OFFCURVE",
"422 921 OFFCURVE",
"414 914 CURVE SMOOTH",
"299 807 LINE",
"316 782 LINE"
);
}
);
};
components = (
{
name = N;
},
{
name = acutecomb;
transform = "{1, 0, 0, 1, 276, 190}";
}
);
layerId = "0B1DFD06-3317-40CA-B510-4969A0718C16";
width = 659;
},
{
background = {
paths = (
{
closed = 1;
nodes = (
"247 0 LINE",
"247 26 LINE",
"217 26 LINE SMOOTH",
"179 26 OFFCURVE",
"159 37 OFFCURVE",
"159 62 CURVE SMOOTH",
"159 642 LINE",
"587 0 LINE",
"645 0 LINE",
"645 637 LINE SMOOTH",
"645 662 OFFCURVE",
"665 673 OFFCURVE",
"703 673 CURVE SMOOTH",
"733 673 LINE",
"733 700 LINE",
"508 700 LINE",
"508 673 LINE",
"537 673 LINE SMOOTH",
"576 673 OFFCURVE",
"595 662 OFFCURVE",
"595 637 CURVE SMOOTH",
"595 126 LINE",
"217 700 LINE",
"22 700 LINE",
"22 673 LINE",
"51 673 LINE SMOOTH",
"90 673 OFFCURVE",
"109 662 OFFCURVE",
"109 637 CURVE SMOOTH",
"109 62 LINE SMOOTH",
"109 37 OFFCURVE",
"90 26 OFFCURVE",
"51 26 CURVE SMOOTH",
"22 26 LINE",
"22 0 LINE"
);
},
{
closed = 1;
nodes = (
"458 865 LINE SMOOTH",
"480 877 OFFCURVE",
"492 890 OFFCURVE",
"492 907 CURVE SMOOTH",
"492 922 OFFCURVE",
"480 937 OFFCURVE",
"458 937 CURVE SMOOTH",
"437 937 OFFCURVE",
"422 921 OFFCURVE",
"414 914 CURVE SMOOTH",
"299 807 LINE",
"316 782 LINE"
);
}
);
};
components = (
{
name = N;
},
{
name = acutecomb;
transform = "{1, 0, 0, 1, 283, 190}";
}
);
layerId = "0A0B3C42-2553-4A38-A2DF-85B7A92D388E";
width = 639;
}
);
note = Nacute;
unicode = 0143;
},
{
glyphname = Ncaron;
lastChange = "2018-03-07 08:14:48 +0000";
layers = (
{
background = {
paths = (
{
closed = 1;
nodes = (
"247 0 LINE",
"247 26 LINE",
"217 26 LINE SMOOTH",
"179 26 OFFCURVE",
"159 37 OFFCURVE",
"159 62 CURVE SMOOTH",
"159 642 LINE",
"587 0 LINE",
"645 0 LINE",
"645 637 LINE SMOOTH",
"645 662 OFFCURVE",
"665 673 OFFCURVE",
"703 673 CURVE SMOOTH",
"733 673 LINE",
"733 700 LINE",
"508 700 LINE",
"508 673 LINE",
"537 673 LINE SMOOTH",
"576 673 OFFCURVE",
"595 662 OFFCURVE",
"595 637 CURVE SMOOTH",
"595 126 LINE",
"217 700 LINE",
"22 700 LINE",
"22 673 LINE",
"51 673 LINE SMOOTH",
"90 673 OFFCURVE",
"109 662 OFFCURVE",
"109 637 CURVE SMOOTH",
"109 62 LINE SMOOTH",
"109 37 OFFCURVE",
"90 26 OFFCURVE",
"51 26 CURVE SMOOTH",
"22 26 LINE",
"22 0 LINE"
);
},
{
closed = 1;
nodes = (
"403 782 LINE",
"527 911 LINE",
"508 932 LINE",
"400 847 LINE",
"392 840 OFFCURVE",
"383 836 OFFCURVE",
"377 836 CURVE SMOOTH",
"371 836 OFFCURVE",
"363 840 OFFCURVE",
"353 847 CURVE",
"245 932 LINE",
"226 911 LINE",
"350 782 LINE"
);
}
);
};
components = (
{
name = N;
},
{
name = caroncomb;
transform = "{1, 0, 0, 1, 169, 190}";
}
);
layerId = "0B1DFD06-3317-40CA-B510-4969A0718C16";
width = 659;
},
{
background = {
paths = (
{
closed = 1;
nodes = (
"247 0 LINE",
"247 26 LINE",
"217 26 LINE SMOOTH",
"179 26 OFFCURVE",
"159 37 OFFCURVE",
"159 62 CURVE SMOOTH",
"159 642 LINE",
"587 0 LINE",
"645 0 LINE",
"645 637 LINE SMOOTH",
"645 662 OFFCURVE",
"665 673 OFFCURVE",
"703 673 CURVE SMOOTH",
"733 673 LINE",
"733 700 LINE",
"508 700 LINE",
"508 673 LINE",
"537 673 LINE SMOOTH",
"576 673 OFFCURVE",
"595 662 OFFCURVE",
"595 637 CURVE SMOOTH",
"595 126 LINE",
"217 700 LINE",
"22 700 LINE",
"22 673 LINE",
"51 673 LINE SMOOTH",
"90 673 OFFCURVE",
"109 662 OFFCURVE",
"109 637 CURVE SMOOTH",
"109 62 LINE SMOOTH",
"109 37 OFFCURVE",
"90 26 OFFCURVE",
"51 26 CURVE SMOOTH",
"22 26 LINE",
"22 0 LINE"
);
},
{
closed = 1;
nodes = (
"403 782 LINE",
"527 911 LINE",
"508 932 LINE",
"400 847 LINE",
"392 840 OFFCURVE",
"383 836 OFFCURVE",
"377 836 CURVE SMOOTH",
"371 836 OFFCURVE",
"363 840 OFFCURVE",
"353 847 CURVE",
"245 932 LINE",
"226 911 LINE",
"350 782 LINE"
);
}
);
};
components = (
{
name = N;
},
{
name = caroncomb;
transform = "{1, 0, 0, 1, 189, 190}";
}
);
layerId = "0A0B3C42-2553-4A38-A2DF-85B7A92D388E";
width = 639;
}
);
note = Ncaron;
unicode = 0147;
},
